<svg xmlns="http://www.w3.org/2000/svg" xmlns:xlink="http://www.w3.org/1999/xlink" version="1.0" viewBox="0 0 602 759.591"><g style="fill:#ed1c24;stroke:#000;stroke-width:3;stroke-miterlimit:4;stroke-opacity:1;stroke-dasharray:none;display:inline"><path d="M-493.561 458.912h423.557v423.557h-423.557z" style="fill:#ff1e00;fill-opacity:1;fill-rule:evenodd;stroke:#000;stroke-width:3;stroke-linecap:butt;stroke-linejoin:miter;stroke-miterlimit:4;stroke-opacity:1;stroke-dasharray:none;stroke-dashoffset:0;marker:none;visibility:visible;display:inline;overflow:visible" transform="rotate(-45 -246.418 -138.84)"/></g><g style="fill:#f5f5f5;stroke:#000;stroke-width:.50353193;stroke-miterlimit:4;stroke-opacity:1;stroke-dasharray:none"><path d="M342.25 511.251c7.001 5.819 28.855 8.885 43.91-1.925-4.796-8.793-4.075-25.252-14.622-41.06-12.018-18.014-32.428-11.759-37.897-9.149s-8.259 10.576-10.154 19.542c3.269 4.933 7.976 9.578.322 15.351 2.003-.011 3.591.868 5.311 1.298 6.88 1.718 8.652 9.95 13.13 15.943z" style="fill:#f5f5f5;fill-rule:evenodd;stroke:#000;stroke-width:.50353193;stroke-linecap:butt;stroke-linejoin:miter;stroke-miterlimit:4;stroke-opacity:1;stroke-dasharray:none" transform="translate(-762.26 -884.019)scale(2.97896)"/><path d="M323.838 477.347c-5.518 1.977-12.903 4.996-18.282 7.95l20.68 1.642c-4.646 1.911-11.306 4.141-15.953 6.481 3.502.905 6.98 1.758 17.752 1.313.671-1.562 5.74-2.854 5.426-6.124-5.865-5.307-5.906-8.488-9.623-11.262z" style="fill:#f5f5f5;fill-rule:evenodd;stroke:#000;stroke-width:.50353193;stroke-linecap:butt;stroke-linejoin:miter;stroke-miterlimit:4;stroke-opacity:1;stroke-dasharray:none" transform="translate(-762.26 -884.019)scale(2.97896)"/><path d="M335.775 474.987a3.447 3.447 0 1 0 6.894 0 3.447 3.447 0 1 0-6.894 0z" style="fill:#000;fill-opacity:1;fill-rule:nonzero;stroke:#000;stroke-width:.50353193;stroke-linecap:butt;stroke-linejoin:miter;stroke-miterlimit:4;stroke-opacity:1;stroke-dasharray:none;stroke-dashoffset:0;marker:none;visibility:visible;display:inline;overflow:visible" transform="translate(-762.26 -884.019)scale(2.97896)"/></g><g style="stroke-width:1.0689317"><path d="M338.052 481.621c.247-1.44 7.08-15.273 15.574-18.433 6.22-2.314 7.65-1.034 7.65-1.034s1.004 1.536-4.085 5.376c-5.142 3.88-13.538 12.743-19.14 14.091z" style="fill:#ffdc14;fill-opacity:1;fill-rule:evenodd;stroke:#000;stroke-width:1.0689317;stroke-linecap:butt;stroke-linejoin:miter;stroke-opacity:1" transform="matrix(.48085 1.49156 -1.15561 .51055 575.46 -282.092)"/><path d="M360.965 462.25c-6.753 2.165-12.654 8.42-17.297 13.226" style="fill:none;stroke:#000;stroke-width:1.0689317;stroke-linecap:round;stroke-linejoin:round;stroke-opacity:1" transform="matrix(.48085 1.49156 -1.15561 .51055 575.46 -282.092)"/></g><g style="stroke-width:1.0689317"><path d="M309.134 558.266c.412-2.403 11.828-25.486 26.046-30.742 10.41-3.85 12.81-1.708 12.81-1.708s1.684 2.567-6.832 8.966c-8.603 6.466-22.647 21.247-32.024 23.484z" style="fill:#ffdc14;fill-opacity:1;fill-rule:evenodd;stroke:#000;stroke-width:1.0689317;stroke-linecap:butt;stroke-linejoin:miter;stroke-opacity:1" transform="matrix(-1.071 1.14408 .82754 .9546 44.354 -404.397)"/><path d="M347.468 525.974c-11.304 3.6-21.174 14.03-28.94 22.045" style="fill:none;stroke:#000;stroke-width:1.0689317;stroke-linecap:round;stroke-linejoin:round;stroke-opacity:1" transform="matrix(-1.071 1.14408 .82754 .9546 44.354 -404.397)"/></g><path d="M173.718 599.581c3.259 9.767 12.728 4.465 15.45 2.141-26.21-108.943-5.163-151.846 35.938-173.35 40.65-21.27 62.753-36.265 103.626-49.77 37.589-12.42 98.517-26.202 98.517-26.202s-66 9.778-102.346 19.19c-24.265 6.284-69.02 25.561-106.769 49.283-28.209 17.727-74.37 47.628-44.416 178.708z" style="fill:#ffdc14;fill-opacity:1;fill-rule:evenodd;stroke:#000;stroke-width:1.5;stroke-linecap:butt;stroke-linejoin:miter;stroke-opacity:1"/><g style="stroke-width:1.13016272"><path d="M309.134 558.266c.412-2.403 11.828-25.486 26.046-30.742 10.41-3.85 12.81-1.708 12.81-1.708s1.684 2.567-6.832 8.966c-8.603 6.466-22.647 21.247-32.024 23.484z" style="fill:#ffdc14;fill-opacity:1;fill-rule:evenodd;stroke:#000;stroke-width:1.13016272;stroke-linecap:butt;stroke-linejoin:miter;stroke-opacity:1" transform="rotate(80.225 602.05 521.332)scale(1.32724)"/><path d="M347.468 525.974c-11.304 3.6-21.174 14.03-28.94 22.045" style="fill:none;stroke:#000;stroke-width:1.13016272;stroke-linecap:round;stroke-linejoin:round;stroke-opacity:1" transform="rotate(80.225 602.05 521.332)scale(1.32724)"/></g><g style="stroke-width:1.14596927"><path d="M309.134 558.266c.412-2.403 11.828-25.486 26.046-30.742 10.41-3.85 12.81-1.708 12.81-1.708s1.684 2.567-6.832 8.966c-8.603 6.466-22.647 21.247-32.024 23.484z" style="fill:#ffdc14;fill-opacity:1;fill-rule:evenodd;stroke:#000;stroke-width:1.14596927;stroke-linecap:butt;stroke-linejoin:miter;stroke-opacity:1" transform="scale(-1.30894 1.30894)rotate(-59.342 -235.044 940.525)"/><path d="M347.468 525.974c-11.304 3.6-21.174 14.03-28.94 22.045" style="fill:none;stroke:#000;stroke-width:1.14596927;stroke-linecap:round;stroke-linejoin:round;stroke-opacity:1" transform="scale(-1.30894 1.30894)rotate(-59.342 -235.044 940.525)"/></g><g style="stroke-width:1.21229792"><path d="M386.56 410.298s-1.773 14-11.463 30.264c-9.217 15.47-5.355 17.585-10.098 20.569-2.977-4.986-5.483-14.91 4.747-31.986 8.259-13.785 15.928-19.101 16.814-18.847z" style="fill:#ffdc14;fill-opacity:1;fill-rule:evenodd;stroke:#000;stroke-width:1.57649028;stroke-linecap:butt;stroke-linejoin:miter;stroke-opacity:1" transform="matrix(.99333 .46153 -.2737 .78423 171.417 -173.88)"/><path d="M365.174 460.54c-2.339-10.969 4.38-24.841 15.24-40.04" style="fill:none;stroke:#000;stroke-width:1.57649028;stroke-linecap:butt;stroke-linejoin:miter;stroke-opacity:1" transform="matrix(.99333 .46153 -.2737 .78423 171.417 -173.88)"/></g><g style="stroke-width:1.16294873"><path d="M344.933 504.185s1.521-5.893 7.416-6.653c5.894-.76 9.127.38 9.127.38l1.14-2.47s-6.464-.381-9.507 0c-3.042.38-3.803.57-3.803.57s3.043-4.563 4.944-5.703c1.902-1.14 4.754-2.661 4.754-2.661l-1.141-1.901s-5.514 3.041-7.036 4.372c-1.52 1.33-7.415 11.025-7.415 11.025" style="fill:#ffdc14;fill-opacity:1;fill-rule:evenodd;stroke:#000;stroke-width:1.16294873;stroke-linecap:butt;stroke-linejoin:miter;stroke-opacity:1" transform="rotate(65.748 637.35 459.917)scale(1.2898)"/><path d="M358.197 560.588c0 2.36-2.818 4.273-6.296 4.273-3.477 0-6.296-1.913-6.296-4.273s2.82-4.272 6.296-4.272c3.478 0 6.296 1.913 6.296 4.272" style="fill:#000;fill-opacity:1;fill-rule:evenodd;stroke:#969696;stroke-width:1.16294873;stroke-linecap:round;stroke-linejoin:round;stroke-miterlimit:4;stroke-opacity:1;stroke-dasharray:none;stroke-dashoffset:0;marker:none;visibility:visible;display:inline;overflow:visible" transform="rotate(52.387 788.912 510.9)scale(1.28982)"/><path d="M358.197 560.588c0 2.36-2.818 4.273-6.296 4.273-3.477 0-6.296-1.913-6.296-4.273s2.82-4.272 6.296-4.272c3.478 0 6.296 1.913 6.296 4.272" style="fill:#000;fill-opacity:1;fill-rule:evenodd;stroke:#969696;stroke-width:1.16294861;stroke-linecap:round;stroke-linejoin:round;stroke-miterlimit:4;stroke-opacity:1;stroke-dasharray:none;stroke-dashoffset:0;marker:none;visibility:visible;display:inline;overflow:visible" transform="rotate(78.143 638.184 522.302)scale(1.28982)"/></g><g style="stroke-width:1.08686674"><path d="M344.933 504.185s1.521-5.893 7.416-6.653c5.894-.76 9.127.38 9.127.38l1.14-2.47s-6.464-.381-9.507 0c-3.042.38-3.803.57-3.803.57s3.043-4.563 4.944-5.703c1.902-1.14 4.754-2.661 4.754-2.661l-1.141-1.901s-5.514 3.041-7.036 4.372c-1.52 1.33-7.415 11.025-7.415 11.025" style="fill:#ffdc14;fill-opacity:1;fill-rule:evenodd;stroke:#000;stroke-width:1.08686674;stroke-linecap:butt;stroke-linejoin:miter;stroke-opacity:1" transform="scale(-1.38011 1.38011)rotate(-59.342 -163.748 911.365)"/><path d="M358.197 560.588c0 2.36-2.818 4.273-6.296 4.273-3.477 0-6.296-1.913-6.296-4.273s2.82-4.272 6.296-4.272c3.478 0 6.296 1.913 6.296 4.272" style="fill:#000;fill-opacity:1;fill-rule:evenodd;stroke:#969696;stroke-width:1.08686674;stroke-linecap:round;stroke-linejoin:round;stroke-miterlimit:4;stroke-opacity:1;stroke-dasharray:none;stroke-dashoffset:0;marker:none;visibility:visible;display:inline;overflow:visible" transform="matrix(-.41033 -1.3177 -1.3177 .41033 1243.168 565.7)"/><path d="M358.197 560.588c0 2.36-2.818 4.273-6.296 4.273-3.477 0-6.296-1.913-6.296-4.273s2.82-4.272 6.296-4.272c3.478 0 6.296 1.913 6.296 4.272" style="fill:#000;fill-opacity:1;fill-rule:evenodd;stroke:#969696;stroke-width:1.08686674;stroke-linecap:round;stroke-linejoin:round;stroke-miterlimit:4;stroke-opacity:1;stroke-dasharray:none;stroke-dashoffset:0;marker:none;visibility:visible;display:inline;overflow:visible" transform="scale(-1.38011 1.38011)rotate(-46.947 -312.613 1095.893)"/></g><g style="stroke-width:.97168064"><path d="M309.134 558.266c.412-2.403 11.828-25.486 26.046-30.742 10.41-3.85 12.81-1.708 12.81-1.708s1.684 2.567-6.832 8.966c-8.603 6.466-22.647 21.247-32.024 23.484z" style="fill:#ffdc14;fill-opacity:1;fill-rule:evenodd;stroke:#000;stroke-width:.97168064;stroke-linecap:butt;stroke-linejoin:miter;stroke-opacity:1" transform="matrix(-1.51239 -.67385 -.68922 1.26861 1080.968 -81.889)"/><path d="M347.468 525.974c-11.304 3.6-21.174 14.03-28.94 22.045" style="fill:none;stroke:#000;stroke-width:.97168064;stroke-linecap:round;stroke-linejoin:round;stroke-opacity:1" transform="matrix(-1.51239 -.67385 -.68922 1.26861 1080.968 -81.889)"/></g><g style="stroke-width:.84777063"><path d="M309.134 558.266c.412-2.403 11.828-25.486 26.046-30.742 10.41-3.85 12.81-1.708 12.81-1.708s1.684 2.567-6.832 8.966c-8.603 6.466-22.647 21.247-32.024 23.484z" style="fill:#ffdc14;fill-opacity:1;fill-rule:evenodd;stroke:#000;stroke-width:.84777063;stroke-linecap:butt;stroke-linejoin:miter;stroke-opacity:1" transform="matrix(.94778 1.73384 -1.31074 .90524 665.64 -616.515)"/><path d="M347.468 525.974c-11.304 3.6-21.174 14.03-28.94 22.045" style="fill:none;stroke:#000;stroke-width:.84777063;stroke-linecap:round;stroke-linejoin:round;stroke-opacity:1" transform="matrix(.94778 1.73384 -1.31074 .90524 665.64 -616.515)"/></g><g style="stroke-width:.98870313"><path d="M343.655 475.154c.412-2.404 11.828-25.486 26.046-30.743 10.41-3.849 12.81-1.708 12.81-1.708s1.683 2.567-6.832 8.967c-8.603 6.465-22.647 21.246-32.024 23.484z" style="fill:#ffdc14;fill-opacity:1;fill-rule:evenodd;stroke:#000;stroke-width:.98870313;stroke-linecap:butt;stroke-linejoin:miter;stroke-opacity:1" transform="matrix(.323 1.62207 -1.33246 .4346 788.527 -361.74)"/><path d="M381.989 442.861c-11.304 3.6-21.174 14.03-28.94 22.045" style="fill:none;stroke:#000;stroke-width:.98870313;stroke-linecap:round;stroke-linejoin:round;stroke-opacity:1" transform="matrix(.323 1.62207 -1.33246 .4346 788.527 -361.74)"/></g><g style="stroke-width:.98870307"><path d="M337.636 487.588c.412-2.404 11.828-25.486 26.046-30.743 10.41-3.848 12.81-1.708 12.81-1.708s1.683 2.568-6.832 8.967c-8.604 6.466-22.647 21.247-32.024 23.484z" style="fill:#ffdc14;fill-opacity:1;fill-rule:evenodd;stroke:#000;stroke-width:.98870307;stroke-linecap:butt;stroke-linejoin:miter;stroke-opacity:1" transform="matrix(.21597 1.63975 -1.35808 .34632 915.956 -346.49)"/><path d="M375.97 455.296c-11.304 3.6-21.174 14.03-28.94 22.045" style="fill:none;stroke:#000;stroke-width:.98870307;stroke-linecap:round;stroke-linejoin:round;stroke-opacity:1" transform="matrix(.21597 1.63975 -1.35808 .34632 915.956 -346.49)"/></g><g style="stroke-width:.9891265"><path d="M346.457 502.976s1.521-5.892 7.416-6.653c5.894-.76 9.127.38 9.127.38l1.14-2.47s-6.464-.38-9.506 0c-3.043.38-3.803.57-3.803.57s3.042-4.562 4.943-5.703c1.902-1.14 4.754-2.661 4.754-2.661l-1.14-1.9s-5.515 3.04-7.036 4.371c-1.521 1.33-7.416 11.025-7.416 11.025" style="fill:#ffdc14;fill-opacity:1;fill-rule:evenodd;stroke:#000;stroke-width:.9891265;stroke-linecap:butt;stroke-linejoin:miter;stroke-opacity:1" transform="rotate(83.413 627.73 451.718)scale(1.51649)"/><path d="M358.197 560.588c0 2.36-2.818 4.273-6.296 4.273-3.477 0-6.296-1.913-6.296-4.273s2.82-4.272 6.296-4.272c3.478 0 6.296 1.913 6.296 4.272" style="fill:#000;fill-opacity:1;fill-rule:evenodd;stroke:#969696;stroke-width:.98912644;stroke-linecap:round;stroke-linejoin:round;stroke-miterlimit:4;stroke-opacity:1;stroke-dasharray:none;stroke-dashoffset:0;marker:none;visibility:visible;display:inline;overflow:visible" transform="rotate(70.052 749.212 490.958)scale(1.51649)"/><path d="M358.197 560.588c0 2.36-2.818 4.273-6.296 4.273-3.477 0-6.296-1.913-6.296-4.273s2.82-4.272 6.296-4.272c3.478 0 6.296 1.913 6.296 4.272" style="fill:#000;fill-opacity:1;fill-rule:evenodd;stroke:#969696;stroke-width:.98912644;stroke-linecap:round;stroke-linejoin:round;stroke-miterlimit:4;stroke-opacity:1;stroke-dasharray:none;stroke-dashoffset:0;marker:none;visibility:visible;display:inline;overflow:visible" transform="rotate(95.809 623.667 536.83)scale(1.51649)"/></g><g style="stroke-width:.98870307"><path d="M309.134 558.266c.412-2.403 11.828-25.486 26.046-30.742 10.41-3.85 12.81-1.708 12.81-1.708s1.684 2.567-6.832 8.966c-8.603 6.466-22.647 21.247-32.024 23.484z" style="fill:#ffdc14;fill-opacity:1;fill-rule:evenodd;stroke:#000;stroke-width:.98870307;stroke-linecap:butt;stroke-linejoin:miter;stroke-opacity:1" transform="matrix(-1.33484 -.97653 -.95569 1.02518 1276.724 103.39)"/><path d="M347.468 525.974c-11.304 3.6-21.174 14.03-28.94 22.045" style="fill:none;stroke:#000;stroke-width:.98870307;stroke-linecap:round;stroke-linejoin:round;stroke-opacity:1" transform="matrix(-1.33484 -.97653 -.95569 1.02518 1276.724 103.39)"/></g><g style="stroke-width:.9891265"><path d="M341.09 502.148s1.52-5.893 7.415-6.653 9.127.38 9.127.38l1.141-2.471s-6.465-.38-9.507 0c-3.043.38-3.803.57-3.803.57s3.042-4.562 4.944-5.702c1.901-1.14 4.753-2.661 4.753-2.661l-1.14-1.901s-5.515 3.041-7.036 4.372-7.416 11.025-7.416 11.025" style="fill:#ffdc14;fill-opacity:1;fill-rule:evenodd;stroke:#000;stroke-width:.9891265;stroke-linecap:butt;stroke-linejoin:miter;stroke-opacity:1" transform="scale(-1.51649 1.51649)rotate(-46.361 -220.414 1006.259)"/><path d="M358.197 560.588c0 2.36-2.818 4.273-6.296 4.273-3.477 0-6.296-1.913-6.296-4.273s2.82-4.272 6.296-4.272c3.478 0 6.296 1.913 6.296 4.272" style="fill:#000;fill-opacity:1;fill-rule:evenodd;stroke:#969696;stroke-width:.98912644;stroke-linecap:round;stroke-linejoin:round;stroke-miterlimit:4;stroke-opacity:1;stroke-dasharray:none;stroke-dashoffset:0;marker:none;visibility:visible;display:inline;overflow:visible" transform="scale(-1.51649 1.51649)rotate(-59.722 -214.782 872.126)"/><path d="M358.197 560.588c0 2.36-2.818 4.273-6.296 4.273-3.477 0-6.296-1.913-6.296-4.273s2.82-4.272 6.296-4.272c3.478 0 6.296 1.913 6.296 4.272" style="fill:#000;fill-opacity:1;fill-rule:evenodd;stroke:#969696;stroke-width:.98912644;stroke-linecap:round;stroke-linejoin:round;stroke-miterlimit:4;stroke-opacity:1;stroke-dasharray:none;stroke-dashoffset:0;marker:none;visibility:visible;display:inline;overflow:visible" transform="scale(-1.51649 1.51649)rotate(-33.965 -455.836 1281.278)"/></g><g style="stroke-width:1.08661175"><path d="M329.814 481.428c.411-2.404 11.828-25.486 26.045-30.743 10.41-3.849 12.81-1.708 12.81-1.708s1.684 2.567-6.832 8.967c-8.603 6.465-22.646 21.246-32.023 23.484z" style="fill:#ffdc14;fill-opacity:1;fill-rule:evenodd;stroke:#000;stroke-width:1.08661175;stroke-linecap:butt;stroke-linejoin:miter;stroke-opacity:1" transform="matrix(-1.2394 -.70347 -.83959 1.06098 1087.67 116.948)"/><path d="M368.147 449.135c-11.304 3.6-21.174 14.03-28.94 22.045" style="fill:none;stroke:#000;stroke-width:1.08661175;stroke-linecap:round;stroke-linejoin:round;stroke-opacity:1" transform="matrix(-1.2394 -.70347 -.83959 1.06098 1087.67 116.948)"/></g><g style="stroke-width:.9891265"><path d="M344.933 504.185s1.521-5.893 7.416-6.653c5.894-.76 9.127.38 9.127.38l1.14-2.47s-6.464-.381-9.507 0c-3.042.38-3.803.57-3.803.57s3.043-4.563 4.944-5.703c1.902-1.14 4.754-2.661 4.754-2.661l-1.141-1.901s-5.514 3.041-7.036 4.372c-1.52 1.33-7.415 11.025-7.415 11.025" style="fill:#ffdc14;fill-opacity:1;fill-rule:evenodd;stroke:#000;stroke-width:.9891265;stroke-linecap:butt;stroke-linejoin:miter;stroke-opacity:1" transform="rotate(83.413 548.296 424.418)scale(1.51649)"/><path d="M358.197 560.588c0 2.36-2.818 4.273-6.296 4.273-3.477 0-6.296-1.913-6.296-4.273s2.82-4.272 6.296-4.272c3.478 0 6.296 1.913 6.296 4.272" style="fill:#000;fill-opacity:1;fill-rule:evenodd;stroke:#969696;stroke-width:.98912644;stroke-linecap:round;stroke-linejoin:round;stroke-miterlimit:4;stroke-opacity:1;stroke-dasharray:none;stroke-dashoffset:0;marker:none;visibility:visible;display:inline;overflow:visible" transform="rotate(70.052 661.886 446.285)scale(1.51649)"/><path d="M358.197 560.588c0 2.36-2.818 4.273-6.296 4.273-3.477 0-6.296-1.913-6.296-4.273s2.82-4.272 6.296-4.272c3.478 0 6.296 1.913 6.296 4.272" style="fill:#000;fill-opacity:1;fill-rule:evenodd;stroke:#969696;stroke-width:.98912644;stroke-linecap:round;stroke-linejoin:round;stroke-miterlimit:4;stroke-opacity:1;stroke-dasharray:none;stroke-dashoffset:0;marker:none;visibility:visible;display:inline;overflow:visible" transform="rotate(95.809 550.119 518.2)scale(1.51649)"/></g><g style="stroke-width:.98912644"><path d="M344.933 504.185s1.521-5.893 7.416-6.653c5.894-.76 9.127.38 9.127.38l1.14-2.47s-6.464-.381-9.507 0c-3.042.38-3.803.57-3.803.57s3.043-4.563 4.944-5.703c1.902-1.14 4.754-2.661 4.754-2.661l-1.141-1.901s-5.514 3.041-7.036 4.372c-1.52 1.33-7.415 11.025-7.415 11.025" style="fill:#ffdc14;fill-opacity:1;fill-rule:evenodd;stroke:#000;stroke-width:.98912644;stroke-linecap:butt;stroke-linejoin:miter;stroke-opacity:1" transform="matrix(-1.2381 -.8757 -.8757 1.2381 1065.459 116.152)"/><path d="M358.197 560.588c0 2.36-2.818 4.273-6.296 4.273-3.477 0-6.296-1.913-6.296-4.273s2.82-4.272 6.296-4.272c3.478 0 6.296 1.913 6.296 4.272" style="fill:#000;fill-opacity:1;fill-rule:evenodd;stroke:#969696;stroke-width:.98912638;stroke-linecap:round;stroke-linejoin:round;stroke-miterlimit:4;stroke-opacity:1;stroke-dasharray:none;stroke-dashoffset:0;marker:none;visibility:visible;display:inline;overflow:visible" transform="scale(-1.51649 1.51649)rotate(-48.633 -215.764 939.7)"/><path d="M358.197 560.588c0 2.36-2.818 4.273-6.296 4.273-3.477 0-6.296-1.913-6.296-4.273s2.82-4.272 6.296-4.272c3.478 0 6.296 1.913 6.296 4.272" style="fill:#000;fill-opacity:1;fill-rule:evenodd;stroke:#969696;stroke-width:.98912638;stroke-linecap:round;stroke-linejoin:round;stroke-miterlimit:4;stroke-opacity:1;stroke-dasharray:none;stroke-dashoffset:0;marker:none;visibility:visible;display:inline;overflow:visible" transform="scale(-1.51649 1.51649)rotate(-22.876 -597.1 1574.864)"/></g><g style="stroke-width:1.1727668"><path d="M309.134 558.266c.412-2.403 11.828-25.486 26.046-30.742 10.41-3.85 12.81-1.708 12.81-1.708s1.684 2.567-6.832 8.966c-8.603 6.466-22.647 21.247-32.024 23.484z" style="fill:#ffdc14;fill-opacity:1;fill-rule:evenodd;stroke:#000;stroke-width:1.1727668;stroke-linecap:butt;stroke-linejoin:miter;stroke-opacity:1" transform="matrix(-1.36083 .3038 .11904 1.17556 526.626 -271.293)"/><path d="M347.468 525.974c-11.304 3.6-21.174 14.03-28.94 22.045" style="fill:none;stroke:#000;stroke-width:1.1727668;stroke-linecap:round;stroke-linejoin:round;stroke-opacity:1" transform="matrix(-1.36083 .3038 .11904 1.17556 526.626 -271.293)"/></g><g style="stroke-width:1.08661175"><path d="M329.814 481.428c.411-2.404 11.828-25.486 26.045-30.743 10.41-3.849 12.81-1.708 12.81-1.708s1.684 2.567-6.832 8.967c-8.603 6.465-22.646 21.246-32.023 23.484z" style="fill:#ffdc14;fill-opacity:1;fill-rule:evenodd;stroke:#000;stroke-width:.98757207;stroke-linecap:butt;stroke-linejoin:miter;stroke-opacity:1" transform="matrix(-1.2394 -.85165 -.83959 1.28445 1059.713 70.515)"/><path d="M368.147 449.135c-11.304 3.6-21.174 14.03-28.94 22.045" style="fill:none;stroke:#000;stroke-width:.98757207;stroke-linecap:round;stroke-linejoin:round;stroke-opacity:1" transform="matrix(-1.2394 -.85165 -.83959 1.28445 1059.713 70.515)"/></g><g style="stroke-width:1.1727668"><path d="M358.148 492.078c1.5-1.838 11.268-25.778 6.287-41.025-3.646-11.163-6.697-11.858-6.697-11.858s-2.918.172-2.308 11.32c.616 11.263-1.464 32.27 2.718 41.563z" style="fill:#ffdc14;fill-opacity:1;fill-rule:evenodd;stroke:#000;stroke-width:1.31857038;stroke-linecap:butt;stroke-linejoin:miter;stroke-opacity:1" transform="matrix(.39237 -1.24447 .961 .25021 -428.4 778.901)"/><path d="M357.946 439.733c4.383 11.762 2.89 26.552 1.856 38.07" style="fill:none;stroke:#000;stroke-width:1.31857038;stroke-linecap:round;stroke-linejoin:round;stroke-opacity:1" transform="matrix(.39237 -1.24447 .961 .25021 -428.4 778.901)"/></g><g style="stroke-width:1.1727668"><path d="M358.148 492.078c1.5-1.838 11.268-25.778 6.287-41.025-3.646-11.163-6.697-11.858-6.697-11.858s-2.918.172-2.308 11.32c.616 11.263-1.464 32.27 2.718 41.563z" style="fill:#ffdc14;fill-opacity:1;fill-rule:evenodd;stroke:#000;stroke-width:1.1727668;stroke-linecap:butt;stroke-linejoin:miter;stroke-opacity:1" transform="matrix(1.24755 -.62272 .64921 .98724 -583.367 192.326)"/><path d="M357.946 439.733c4.383 11.762 2.89 26.552 1.856 38.07" style="fill:none;stroke:#000;stroke-width:1.1727668;stroke-linecap:round;stroke-linejoin:round;stroke-opacity:1" transform="matrix(1.24755 -.62272 .64921 .98724 -583.367 192.326)"/></g><path d="M173.852 599.63c5.299-3.767 10.364-4.725 14.79 1.972" style="fill:none;stroke:#000;stroke-width:1.5;stroke-linecap:butt;stroke-linejoin:miter;stroke-opacity:1"/><path d="M202.44 537.977c-16.44 5.89-38.437 14.883-54.462 23.682l51.23 3.949" style="fill:#f5f5f5;fill-rule:evenodd;stroke:#000;stroke-width:1.5;stroke-linecap:butt;stroke-linejoin:miter;stroke-miterlimit:4;stroke-opacity:1;stroke-dasharray:none"/><path d="M204.062 530.661c4.689.266 4.476 2.37 5.883 3.866.96 3.946 2.528 8.857-.336 10.253-3.689-.22-5.828-3.023-8.236-5.378-1.865-3.918-.36-6.61 2.69-8.74z" style="fill:#f5f5f5;fill-rule:evenodd;stroke:#000;stroke-width:1.5;stroke-linecap:butt;stroke-linejoin:miter;stroke-opacity:1"/><g transform="translate(-174.618 -198.447)"><path d="M634.679 320.058c-43.238-44.928-120.85-33.377-168.237-31.643-65.372 28.432-149.209-18.975-153.62 32.432 153.351 9.636 192.4 10.267 321.857-.79z" style="fill:#ffdc14;stroke:#000;stroke-width:.92552745;stroke-miterlimit:4;stroke-opacity:1;stroke-dasharray:none;display:inline"/><g style="fill:none;stroke-width:1.174649;stroke-miterlimit:4;stroke-dasharray:none"><g style="fill:none"><path d="M210.606 209.915v-40.133" style="font-size:12px;fill:none;stroke:#000;stroke-width:.74587703;stroke-miterlimit:4;stroke-dasharray:none" transform="matrix(.82368 0 0 .63415 266.127 196.669)"/><path d="M189.38 208.372v-37.047" style="font-size:12px;fill:none;stroke:#000;stroke-width:1.31907177" transform="matrix(.82368 0 0 .63415 266.127 196.669)"/><path d="M172.15 208.152v-36.607" style="font-size:12px;fill:none;stroke:#000;stroke-width:1.98789394" transform="matrix(.82368 0 0 .63415 266.127 196.669)"/><path d="M156.753 206.521v-33.345" style="font-size:12px;fill:none;stroke:#000;stroke-width:2.32230806" transform="matrix(.82368 0 0 .63415 266.127 196.669)"/><path d="M143.428 204.919v-30.14" style="font-size:12px;fill:none;stroke:#000;stroke-width:2.63814354" transform="matrix(.82368 0 0 .63415 266.127 196.669)"/><path d="M131.282 203.945v-28.194" style="font-size:12px;fill:none;stroke:#000;stroke-width:2.97255707" transform="matrix(.82368 0 0 .63415 266.127 196.669)"/><path d="M118.47 202.128v-24.56" style="font-size:12px;fill:none;stroke:#000;stroke-width:3.3069706" transform="matrix(.82368 0 0 .63415 266.127 196.669)"/><path d="M107.049 200.279v-20.861" style="font-size:12px;fill:none;stroke:#000;stroke-width:3.64137936" transform="matrix(.82368 0 0 .63415 266.127 196.669)"/><path d="M97.011 198.87v-18.044" style="font-size:12px;fill:none;stroke:#000;stroke-width:3.97579312" transform="matrix(.82368 0 0 .63415 266.127 196.669)"/><path d="m82.02 195.608-.202-11.366m6.85 12.554V182.9" style="font-size:12px;fill:none;stroke:#000;stroke-width:4.29162884" transform="matrix(.82368 0 0 .63415 266.127 196.669)"/><path d="M75.007 194.02v-8.343" style="font-size:12px;fill:none;stroke:#000;stroke-width:4.86755943" transform="matrix(.82368 0 0 .63415 266.127 196.669)"/><path d="M67.585 192.62v-5.544" style="font-size:12px;fill:none;stroke:#000;stroke-width:5.49925089" transform="matrix(.82368 0 0 .63415 266.127 196.669)"/><path d="m234.994 210.934.202-42.172" style="font-size:12px;fill:none;stroke:#000;stroke-width:.38579848;stroke-miterlimit:4;stroke-dasharray:none" transform="matrix(.82368 0 0 .63415 266.127 196.669)"/></g><g style="fill:none"><path d="M210.606 209.915v-40.133" style="font-size:12px;fill:none;stroke:#000;stroke-width:.74587703;stroke-miterlimit:4;stroke-dasharray:none" transform="matrix(-.82368 0 0 .63415 687.465 196.669)"/><path d="M189.38 208.372v-37.047" style="font-size:12px;fill:none;stroke:#000;stroke-width:1.31907177" transform="matrix(-.82368 0 0 .63415 687.465 196.669)"/><path d="M172.15 208.152v-36.607" style="font-size:12px;fill:none;stroke:#000;stroke-width:1.98789394" transform="matrix(-.82368 0 0 .63415 687.465 196.669)"/><path d="M156.753 206.521v-33.345" style="font-size:12px;fill:none;stroke:#000;stroke-width:2.32230806" transform="matrix(-.82368 0 0 .63415 687.465 196.669)"/><path d="M143.428 204.919v-30.14" style="font-size:12px;fill:none;stroke:#000;stroke-width:2.63814354" transform="matrix(-.82368 0 0 .63415 687.465 196.669)"/><path d="M131.282 203.945v-28.194" style="font-size:12px;fill:none;stroke:#000;stroke-width:2.97255707" transform="matrix(-.82368 0 0 .63415 687.465 196.669)"/><path d="M118.47 202.128v-24.56" style="font-size:12px;fill:none;stroke:#000;stroke-width:3.3069706" transform="matrix(-.82368 0 0 .63415 687.465 196.669)"/><path d="M107.049 200.279v-20.861" style="font-size:12px;fill:none;stroke:#000;stroke-width:3.64137936" transform="matrix(-.82368 0 0 .63415 687.465 196.669)"/><path d="M97.011 198.87v-18.044" style="font-size:12px;fill:none;stroke:#000;stroke-width:3.97579312" transform="matrix(-.82368 0 0 .63415 687.465 196.669)"/><path d="m82.02 195.608-.202-11.366m6.85 12.554V182.9" style="font-size:12px;fill:none;stroke:#000;stroke-width:4.29162884" transform="matrix(-.82368 0 0 .63415 687.465 196.669)"/><path d="M75.007 194.02v-8.343" style="font-size:12px;fill:none;stroke:#000;stroke-width:4.86755943" transform="matrix(-.82368 0 0 .63415 687.465 196.669)"/><path d="M67.585 192.62v-5.544" style="font-size:12px;fill:none;stroke:#000;stroke-width:5.49925089" transform="matrix(-.82368 0 0 .63415 687.465 196.669)"/><path d="m234.994 210.934.202-42.172" style="font-size:12px;fill:none;stroke:#000;stroke-width:.38579848;stroke-miterlimit:4;stroke-dasharray:none" transform="matrix(-.82368 0 0 .63415 687.465 196.669)"/></g></g><path d="M652.712 320.095c2.768-4.29-4.396-1.67-9.433-4.797-106.536 13.947-190.68 13.31-331.562.288-6.065 1.528-16.152.168-13.318 4.188 31.363 4.9 173.455 25.906 354.313.32z" style="font-size:medium;font-style:normal;font-variant:normal;font-weight:400;font-stretch:normal;text-indent:0;text-align:start;text-decoration:none;line-height:normal;letter-spacing:normal;word-spacing:normal;text-transform:none;direction:ltr;block-progression:tb;writing-mode:lr-tb;text-anchor:start;color:#000;fill:#ffdc14;stroke:#000;stroke-width:1;stroke-miterlimit:4;stroke-opacity:1;stroke-dasharray:none;marker:none;visibility:visible;display:inline;overflow:visible;font-family:Bitstream Vera Sans;-inkscape-font-specification:Bitstream Vera Sans"/><path d="M475.682 303.724c-62.365.489-112.853 1.97-174.532 7.507l-11.353-54.588c62.012-6.871 120.416-9.95 184.478-10.067 64.063-.18 125.152 3.196 187.164 10.067l-11.353 54.588c-61.68-5.537-112.167-7.018-174.532-7.507" style="fill:#ffdc14;stroke:#000;stroke-width:1;stroke-linecap:butt;stroke-linejoin:miter;stroke-miterlimit:4;stroke-opacity:1;stroke-dasharray:none;display:inline"/><path d="m354.955 247.739-.051.04h-.052c-22.15 1.593-47.786 3.332-70.155 6.38-3.163 3.78-3.426 7.228 2.33 9.985 21.476-2.926 46.798-4.706 68.964-6.3 30.063-1.743 60.374-2.832 90.607-3.13h57.988c18.085 0 56.279 1.103 90.607 3.17 34.17 2.056 69.068 6.26 69.068 6.26 5.955-3.04 5.308-6.442 2.07-9.986 0 0-35.219-4.319-70.103-6.419-34.727-2.09-72.873-3.17-91.642-3.17h-57.988c-31.94.327-64.343 1.714-91.643 3.17zm8.469 56.351-.048.04h-.048c-20.596 1.593-44.433 3.331-65.232 6.38-2.941 3.78-3.185 7.228 2.166 9.985 19.97-2.926 43.514-4.706 64.125-6.3 27.952-1.743 56.136-2.832 84.247-3.131h53.919c16.816 0 52.33 1.103 84.248 3.17 31.773 2.057 64.22 6.261 64.22 6.261 5.538-3.04 4.936-6.443 1.926-9.986 0 0-32.748-4.32-65.183-6.42-32.29-2.09-67.76-3.17-85.211-3.17h-53.919c-28.445.092-56.846 1.535-85.21 3.17z" style="font-size:medium;font-style:normal;font-variant:normal;font-weight:400;font-stretch:normal;text-indent:0;text-align:start;text-decoration:none;line-height:normal;letter-spacing:normal;word-spacing:normal;text-transform:none;direction:ltr;block-progression:tb;writing-mode:lr-tb;text-anchor:start;color:#000;fill:#ffdc14;stroke:#000;stroke-width:1;stroke-miterlimit:4;stroke-opacity:1;stroke-dasharray:none;marker:none;visibility:visible;display:inline;overflow:visible;font-family:Bitstream Vera Sans;-inkscape-font-specification:Bitstream Vera Sans"/><path d="m504.413 277.148-29.146-16.432-28.444 16.209 28.029 15.64z" style="fill:none;stroke:#000;stroke-width:1;stroke-linecap:butt;stroke-linejoin:miter;stroke-miterlimit:4;stroke-opacity:1;stroke-dasharray:none;display:inline"/><path d="m455.913 277.289 19.106-10.807 18.995 11.094-19.679 9.053z" style="fill:#ff1e00;stroke:#000;stroke-width:1;stroke-linecap:butt;stroke-linejoin:miter;stroke-miterlimit:4;stroke-opacity:1;stroke-dasharray:none;display:inline"/><rect width="52.298" height="26.158" x="-611.026" y="230.273" rx="13.373" ry="13.079" style="fill:none;stroke:#000;stroke-width:1.00000238;stroke-linecap:butt;stroke-linejoin:miter;stroke-miterlimit:4;stroke-opacity:1;stroke-dasharray:none;stroke-dashoffset:0;marker:none;visibility:visible;display:inline;overflow:visible" transform="matrix(-.99817 -.06041 -.06345 .99798 0 0)"/><rect width="52.298" height="26.158" x="338.26" y="288.323" rx="13.373" ry="13.079" style="fill:none;stroke:#000;stroke-width:1.00000238;stroke-linecap:butt;stroke-linejoin:miter;stroke-miterlimit:4;stroke-opacity:1;stroke-dasharray:none;stroke-dashoffset:0;marker:none;visibility:visible;display:inline;overflow:visible" transform="rotate(-3.464)skewX(.174)"/><path d="m658.597 270.238-30.97 10.614 24.617 20.598z" style="fill:none;stroke:#000;stroke-width:1;stroke-linecap:butt;stroke-linejoin:miter;stroke-miterlimit:4;stroke-opacity:1;stroke-dasharray:none;display:inline"/><path d="m636.49 282.907 20.787-7.05 2.558 10.982-6.475 8.78z" style="fill:#ff1e00;stroke:#000;stroke-width:1;stroke-linecap:butt;stroke-linejoin:miter;stroke-miterlimit:4;stroke-opacity:1;stroke-dasharray:none;display:inline"/><path d="m292.899 271.206 30.71 10.578-24.284 20.634z" style="fill:none;stroke:#000;stroke-width:1;stroke-linecap:butt;stroke-linejoin:miter;stroke-miterlimit:4;stroke-opacity:1;stroke-dasharray:none;display:inline"/><path d="m314.747 283.838-20.788-7.05-2.558 10.982 6.475 8.78z" style="fill:#ff1e00;stroke:#000;stroke-width:1;stroke-linecap:butt;stroke-linejoin:miter;stroke-miterlimit:4;stroke-opacity:1;stroke-dasharray:none;display:inline"/><path id="a" d="M188.91-50.866a23.845 23.845 0 1 1-47.691 0 23.845 23.845 0 1 1 47.69 0z" style="fill:#f5f5f5;fill-opacity:1;fill-rule:nonzero;stroke:#000" transform="matrix(.94835 0 0 .96487 262.655 271.012)"/><use xlink:href="#a" id="b" width="400.418" height="134.107" x="0" y="0" transform="translate(118.507 .563)"/><use xlink:href="#a" width="400.418" height="134.107" transform="translate(-121.16 7.736)"/><use xlink:href="#b" width="400.418" height="134.107" transform="translate(115.502 7.799)"/><path id="c" d="M40.282-24.938a11.112 11.344 0 1 1-22.224 0 11.112 11.344 0 1 1 22.224 0" style="fill:#f5f5f5;fill-opacity:1;fill-rule:nonzero;stroke:#000;stroke-width:1.21968341;stroke-linecap:round;stroke-linejoin:round;stroke-miterlimit:4;stroke-opacity:1;stroke-dasharray:none" transform="matrix(.83012 0 0 .80978 291.784 269.54)"/><use xlink:href="#c" width="400.418" height="134.107" transform="translate(13.8 5.204)"/><use xlink:href="#d" width="400.418" height="134.107" transform="translate(-11.64 -12.322)"/><rect width="41.568" height="17.244" x="343.511" y="294.024" rx="9.484" ry="8.622" style="fill:#00b914;fill-opacity:1;fill-rule:nonzero;stroke:#000;stroke-width:1;stroke-linecap:round;stroke-linejoin:round;stroke-miterlimit:4;stroke-opacity:1;stroke-dasharray:none" transform="rotate(-3.659)"/><use xlink:href="#e" id="d" width="400.418" height="134.107" x="0" y="0" transform="translate(-7.332 -11.687)"/><use xlink:href="#f" id="e" width="400.418" height="134.107" x="0" y="0" transform="translate(-4.199 -16.043)"/><use xlink:href="#c" id="f" width="400.418" height="134.107" x="0" y="0" transform="translate(48.488 54.863)"/><use xlink:href="#c" id="g" width="400.418" height="134.107" x="0" y="0" transform="translate(118.346 -9.994)"/><use xlink:href="#g" id="h" width="400.418" height="134.107" x="0" y="0" transform="translate(12.11 6.032)"/><use xlink:href="#h" id="i" width="400.418" height="134.107" x="0" y="0" transform="translate(10.009 12.09)"/><use xlink:href="#i" id="j" width="400.418" height="134.107" x="0" y="0" transform="translate(7.303 13.828)"/><use xlink:href="#j" id="k" width="400.418" height="134.107" x="0" y="0" transform="translate(4.31 14.245)"/><use xlink:href="#k" width="400.418" height="134.107" transform="translate(3.338 16.161)"/><rect width="41.568" height="17.244" x="-606.096" y="232.698" rx="9.484" ry="8.622" style="fill:#00b914;fill-opacity:1;fill-rule:nonzero;stroke:#000;stroke-width:1;stroke-linecap:round;stroke-linejoin:round;stroke-miterlimit:4;stroke-opacity:1;stroke-dasharray:none" transform="scale(-1 1)rotate(-3.659)"/><use xlink:href="#l" width="400.418" height="134.107" transform="translate(-11.408 -6.721)"/><use xlink:href="#m" id="l" width="400.418" height="134.107" x="0" y="0" transform="translate(-10.385 -12.99)"/><use xlink:href="#n" id="m" width="400.418" height="134.107" x="0" y="0" transform="translate(-6.146 -15.81)"/><use xlink:href="#o" id="n" width="400.418" height="134.107" x="0" y="0" transform="translate(-4.462 -14.557)"/><use xlink:href="#p" id="o" width="400.418" height="134.107" x="0" y="0" transform="translate(-1.362 -13.419)"/><use xlink:href="#c" id="p" width="400.418" height="134.107" x="0" y="0" transform="translate(271.409 55.723)"/></g><g style="stroke-width:1.21229792"><path d="M386.56 410.298s-1.773 14-11.463 30.264c-9.217 15.47-5.355 17.585-10.098 20.569-2.977-4.986-5.483-14.91 4.747-31.986 8.259-13.785 15.928-19.101 16.814-18.847z" style="fill:#ffdc14;fill-opacity:1;fill-rule:evenodd;stroke:#000;stroke-width:1.57649028;stroke-linecap:butt;stroke-linejoin:miter;stroke-opacity:1" transform="matrix(.17291 1.08158 -.80319 .21169 714.424 -136.222)"/><path d="M365.174 460.54c-2.339-10.969 4.38-24.841 15.24-40.04" style="fill:none;stroke:#000;stroke-width:1.57649028;stroke-linecap:butt;stroke-linejoin:miter;stroke-opacity:1" transform="matrix(.17291 1.08158 -.80319 .21169 714.424 -136.222)"/></g><g style="stroke-width:1.21229792"><path d="M386.56 410.298s-1.773 14-11.463 30.264c-9.217 15.47-5.355 17.585-10.098 20.569-2.977-4.986-5.483-14.91 4.747-31.986 8.259-13.785 15.928-19.101 16.814-18.847z" style="fill:#ffdc14;fill-opacity:1;fill-rule:evenodd;stroke:#000;stroke-width:1.21229792;stroke-linecap:butt;stroke-linejoin:miter;stroke-opacity:1" transform="matrix(.96257 1.14495 -.78343 .65863 418.938 -364.97)"/><path d="M365.174 460.54c-2.339-10.969 4.38-24.841 15.24-40.04" style="fill:none;stroke:#000;stroke-width:1.21229792;stroke-linecap:butt;stroke-linejoin:miter;stroke-opacity:1" transform="matrix(.96257 1.14495 -.78343 .65863 418.938 -364.97)"/></g></svg>