<svg xmlns="http://www.w3.org/2000/svg" version="1.0" viewBox="0 0 602 840.656"><g style="display:inline"><path d="m642.007 393.777 9.473-39.797-179.671 6.572-25.81 7.727c-38.715-1.472-60.412-2.944-116.146-4.416-.082.383-5.296-4.769-23.029-.4l-.996 32.131c165.69 10.412 196.305 10.128 336.18-1.817z" style="fill:#ffdc14;fill-opacity:1;fill-rule:evenodd;stroke:#000;stroke-width:1.00000012;stroke-miterlimit:4;stroke-opacity:1;stroke-dasharray:none;display:inline" transform="translate(-177.987 -193.424)"/><g style="fill:none;stroke-width:1.174649;stroke-miterlimit:4;stroke-dasharray:none"><g style="fill:none"><g style="fill:none"><path d="M210.606 209.915v-40.133" style="font-size:12px;fill:none;stroke:#000;stroke-width:.74587703;stroke-miterlimit:4;stroke-dasharray:none" transform="matrix(.88623 0 0 .6823 74 67.392)"/><path d="M189.38 208.372v-37.047" style="font-size:12px;fill:none;stroke:#000;stroke-width:1.31907177" transform="matrix(.88623 0 0 .6823 74 67.392)"/><path d="M172.15 208.152v-36.607" style="font-size:12px;fill:none;stroke:#000;stroke-width:1.98789394" transform="matrix(.88623 0 0 .6823 74 67.392)"/><path d="M156.753 206.521v-33.345" style="font-size:12px;fill:none;stroke:#000;stroke-width:2.32230806" transform="matrix(.88623 0 0 .6823 74 67.392)"/><path d="M143.428 204.919v-30.14" style="font-size:12px;fill:none;stroke:#000;stroke-width:2.63814354" transform="matrix(.88623 0 0 .6823 74 67.392)"/><path d="M131.282 203.945v-28.194" style="font-size:12px;fill:none;stroke:#000;stroke-width:2.97255707" transform="matrix(.88623 0 0 .6823 74 67.392)"/><path d="M118.47 202.128v-24.56" style="font-size:12px;fill:none;stroke:#000;stroke-width:3.3069706" transform="matrix(.88623 0 0 .6823 74 67.392)"/><path d="M107.049 200.279v-20.861" style="font-size:12px;fill:none;stroke:#000;stroke-width:3.64137936" transform="matrix(.88623 0 0 .6823 74 67.392)"/><path d="M97.011 198.87v-18.044" style="font-size:12px;fill:none;stroke:#000;stroke-width:3.97579312" transform="matrix(.88623 0 0 .6823 74 67.392)"/><path d="m82.02 195.608-.202-11.366m6.85 12.554V182.9" style="font-size:12px;fill:none;stroke:#000;stroke-width:4.29162884" transform="matrix(.88623 0 0 .6823 74 67.392)"/><path d="M75.007 194.02v-8.343" style="font-size:12px;fill:none;stroke:#000;stroke-width:4.86755943" transform="matrix(.88623 0 0 .6823 74 67.392)"/><path d="M67.585 192.62v-5.544" style="font-size:12px;fill:none;stroke:#000;stroke-width:5.49925089" transform="matrix(.88623 0 0 .6823 74 67.392)"/><path d="m234.994 210.934.202-42.172" style="font-size:12px;fill:none;stroke:#000;stroke-width:.38579848;stroke-miterlimit:4;stroke-dasharray:none" transform="matrix(.88623 0 0 .6823 74 67.392)"/></g><g style="fill:none"><path d="M210.606 209.915v-40.133" style="font-size:12px;fill:none;stroke:#000;stroke-width:.74587703;stroke-miterlimit:4;stroke-dasharray:none" transform="matrix(-.88623 0 0 .6823 527.333 67.392)"/><path d="M189.38 208.372v-37.047" style="font-size:12px;fill:none;stroke:#000;stroke-width:1.31907177" transform="matrix(-.88623 0 0 .6823 527.333 67.392)"/><path d="M172.15 208.152v-36.607" style="font-size:12px;fill:none;stroke:#000;stroke-width:1.98789394" transform="matrix(-.88623 0 0 .6823 527.333 67.392)"/><path d="M156.753 206.521v-33.345" style="font-size:12px;fill:none;stroke:#000;stroke-width:2.32230806" transform="matrix(-.88623 0 0 .6823 527.333 67.392)"/><path d="M143.428 204.919v-30.14" style="font-size:12px;fill:none;stroke:#000;stroke-width:2.63814354" transform="matrix(-.88623 0 0 .6823 527.333 67.392)"/><path d="M131.282 203.945v-28.194" style="font-size:12px;fill:none;stroke:#000;stroke-width:2.97255707" transform="matrix(-.88623 0 0 .6823 527.333 67.392)"/><path d="M118.47 202.128v-24.56" style="font-size:12px;fill:none;stroke:#000;stroke-width:3.3069706" transform="matrix(-.88623 0 0 .6823 527.333 67.392)"/><path d="M107.049 200.279v-20.861" style="font-size:12px;fill:none;stroke:#000;stroke-width:3.64137936" transform="matrix(-.88623 0 0 .6823 527.333 67.392)"/><path d="M97.011 198.87v-18.044" style="font-size:12px;fill:none;stroke:#000;stroke-width:3.97579312" transform="matrix(-.88623 0 0 .6823 527.333 67.392)"/><path d="m82.02 195.608-.202-11.366m6.85 12.554V182.9" style="font-size:12px;fill:none;stroke:#000;stroke-width:4.29162884" transform="matrix(-.88623 0 0 .6823 527.333 67.392)"/><path d="M75.007 194.02v-8.343" style="font-size:12px;fill:none;stroke:#000;stroke-width:4.86755943" transform="matrix(-.88623 0 0 .6823 527.333 67.392)"/><path d="M67.585 192.62v-5.544" style="font-size:12px;fill:none;stroke:#000;stroke-width:5.49925089" transform="matrix(-.88623 0 0 .6823 527.333 67.392)"/><path d="m234.994 210.934.202-42.172" style="font-size:12px;fill:none;stroke:#000;stroke-width:.38579848;stroke-miterlimit:4;stroke-dasharray:none" transform="matrix(-.88623 0 0 .6823 527.333 67.392)"/></g></g></g><g style="fill:none;stroke:#000;stroke-width:.82901317;stroke-miterlimit:4;stroke-opacity:1;stroke-dasharray:none"><path d="M1323.732-228.697c-2.624-3.622 3.481-1.801 8.256-4.442 100.98 11.777 180.737 11.24 314.272.243 5.75 1.29 12.472.708 9.786 4.103-29.727 4.138-160.887 21.7-332.314.096z" style="font-size:medium;font-style:normal;font-variant:normal;font-weight:400;font-stretch:normal;text-indent:0;text-align:start;text-decoration:none;line-height:normal;letter-spacing:normal;word-spacing:normal;text-transform:none;direction:ltr;block-progression:tb;writing-mode:lr-tb;text-anchor:start;color:#000;fill:#ffdc14;fill-opacity:1;stroke:#000;stroke-width:.82901317;stroke-miterlimit:4;stroke-opacity:1;stroke-dasharray:none;marker:none;visibility:visible;display:inline;overflow:visible;font-family:Bitstream Vera Sans;-inkscape-font-specification:Bitstream Vera Sans" transform="matrix(-1.13852 0 0 1.27801 1998.096 493.925)"/></g><g style="fill:none;stroke:#000;stroke-width:.56549251;stroke-miterlimit:4;stroke-opacity:1;stroke-dasharray:none;display:inline"><path d="M496.382 376.691c-38.058.298-68.868 1.202-106.509 4.581l-6.928-33.312c37.843-4.194 75.283-6.228 113.294-6.209-23.745-1.556 71.177 1.991 113.502 6.209l-6.928 33.312c-37.64-3.379-68.45-4.283-106.509-4.58" style="fill:#ffdc14;stroke:#000;stroke-width:.56549251;stroke-linecap:butt;stroke-linejoin:miter;stroke-miterlimit:4;stroke-opacity:1;stroke-dasharray:none;display:inline" transform="matrix(1.74334 0 0 1.76865 -563.634 -543.948)"/></g><g style="fill:none;stroke:#000;stroke-width:.63931149;stroke-miterlimit:4;stroke-opacity:1;stroke-dasharray:none;display:inline"><path d="m-644.34 563.742-.031.026h-.032c-13.372 1.019-28.849 2.13-42.354 4.079-1.91 2.417-2.068 4.621 1.407 6.384 12.966-1.87 28.253-3.009 41.635-4.028 18.15-1.114 36.449-1.81 54.701-2.002h35.009c10.918 0 33.976.706 54.7 2.027 20.63 1.315 41.698 4.003 41.698 4.003 3.596-1.944 3.205-4.119 1.25-6.384 0 0-21.262-2.762-42.322-4.105-20.966-1.336-43.995-2.026-55.326-2.026h-35.009c-18.469.059-36.91.98-55.326 2.026z" style="font-size:medium;font-style:normal;font-variant:normal;font-weight:400;font-stretch:normal;text-indent:0;text-align:start;text-decoration:none;line-height:normal;letter-spacing:normal;word-spacing:normal;text-transform:none;direction:ltr;block-progression:tb;writing-mode:lr-tb;text-anchor:start;color:#000;fill:#ffdc14;stroke:#000;stroke-width:.57570922;stroke-miterlimit:4;stroke-opacity:1;stroke-dasharray:none;marker:none;visibility:visible;display:inline;overflow:visible;font-family:Bitstream Vera Sans;-inkscape-font-specification:Bitstream Vera Sans" transform="matrix(1.69206 0 0 1.36992 1268.477 -709.227)"/></g><g style="fill:none;stroke:#000;stroke-width:.56549251;stroke-miterlimit:4;stroke-opacity:1;stroke-dasharray:none;display:inline"><path d="M496.382 376.691c-38.058.298-68.868 1.202-106.509 4.581l-6.928-33.312c37.843-4.194 75.283-6.228 113.294-6.209-23.745-1.556 71.177 1.991 113.502 6.209l-6.928 33.312c-37.64-3.379-68.45-4.283-106.509-4.58" style="fill:#ffdc14;stroke:#000;stroke-width:.56549251;stroke-linecap:butt;stroke-linejoin:miter;stroke-miterlimit:4;stroke-opacity:1;stroke-dasharray:none;display:inline" transform="translate(-577.051 -482.65)scale(1.76837)"/></g><g style="fill:none"><path d="M-938.176 327.943s-35.275-4.662-70.214-6.929c-34.783-2.256-72.99-2.798-91.788-2.798h-58.08q-45.959.149-91.787 2.798l-.052.043h-.052c-22.186 1.72-47.862 3.596-70.268 6.886" style="font-size:medium;font-style:normal;font-variant:normal;font-weight:400;font-stretch:normal;text-indent:0;text-align:start;text-decoration:none;line-height:normal;letter-spacing:normal;word-spacing:normal;text-transform:none;direction:ltr;block-progression:tb;writing-mode:lr-tb;text-anchor:start;color:#000;fill:none;stroke:#000;stroke-width:.99913079;stroke-miterlimit:4;stroke-opacity:1;stroke-dasharray:none;marker:none;visibility:visible;display:inline;overflow:visible;font-family:Bitstream Vera Sans;-inkscape-font-specification:Bitstream Vera Sans" transform="translate(1430.11 -148.94)"/><path d="M-935.38 314.639s-35.8-4.658-71.26-6.923c-35.3-2.255-74.076-2.797-93.155-2.797h-58.944a1737 1737 0 0 0-93.156 2.797l-.052.043h-.052c-22.515 1.718-48.574 3.593-71.314 6.88" style="font-size:medium;font-style:normal;font-variant:normal;font-weight:400;font-stretch:normal;text-indent:0;text-align:start;text-decoration:none;line-height:normal;letter-spacing:normal;word-spacing:normal;text-transform:none;direction:ltr;block-progression:tb;writing-mode:lr-tb;text-anchor:start;color:#000;fill:none;stroke:#000;stroke-width:1.00617778;stroke-miterlimit:4;stroke-opacity:1;stroke-dasharray:none;marker:none;visibility:visible;display:inline;overflow:visible;font-family:Bitstream Vera Sans;-inkscape-font-specification:Bitstream Vera Sans" transform="translate(1430.11 -148.94)"/><path d="M-933.08 301.636s-36.27-4.656-72.196-6.919c-35.765-2.253-75.05-2.795-94.38-2.795h-59.718a1784 1784 0 0 0-94.379 2.795l-.052.043h-.052c-22.811 1.717-49.213 3.591-72.249 6.876" style="font-size:medium;font-style:normal;font-variant:normal;font-weight:400;font-stretch:normal;text-indent:0;text-align:start;text-decoration:none;line-height:normal;letter-spacing:normal;word-spacing:normal;text-transform:none;direction:ltr;block-progression:tb;writing-mode:lr-tb;text-anchor:start;color:#000;fill:none;stroke:#000;stroke-width:1.01244068;stroke-miterlimit:4;stroke-opacity:1;stroke-dasharray:none;marker:none;visibility:visible;display:inline;overflow:visible;font-family:Bitstream Vera Sans;-inkscape-font-specification:Bitstream Vera Sans" transform="translate(1430.11 -148.94)"/><path d="m-1313.644 287.569 2.089 12.067m30.865-15.2 1.393 12.183m16.709-1.392 1.044 13.344m1.392 13.344.929 11.836m13.924-51.521.812 11.837m.929 13.228.928 13.344m16.013-27.153.696 12.764m.581 13.577.463 11.951m16.826-51.172.696 11.952m.812 13.46.696 12.88m14.505-26.688.696 13.228m.464 13.228.696 11.836m17.986-50.708.696 12.068m.696 13.344.697 12.996m15.753-26.34.58 13.228m.581 12.996.348 12.068m22.269-50.592.232 12.184m23.605.107-.026 13.13m-1.031 13.335-.232 11.72m19.61-50.476-.348 12.416m-.116 13.112-.464 12.996m21.699-25.876-.58 13.112m-.697 13.228-.464 11.836m17.289-49.78-.348 11.836m-.464 13.228-.464 13.228m21.234-25.644-.812 13.228m-.696 13.228-.464 11.952m20.422-49.432-.812 12.069m-1.393 12.88-1.16 13.576m20.655-25.528-1.045 13.228m-1.044 13.345-1.044 11.835m20.77-49.083-1.044 12.3m33.07-9.399-1.624 12.415" style="fill:none;stroke:#000;stroke-width:1px;stroke-linecap:butt;stroke-linejoin:miter;stroke-opacity:1" transform="translate(1430.11 -148.94)"/></g><g style="fill:none"><path d="M-938.176 327.943s-35.275-4.662-70.214-6.929c-34.783-2.256-72.99-2.798-91.788-2.798h-58.08q-45.959.149-91.787 2.798l-.052.043h-.052c-22.186 1.72-47.862 3.596-70.268 6.886" style="font-size:medium;font-style:normal;font-variant:normal;font-weight:400;font-stretch:normal;text-indent:0;text-align:start;text-decoration:none;line-height:normal;letter-spacing:normal;word-spacing:normal;text-transform:none;direction:ltr;block-progression:tb;writing-mode:lr-tb;text-anchor:start;color:#000;fill:none;stroke:#000;stroke-width:.99913079;stroke-miterlimit:4;stroke-opacity:1;stroke-dasharray:none;marker:none;visibility:visible;display:inline;overflow:visible;font-family:Bitstream Vera Sans;-inkscape-font-specification:Bitstream Vera Sans" transform="matrix(.98857 0 0 1.00007 1418.054 -210.862)"/><path d="M-935.38 314.639s-35.8-4.658-71.26-6.923c-35.3-2.255-74.076-2.797-93.155-2.797h-58.944a1737 1737 0 0 0-93.156 2.797l-.052.043h-.052c-22.515 1.718-48.574 3.593-71.314 6.88" style="font-size:medium;font-style:normal;font-variant:normal;font-weight:400;font-stretch:normal;text-indent:0;text-align:start;text-decoration:none;line-height:normal;letter-spacing:normal;word-spacing:normal;text-transform:none;direction:ltr;block-progression:tb;writing-mode:lr-tb;text-anchor:start;color:#000;fill:none;stroke:#000;stroke-width:1.00617778;stroke-miterlimit:4;stroke-opacity:1;stroke-dasharray:none;marker:none;visibility:visible;display:inline;overflow:visible;font-family:Bitstream Vera Sans;-inkscape-font-specification:Bitstream Vera Sans" transform="matrix(.98857 0 0 1.00007 1418.054 -210.862)"/><path d="M-933.08 301.636s-36.27-4.656-72.196-6.919c-35.765-2.253-75.05-2.795-94.38-2.795h-59.718a1784 1784 0 0 0-94.379 2.795l-.052.043h-.052c-22.811 1.717-49.213 3.591-72.249 6.876" style="font-size:medium;font-style:normal;font-variant:normal;font-weight:400;font-stretch:normal;text-indent:0;text-align:start;text-decoration:none;line-height:normal;letter-spacing:normal;word-spacing:normal;text-transform:none;direction:ltr;block-progression:tb;writing-mode:lr-tb;text-anchor:start;color:#000;fill:none;stroke:#000;stroke-width:1.01244068;stroke-miterlimit:4;stroke-opacity:1;stroke-dasharray:none;marker:none;visibility:visible;display:inline;overflow:visible;font-family:Bitstream Vera Sans;-inkscape-font-specification:Bitstream Vera Sans" transform="matrix(.98857 0 0 1.00007 1418.054 -210.862)"/><path d="m-1313.644 287.569 2.089 12.067m2.552 13.46 2.205 12.997m10.211-27.849 1.74 13.228m1.857 13.112 1.625 11.952m10.675-52.1 1.393 12.183m1.392 13.228 1.508 12.996m13.809-27.616 1.044 13.344m1.392 13.344.929 11.836m13.924-51.521.812 11.837m.929 13.228.928 13.344m16.013-27.153.696 12.764m.581 13.577.463 11.951m16.826-51.172.696 11.952m.812 13.46.696 12.88m14.505-26.688.696 13.228m.464 13.228.696 11.836m17.986-50.708.696 12.068m-.122 13.344.696 12.996m18.572-26.34.58 13.228m.581 12.996.348 12.068m17.869-50.592.232 12.184m.116 13.344.232 13.228m25.657-26.465-.026 13.13m-1.031 13.335-.232 11.72m19.644-49.972-.382 11.912m-.935 13.112-.464 12.996m22.518-25.876-.58 13.112m-.697 13.228-.464 11.836m17.289-49.78-.348 11.836m-.464 13.228-.464 13.228m21.234-25.644-.812 13.228m-.696 13.228-.464 11.952m20.422-49.432-.812 12.069m-1.393 12.88-1.16 13.576m20.655-25.528-1.045 13.228m-1.044 13.345-1.044 11.835m20.77-49.083-1.044 12.3m-1.857 12.995-1.276 13.345m20.422-24.948-1.74 13.112m-1.857 13.228-1.276 11.72m20.654-48.851-1.624 12.415m-1.974 12.996-1.972 13.345" style="fill:none;stroke:#000;stroke-width:1px;stroke-linecap:butt;stroke-linejoin:miter;stroke-opacity:1" transform="matrix(.98857 0 0 1.00007 1418.054 -210.862)"/></g><g style="fill:none"><path d="M-1334.78 278.024c12.767 2.55 11.928 5.906 13.44 9.004m19.748-12.376c12.768 2.55 11.323 6.247 12.835 9.344m19.855-11.699c12.767 2.55 11.427 6.656 12.94 9.753m19.67-11.519c12.767 2.55 11.201 6.521 12.714 9.619m20.014-10.8c13.093 1.292 11.255 7.036 12.18 9.99m19.808-10.663c12.735 1.724 10.827 6.892 12.34 9.99m20.078-10.095c12.766 2.55 11.05 6.998 12.562 10.095m20.188-9.924c12.766 2.55 10.735 6.844 12.248 9.941m20.034-9.727c12.619 3.03 10.925 7.675 12.538 10.451m19.976-9.391c12.767 2.55 11.65 7.585 13.162 10.683m19.66-9.135c12.767 2.55 11.228 7.868 12.741 10.965m19.072-8.882c12.767 2.55 11.778 8.146 13.29 11.243m19.285-8.263c12.767 2.55 12.176 8.982 13.69 12.079" style="fill:none;stroke:#000;stroke-width:1.03930342px;stroke-linecap:butt;stroke-linejoin:miter;stroke-opacity:1" transform="matrix(.9607 0 0 .87242 1388.652 -174.044)"/></g><g style="fill:none"><path d="m-1213.104 58.91-6.523 12.18h3.651l-.083 73.728c-1.882 11.333-5.303 22.928-12.175 32.411v1.132h78.353v-1.039c-6.7-5.18-12.307-31.596-12.262-32.504l.173-73.64h3.483l-6.523-12.267-6.523 12.178h3.652v9.741h-10.265v-9.65h3.565l-6.516-12.268-6.522 12.178h3.647v9.741h-10.26v-9.65h3.655l-6.613-12.268-6.523 12.178h3.565v9.741h-10.258v-9.65h3.824z" style="fill:#ffdc14;stroke:#000;stroke-width:.89999998;stroke-miterlimit:4;stroke-opacity:1;stroke-dasharray:none" transform="translate(1490.057 -58.46)"/><path d="M-1215.737 91.49h53.909m-54.112 11.66h53.908m-53.908 12.323h53.908m-53.689 11.937 53.284-.063m-53.709 11.881h53.708" style="fill:none;stroke:#000;stroke-width:.89999998;stroke-miterlimit:4;stroke-opacity:1;stroke-dasharray:none" transform="translate(1490.057 -58.46)"/><path d="M-1217.183 149.866h55.992" style="fill:none;stroke:#000;stroke-width:.89061695;stroke-miterlimit:4;stroke-opacity:1;stroke-dasharray:none" transform="translate(1490.057 -58.46)"/><path d="m-1220.037 160.622 61.703.067" style="fill:none;stroke:#000;stroke-width:.89291298;stroke-miterlimit:4;stroke-opacity:1;stroke-dasharray:none" transform="translate(1490.057 -58.46)"/><path d="M-1224.507 171.784h70.85m-44.31-80.071v11.658m27.974 24.203v12.093" style="fill:none;stroke:#000;stroke-width:.89999998;stroke-miterlimit:4;stroke-opacity:1;stroke-dasharray:none" transform="translate(1490.057 -58.46)"/><path d="M-1165.906 149.961v10.375" style="fill:none;stroke:#000;stroke-width:.97350949;stroke-miterlimit:4;stroke-opacity:1;stroke-dasharray:none" transform="translate(1490.057 -58.46)"/><path d="M-1211.242 150.277v10.007" style="fill:none;stroke:#000;stroke-width:.92579937;stroke-miterlimit:4;stroke-opacity:1;stroke-dasharray:none" transform="translate(1490.057 -58.46)"/><path d="M-1216.35 171.81v6.293" style="fill:none;stroke:#000;stroke-width:.92602772;stroke-miterlimit:4;stroke-opacity:1;stroke-dasharray:none" transform="translate(1490.057 -58.46)"/><path d="M-1160.807 172.227v5.94m-20.172-86.454v11.275m-7.971-21.834v10.335m15.908-10.096v9.927m-32.169-10.166v9.904m-10.935-10.204h54.113m-46.564 46.72v12.093m10.63-23.954v11.658m16.988-11.658v11.275m-7.856-23.945-.115 12.378" style="fill:none;stroke:#000;stroke-width:.89999998;stroke-miterlimit:4;stroke-opacity:1;stroke-dasharray:none" transform="translate(1490.057 -58.46)"/><g style="fill:none;stroke:#000;stroke-width:2.37891102;stroke-miterlimit:4;stroke-opacity:1;stroke-dasharray:none"><g style="fill:none;stroke:#000;stroke-width:1.01816595;stroke-linecap:round;stroke-linejoin:round;stroke-miterlimit:4;stroke-opacity:1;stroke-dasharray:none"><path d="M-85 1640c-11 0-20 9-20 20v30h40v-30c0-11-9-20-20-20" style="fill:#ffdc14;fill-opacity:1;fill-rule:nonzero;stroke:#000;stroke-width:1.01816595;stroke-linecap:round;stroke-linejoin:round;stroke-miterlimit:4;stroke-opacity:1;stroke-dasharray:none" transform="matrix(.90546 0 0 .86294 378.2 -1345.285)"/><path d="M-105 1684h8m-8-8h8m-8-8h8m-8-8h8m24 24h8m-8-8h8m-8-8h8m-8-8h8m-12.867-18.447-2.657 6.874m12.559 1.33-6.433 4.243m-21.21 0-6.393-4.216m12.409-1.324-2.651-6.858" style="fill:none;stroke:#000;stroke-width:1.01816595;stroke-linecap:round;stroke-linejoin:round;stroke-miterlimit:4;stroke-opacity:1;stroke-dasharray:none" transform="matrix(.90546 0 0 .86294 378.2 -1345.285)"/></g></g><path d="M-1188.82 135.3c-7.245 0-10.866 5.178-10.866 10.356v25.888h21.73v-25.888c0-5.178-3.621-10.356-10.865-10.356m-16.335-38.476c-3.247 0-5.197 2.477-5.197 4.954v13.625h10.396v-13.625c0-2.477-1.95-4.954-5.2-4.954m31.706-.04c-3.25 0-5.2 2.477-5.2 4.955v13.624h10.397V101.74c0-2.478-1.95-4.955-5.197-4.955" style="fill:#000;fill-opacity:1;fill-rule:nonzero;stroke:#000;stroke-width:.89999998;stroke-linecap:round;stroke-linejoin:round;stroke-miterlimit:4;stroke-opacity:1;stroke-dasharray:none" transform="translate(1490.057 -58.46)"/></g><g style="fill:none"><path d="m-1213.104 58.91-6.523 12.18h3.651l-.083 73.728v33.543h66.178v-1.039c-6.7-5.18-12.307-31.596-12.262-32.504l.173-73.64h3.483l-6.523-12.267-6.523 12.178h3.652v9.741h-10.265v-9.65h3.565l-6.516-12.268-6.522 12.178h3.647v9.741h-10.26v-9.65h3.655l-6.613-12.268-6.523 12.178h3.565v9.741h-10.258v-9.65h3.824z" style="fill:#ffdc14;stroke:#000;stroke-width:.89999998;stroke-miterlimit:4;stroke-opacity:1;stroke-dasharray:none" transform="matrix(.98576 -.08064 .21643 .99674 1260.378 -146.74)"/><path d="M-1215.737 91.49h53.909m-54.112 11.66h53.908m-53.908 12.323h53.908m-53.501 11.874h53.096m-53.709 11.881h53.708" style="fill:none;stroke:#000;stroke-width:.89999998;stroke-miterlimit:4;stroke-opacity:1;stroke-dasharray:none" transform="matrix(.98576 -.08064 .21643 .99674 1260.378 -146.74)"/><path d="M-1216.392 149.866h54.813" style="fill:none;stroke:#000;stroke-width:.88119107;stroke-miterlimit:4;stroke-opacity:1;stroke-dasharray:none" transform="matrix(.98576 -.08064 .21643 .99674 1260.378 -146.74)"/><path d="M-1215.873 160.69h57.472" style="fill:none;stroke:#000;stroke-width:.85929865;stroke-miterlimit:4;stroke-opacity:1;stroke-dasharray:none" transform="matrix(.98576 -.08064 .21643 .99674 1260.378 -146.74)"/><path d="M-1216.028 171.784h62.395" style="fill:none;stroke:#000;stroke-width:.87914866;stroke-miterlimit:4;stroke-opacity:1;stroke-dasharray:none" transform="matrix(.98576 -.08064 .21643 .99674 1260.378 -146.74)"/><path d="M-1197.967 91.713v11.658m27.974 24.203v12.093" style="fill:none;stroke:#000;stroke-width:.89999998;stroke-miterlimit:4;stroke-opacity:1;stroke-dasharray:none" transform="matrix(.98576 -.08064 .21643 .99674 1260.378 -146.74)"/><path d="M-1165.906 149.961v10.375" style="fill:none;stroke:#000;stroke-width:.97350949;stroke-miterlimit:4;stroke-opacity:1;stroke-dasharray:none" transform="matrix(.98576 -.08064 .21643 .99674 1260.378 -146.74)"/><path d="M-1211.242 150.277v10.007" style="fill:none;stroke:#000;stroke-width:.92579937;stroke-miterlimit:4;stroke-opacity:1;stroke-dasharray:none" transform="matrix(.98576 -.08064 .21643 .99674 1260.378 -146.74)"/><path d="M-1211.25 171.81v6.293" style="fill:none;stroke:#000;stroke-width:.92602772;stroke-miterlimit:4;stroke-opacity:1;stroke-dasharray:none" transform="matrix(.98576 -.08064 .21643 .99674 1260.378 -146.74)"/><path d="M-1160.807 172.227v5.94m-20.172-86.454v11.275m-7.971-21.834v10.335m16.147-10.655-.239 10.486m-32.169-10.166v9.904m-10.935-10.204h54.113m-46.564 46.72v12.093m10.63-23.954v11.658m16.988-11.658v11.275m-7.961-23.947-.01 12.38" style="fill:none;stroke:#000;stroke-width:.89999998;stroke-miterlimit:4;stroke-opacity:1;stroke-dasharray:none" transform="matrix(.98576 -.08064 .21643 .99674 1260.378 -146.74)"/><g style="fill:none;stroke:#000;stroke-width:2.37891102;stroke-miterlimit:4;stroke-opacity:1;stroke-dasharray:none"><g style="fill:none;stroke:#000;stroke-width:1.01816595;stroke-linecap:round;stroke-linejoin:round;stroke-miterlimit:4;stroke-opacity:1;stroke-dasharray:none"><path d="M-85 1640c-11 0-20 9-20 20v30h40v-30c0-11-9-20-20-20" style="fill:#ffdc14;fill-opacity:1;fill-rule:nonzero;stroke:#000;stroke-width:1.01816595;stroke-linecap:round;stroke-linejoin:round;stroke-miterlimit:4;stroke-opacity:1;stroke-dasharray:none" transform="matrix(.89256 -.07302 .18676 .86013 -114.147 -1339.71)"/><path d="M-105 1684h8m-8-8h8m-8-8h8m-8-8h8m24 24h8m-8-8h8m-8-8h8m-8-8h8m-12.867-18.447-2.657 6.874m12.559 1.33-6.433 4.243m-21.21 0-6.393-4.216m12.409-1.324-2.651-6.858" style="fill:none;stroke:#000;stroke-width:1.01816595;stroke-linecap:round;stroke-linejoin:round;stroke-miterlimit:4;stroke-opacity:1;stroke-dasharray:none" transform="matrix(.89256 -.07302 .18676 .86013 -114.147 -1339.71)"/></g></g><path d="M-1188.82 135.3c-7.245 0-10.866 5.178-10.866 10.356v25.888h21.73v-25.888c0-5.178-3.621-10.356-10.865-10.356m-16.335-38.476c-3.247 0-5.197 2.477-5.197 4.954v13.625h10.396v-13.625c0-2.477-1.95-4.954-5.2-4.954m31.706-.04c-3.25 0-5.2 2.477-5.2 4.955v13.624h10.397V101.74c0-2.478-1.95-4.955-5.197-4.955" style="fill:#000;fill-opacity:1;fill-rule:nonzero;stroke:#000;stroke-width:.89999998;stroke-linecap:round;stroke-linejoin:round;stroke-miterlimit:4;stroke-opacity:1;stroke-dasharray:none" transform="matrix(.98576 -.08064 .21643 .99674 1260.378 -146.74)"/></g><g style="fill:none"><path d="m-1213.104 58.91-6.523 12.18h3.651l-.083 73.728v33.543h66.178v-1.039c-6.7-5.18-12.307-31.596-12.262-32.504l.173-73.64h3.483l-6.523-12.267-6.523 12.178h3.652v9.741h-10.265v-9.65h3.565l-6.516-12.268-6.522 12.178h3.647v9.741h-10.26v-9.65h3.655l-6.613-12.268-6.523 12.178h3.565v9.741h-10.258v-9.65h3.824z" style="fill:#ffdc14;stroke:#000;stroke-width:.89999998;stroke-miterlimit:4;stroke-opacity:1;stroke-dasharray:none" transform="matrix(-.98576 -.08064 -.21643 .99674 -658.378 -146.74)"/><path d="M-1215.737 91.49h53.909m-54.112 11.66h53.908m-53.908 12.323h53.908m-53.789 11.883 53.384-.008m-53.709 11.88h53.708" style="fill:none;stroke:#000;stroke-width:.89999998;stroke-miterlimit:4;stroke-opacity:1;stroke-dasharray:none" transform="matrix(-.98576 -.08064 -.21643 .99674 -658.378 -146.74)"/><path d="M-1216.392 149.866h54.813" style="fill:none;stroke:#000;stroke-width:.88119107;stroke-miterlimit:4;stroke-opacity:1;stroke-dasharray:none" transform="matrix(-.98576 -.08064 -.21643 .99674 -658.378 -146.74)"/><path d="M-1215.873 160.69h57.472" style="fill:none;stroke:#000;stroke-width:.85929865;stroke-miterlimit:4;stroke-opacity:1;stroke-dasharray:none" transform="matrix(-.98576 -.08064 -.21643 .99674 -658.378 -146.74)"/><path d="M-1216.028 171.784h62.395" style="fill:none;stroke:#000;stroke-width:.87914866;stroke-miterlimit:4;stroke-opacity:1;stroke-dasharray:none" transform="matrix(-.98576 -.08064 -.21643 .99674 -658.378 -146.74)"/><path d="M-1197.967 91.713v11.658m27.974 24.203.011 11.748" style="fill:none;stroke:#000;stroke-width:.89999998;stroke-miterlimit:4;stroke-opacity:1;stroke-dasharray:none" transform="matrix(-.98576 -.08064 -.21643 .99674 -658.378 -146.74)"/><path d="M-1165.906 149.961v10.375" style="fill:none;stroke:#000;stroke-width:.97350949;stroke-miterlimit:4;stroke-opacity:1;stroke-dasharray:none" transform="matrix(-.98576 -.08064 -.21643 .99674 -658.378 -146.74)"/><path d="M-1211.242 150.277v10.007" style="fill:none;stroke:#000;stroke-width:.92579937;stroke-miterlimit:4;stroke-opacity:1;stroke-dasharray:none" transform="matrix(-.98576 -.08064 -.21643 .99674 -658.378 -146.74)"/><path d="M-1211.25 171.81v6.293" style="fill:none;stroke:#000;stroke-width:.92602772;stroke-miterlimit:4;stroke-opacity:1;stroke-dasharray:none" transform="matrix(-.98576 -.08064 -.21643 .99674 -658.378 -146.74)"/><path d="M-1160.807 172.227v5.94m-20.172-86.454v11.275m-7.971-21.834v10.335m15.908-10.096v9.927m-32.169-10.166.05 10.254m-10.985-10.554h54.113m-46.564 46.72v12.093m10.63-23.954v11.658m16.988-11.658v11.275m-7.971-23.37v11.803" style="fill:none;stroke:#000;stroke-width:.89999998;stroke-miterlimit:4;stroke-opacity:1;stroke-dasharray:none" transform="matrix(-.98576 -.08064 -.21643 .99674 -658.378 -146.74)"/><g style="fill:none;stroke:#000;stroke-width:2.37891102;stroke-miterlimit:4;stroke-opacity:1;stroke-dasharray:none"><g style="fill:none;stroke:#000;stroke-width:1.01816595;stroke-linecap:round;stroke-linejoin:round;stroke-miterlimit:4;stroke-opacity:1;stroke-dasharray:none"><path d="M-85 1640c-11 0-20 9-20 20v30h40v-30c0-11-9-20-20-20" style="fill:#ffdc14;fill-opacity:1;fill-rule:nonzero;stroke:#000;stroke-width:1.01816595;stroke-linecap:round;stroke-linejoin:round;stroke-miterlimit:4;stroke-opacity:1;stroke-dasharray:none" transform="matrix(-.89256 -.07302 -.18676 .86013 716.147 -1339.71)"/><path d="M-105 1684h8m-8-8h8m-8-8h8m-8-8h8m24 24h8m-8-8h8m-8-8h8m-8-8h8m-12.867-18.447-2.657 6.874m12.559 1.33-6.433 4.243m-21.21 0-6.393-4.216m12.409-1.324-2.651-6.858" style="fill:none;stroke:#000;stroke-width:1.01816595;stroke-linecap:round;stroke-linejoin:round;stroke-miterlimit:4;stroke-opacity:1;stroke-dasharray:none" transform="matrix(-.89256 -.07302 -.18676 .86013 716.147 -1339.71)"/></g></g><path d="M-1188.82 135.3c-7.245 0-10.866 5.178-10.866 10.356v25.888h21.73v-25.888c0-5.178-3.621-10.356-10.865-10.356m-16.335-38.476c-3.247 0-5.197 2.477-5.197 4.954v13.625h10.396v-13.625c0-2.477-1.95-4.954-5.2-4.954m31.706-.04c-3.25 0-5.2 2.477-5.2 4.955v13.624h10.397V101.74c0-2.478-1.95-4.955-5.197-4.955" style="fill:#000;fill-opacity:1;fill-rule:nonzero;stroke:#000;stroke-width:.89999998;stroke-linecap:round;stroke-linejoin:round;stroke-miterlimit:4;stroke-opacity:1;stroke-dasharray:none" transform="matrix(-.98576 -.08064 -.21643 .99674 -658.378 -146.74)"/></g><g style="fill:none"><g style="fill:none;stroke:#000;stroke-width:2.37891102;stroke-miterlimit:4;stroke-opacity:1;stroke-dasharray:none"><g style="fill:none;stroke:#000;stroke-width:1.01816595;stroke-linecap:round;stroke-linejoin:round;stroke-miterlimit:4;stroke-opacity:1;stroke-dasharray:none"><path d="M-85 1640c-11 0-20 9-20 20v30h40v-30c0-11-9-20-20-20" style="fill:#ffdc14;fill-opacity:1;fill-rule:nonzero;stroke:#000;stroke-width:1.01816595;stroke-linecap:round;stroke-linejoin:round;stroke-miterlimit:4;stroke-opacity:1;stroke-dasharray:none" transform="matrix(.90546 0 0 .86294 377.964 -1277.248)"/><path d="M-105 1684h8m-8-8h8m-8-8h8m-8-8h8m24 24h8m-8-8h8m-8-8h8m-8-8h8m-12.867-18.447-2.657 6.874m12.559 1.33-6.433 4.243m-21.21 0-6.393-4.216m12.409-1.324-2.651-6.858" style="fill:none;stroke:#000;stroke-width:1.01816595;stroke-linecap:round;stroke-linejoin:round;stroke-miterlimit:4;stroke-opacity:1;stroke-dasharray:none" transform="matrix(.90546 0 0 .86294 377.964 -1277.248)"/></g></g><path d="M-1269.892 415.059c-7.244 0-10.866 5.178-10.866 10.355v25.888h21.731v-25.888c0-5.177-3.622-10.355-10.865-10.355" style="fill:#000;fill-opacity:1;fill-rule:nonzero;stroke:#000;stroke-width:.89999998;stroke-linecap:round;stroke-linejoin:round;stroke-miterlimit:4;stroke-opacity:1;stroke-dasharray:none" transform="translate(1570.892 -270.182)"/></g><g style="fill:none;stroke:#000;stroke-width:2.37891102;stroke-miterlimit:4;stroke-opacity:1;stroke-dasharray:none"><g style="fill:none;stroke:#000;stroke-width:1.01816595;stroke-linecap:round;stroke-linejoin:round;stroke-miterlimit:4;stroke-opacity:1;stroke-dasharray:none"><path d="M-85 1640c-11 0-20 9-20 20v30h40v-30c0-11-9-20-20-20" style="fill:#ffdc14;fill-opacity:1;fill-rule:nonzero;stroke:#000;stroke-width:1.01816595;stroke-linecap:round;stroke-linejoin:round;stroke-miterlimit:4;stroke-opacity:1;stroke-dasharray:none" transform="matrix(-.89256 -.07302 -.18676 .86013 700.266 -1272.57)"/><path d="M-105 1684h8m-8-8h8m-8-8h8m-8-8h8m24 24h8m-8-8h8m-8-8h8m-8-8h8m-12.867-18.447-2.657 6.874m12.559 1.33-6.433 4.243m-21.21 0-6.393-4.216m12.409-1.324-2.651-6.858" style="fill:none;stroke:#000;stroke-width:1.01816595;stroke-linecap:round;stroke-linejoin:round;stroke-miterlimit:4;stroke-opacity:1;stroke-dasharray:none" transform="matrix(-.89256 -.07302 -.18676 .86013 700.266 -1272.57)"/></g></g><path d="M646.334 344.554c7.14.584 9.59 6.037 8.47 11.198l-5.604 25.804-21.421-1.753L633.382 354c1.12-5.16 5.811-10.03 12.952-9.445" style="fill:#000;fill-opacity:1;fill-rule:nonzero;stroke:#000;stroke-width:.89999998;stroke-linecap:round;stroke-linejoin:round;stroke-miterlimit:4;stroke-opacity:1;stroke-dasharray:none" transform="translate(-177.987 -193.424)"/><g style="fill:none;stroke:#000;stroke-width:2.37891102;stroke-miterlimit:4;stroke-opacity:1;stroke-dasharray:none"><g style="fill:none;stroke:#000;stroke-width:1.01816595;stroke-linecap:round;stroke-linejoin:round;stroke-miterlimit:4;stroke-opacity:1;stroke-dasharray:none"><path d="M-85 1640c-11 0-20 9-20 20v30h40v-30c0-11-9-20-20-20" style="fill:#ffdc14;fill-opacity:1;fill-rule:nonzero;stroke:#000;stroke-width:1.01816595;stroke-linecap:round;stroke-linejoin:round;stroke-miterlimit:4;stroke-opacity:1;stroke-dasharray:none" transform="matrix(.89256 -.07302 .18676 .86013 -98.266 -1272.519)"/><path d="M-105 1684h8m-8-8h8m-8-8h8m-8-8h8m24 24h8m-8-8h8m-8-8h8m-8-8h8m-12.867-18.447-2.657 6.874m12.559 1.33-6.433 4.243m-21.21 0-6.393-4.216m12.409-1.324-2.651-6.858" style="fill:none;stroke:#000;stroke-width:1.01816595;stroke-linecap:round;stroke-linejoin:round;stroke-miterlimit:4;stroke-opacity:1;stroke-dasharray:none" transform="matrix(.89256 -.07302 .18676 .86013 -98.266 -1272.519)"/></g></g><path d="M311.64 344.605c-7.14.585-9.59 6.037-8.47 11.198l5.603 25.804 21.421-1.752-5.603-25.804c-1.12-5.161-5.81-10.03-12.951-9.446" style="fill:#000;fill-opacity:1;fill-rule:nonzero;stroke:#000;stroke-width:.89999998;stroke-linecap:round;stroke-linejoin:round;stroke-miterlimit:4;stroke-opacity:1;stroke-dasharray:none" transform="translate(-177.987 -193.424)"/><g style="fill:none;stroke:#000;stroke-width:.63931149;stroke-miterlimit:4;stroke-opacity:1;stroke-dasharray:none;display:inline"><path d="m-644.322 561.769-.031.03h-.032c-13.369 1.258-28.842 2.629-42.343 5.032-1.91 2.982-2.068 5.7 1.406 7.875 12.963-2.307 28.246-3.711 41.625-4.969 18.145-1.374 36.44-2.233 54.687-2.468h35c10.916 0 33.969.87 54.688 2.5 20.625 1.622 41.687 4.937 41.687 4.937 3.595-2.398 3.204-5.08 1.25-7.875 0 0-21.257-3.406-42.312-5.062-20.96-1.65-43.984-2.5-55.313-2.5h-35c-18.464.072-36.9 1.21-55.312 2.5z" style="font-size:medium;font-style:normal;font-variant:normal;font-weight:400;font-stretch:normal;text-indent:0;text-align:start;text-decoration:none;line-height:normal;letter-spacing:normal;word-spacing:normal;text-transform:none;direction:ltr;block-progression:tb;writing-mode:lr-tb;text-anchor:start;color:#000;fill:#ffdc14;stroke:#000;stroke-width:.63931149;stroke-miterlimit:4;stroke-opacity:1;stroke-dasharray:none;marker:none;visibility:visible;display:inline;overflow:visible;font-family:Bitstream Vera Sans;-inkscape-font-specification:Bitstream Vera Sans" transform="matrix(1.78795 0 0 1.36842 1323.57 -645.674)"/></g><g style="fill:none;stroke:#000;stroke-width:.66299945;stroke-miterlimit:4;stroke-opacity:1;stroke-dasharray:none;display:inline"><path d="m-644.322 561.769-.031.03h-.032c-13.369 1.258-28.842 2.629-42.343 5.032-1.91 2.982-2.068 5.7 1.406 7.875 12.963-2.307 28.246-3.711 41.625-4.969 18.145-1.374 36.44-1.778 54.687-2.013h35c10.916 0 33.969.415 54.688 2.045 20.625 1.622 41.687 4.937 41.687 4.937 3.595-2.398 3.204-5.08 1.25-7.875 0 0-21.257-3.406-42.312-5.062-20.96-1.65-43.984-2.045-55.313-2.045h-35q-27.695.108-55.312 2.045z" style="font-size:medium;font-style:normal;font-variant:normal;font-weight:400;font-stretch:normal;text-indent:0;text-align:start;text-decoration:none;line-height:normal;letter-spacing:normal;word-spacing:normal;text-transform:none;direction:ltr;block-progression:tb;writing-mode:lr-tb;text-anchor:start;color:#000;fill:#ffdc14;stroke:#000;stroke-width:.66299945;stroke-miterlimit:4;stroke-opacity:1;stroke-dasharray:none;marker:none;visibility:visible;display:inline;overflow:visible;font-family:Bitstream Vera Sans;-inkscape-font-specification:Bitstream Vera Sans" transform="matrix(1.66247 0 0 1.36842 1251.86 -584.863)"/></g><g style="fill:none"><path d="M-1319.757 340.088c11.806 2.554 10.534 5.795 11.933 8.896m18.241-12.871c11.806 2.553 10.49 6.617 11.889 9.718m18.24-12.219c11.806 2.553 10.448 6.79 11.846 9.891m18.111-11.761c11.806 2.553 10.577 7.137 11.976 10.238m18.587-11.32c11.806 2.553 9.884 7.526 11.283 10.627m17.938-10.93c11.806 2.553 10.49 7.526 11.889 10.627m18.024-10.801c11.806 2.553 10.577 7.7 11.976 10.8m18.674-11.016c11.805 2.553 9.927 7.916 11.326 11.017m18.76-10.757c11.669 3.033 9.75 7.977 11.24 10.757m18.674-10.108c11.805 2.553 10.274 8.046 11.672 11.147m18.718-9.926c11.805 2.553 10.143 8.522 11.542 11.623m17.764-9.537c11.806 2.553 9.971 8.782 11.37 11.883m18.5-9.016c11.806 2.552 11.14 9.387 12.54 12.488" style="fill:none;stroke:#000;stroke-width:1px;stroke-linecap:butt;stroke-linejoin:miter;stroke-opacity:1" transform="translate(1430.11 -148.94)"/></g><g style="fill:none"><path d="M-1334.028 279.088c12.767 2.55 11.39 5.788 12.904 8.885m19.854-12.73c12.767 2.55 11.215 6.483 12.728 9.58m19.855-11.699c12.767 2.55 11.427 6.656 12.94 9.753m19.455-11.873c12.767 2.55 11.309 6.876 12.821 9.973m20.101-11.307c12.766 2.55 10.688 7.518 12.2 10.615m19.398-11.423c12.767 2.55 11.345 7.77 12.858 10.868m19.756-11.158c12.766 2.55 11.05 7.943 12.562 11.04m20.188-10.869c12.766 2.55 10.735 7.907 12.248 11.005m20.197-10.827c12.619 3.03 10.762 8.42 12.375 11.196m19.855-10.249c12.767 2.55 11.449 8.325 12.961 11.422m19.982-9.725c12.767 2.55 11.228 8.458 12.741 11.556m19.138-9.581c12.767 2.55 11.39 8.845 12.903 11.942m19.606-8.854c12.767 2.55 12.176 8.982 13.69 12.079" style="fill:none;stroke:#000;stroke-width:1.03930342px;stroke-linecap:butt;stroke-linejoin:miter;stroke-opacity:1" transform="translate(1430.11 -148.94)"/></g><path d="M325.625 392.042c-2.485 4.94 1.533 6.088 3.867 8.218m26.453-5.642c-2.485 4.941 1.533 6.537 3.867 8.667m25.748-6.588c-2.484 4.94 1.79 6.92 4.124 9.05m26.005-7.37c-2.485 4.94 1.405 6.792 3.739 8.922m26.261-7.641c-2.485 4.94 1.47 6.472 3.803 8.602m26.133-8.218c-2.485 4.94 1.661 6.408 3.995 8.538m25.94-8.282c-2.484 4.94 1.598 5.832 3.932 7.962" style="fill:none;stroke:#000;stroke-width:1px;stroke-linecap:butt;stroke-linejoin:miter;stroke-opacity:1" transform="translate(-177.987 -193.424)"/><path d="M535.625 400.042c-2.485 4.94 1.687 4.91 4.02 7.04m25.915-8.656c-2.484 4.94 1.624 4.897 3.958 7.027" style="fill:none;stroke:#000;stroke-width:1px;stroke-linecap:butt;stroke-linejoin:bevel;stroke-opacity:1" transform="translate(-177.987 -193.424)"/><path d="M595.625 396.042c-2.485 4.94 1.597 5.063 3.93 7.193m25.942-9.655c-2.485 4.94 3.134 4.422 5.468 6.552" style="fill:none;stroke:#000;stroke-width:1px;stroke-linecap:butt;stroke-linejoin:miter;stroke-opacity:1" transform="translate(-177.987 -193.424)"/></g><g style="display:inline"><path d="m331.429 297.36-299.5 299.5 299.5 299.5 299.5-299.5z" style="fill:#ff1e00;fill-opacity:1;fill-rule:evenodd;stroke:#000;stroke-width:.99999994000000003;stroke-linecap:butt;stroke-linejoin:miter;stroke-miterlimit:4;stroke-opacity:1;stroke-dasharray:none;stroke-dashoffset:0;marker:none;visibility:visible;display:inline;overflow:visible" transform="translate(-30.429 -57.204)"/><path d="m72.563 610.719 30.843 30.843h395.188L529.156 611z" style="fill:#ffdc14;fill-opacity:1;fill-rule:evenodd;stroke:#000;stroke-width:.99999994000000003;stroke-linecap:butt;stroke-linejoin:miter;stroke-miterlimit:4;stroke-opacity:1;stroke-dasharray:none;stroke-dashoffset:0;marker:none;visibility:visible;display:inline;overflow:visible"/></g><g style="display:inline"><path d="m77.465 774.645 395.07.467-197.478 197.243z" style="fill:#00b914;fill-opacity:1;stroke:#000;stroke-width:1.5;stroke-linecap:butt;stroke-linejoin:miter;stroke-miterlimit:4;stroke-opacity:1;stroke-dashoffset:.85049998999999998;display:inline;stroke-dasharray:none" transform="translate(26 -133.844)"/><path d="M204.906 669.918c-1.878-1.311-3.72-4.748-7.866-1.595 2.09-7.618 7.334-4.712 11.87-1.736m-11.374 12.402c-2.268-.32-6.343-2.658-9.036 1.24-2.161-7.795 5.705-7.618 11.162-6.945m2.622 15.732c-2.48.71-7.866 1.843-6.945 6.91-7.37-5.138.248-9.603 5.138-12.685m12.685 6.626c-.921 2.41-1.028 7.476-5.386 7.83 5.598 4.394 7.476-.885 10.984-5.492m89.22 18.745c-2.267-.32-5.987-2.162-8.645 1.736-2.197-7.796 5.457-7.051 10.913-6.414m3.544 16.158c-1.949 1.346-6.874 1.665-6.166 6.2-7.05-3.862-.885-9.212 3.685-12.507m15.13 7.795c-.425 2.268-2.693 6.13 1.95 8.54-9.426 2.692-8.398-4.997-7.513-10.489m16.052-6.342c1.169 2.196 4.925 5.456 2.126 8.964 7.228-1.417 4.535-6.165 3.507-11.693" style="fill:#ffdc14;fill-opacity:1;fill-rule:nonzero;stroke:#000;stroke-width:1.40392315px;stroke-linecap:butt;stroke-linejoin:miter;stroke-miterlimit:4;stroke-opacity:1;stroke-dasharray:none" transform="translate(7.927 -156.696)scale(1.03478)"/><path d="M284.489 604.686c-1.453.07-3.437.78-6.804 2.303-12.755 4.854-28.452 3.933-38.728 8.397-8.398-.106-13.642 6.166-20.161 8.859-3.579 1.488-8.398 2.445-11.445.567.46 2.834 4.18 4.5 9.78 3.366 3.295-.709 6.767-3.614 9.53-4.536-1.594 1.701-2.905 3.402-4.464 5.032-7.476 7.937-17.043 11.126-28.559 12.543-12.295 1.488-14.634-7.653-14.138-10.063-2.87 3.26-2.126 9.142 1.737 11.551 14.315 9 36.815-4.216 41.704-8.326-6.696 6.094-8.043 10.063-2.799 16.193 1.949 2.232 6.59 3.543 6.91 3.65-13.43-12.084-1.276-14.422 10.133-28.808-9.779 13.146-.956 16.902 2.197 29.658.674 4.925-4.641 10.063-8.787 10.063-1.276 0-4.57 1.488-7.3 3.33-2.763 1.843-4.216 1.418-6.165 1.701-6.732.567-5.527-7.122-10.382-3.366-.85.921-2.338 1.7-3.33 1.7s-1.453.497-1.063 1.135c.39.602 1.7 1.807 2.657 1.807 1.666 2.126 3.26 1.559 5.386 2.834-2.764-1.559-6.945-.141-9.07-1.7-1.879-1.56-3.367-.886-3.438.992-.07 1.133-1.098 2.976-2.267 4.11-2.056 1.984-1.453 2.94 2.586 2.87 3.437.78 7.547.319 8.965.46-3.72 1.312-3.012 1.56-6.414 1.843-5.35-.319-3.897 1.311-1.771 3.543 1.098 1.17 1.842 2.729 1.594 3.508-.673 2.339 2.728 2.658 3.508.32 2.906-1.737 9.283-4.36 10.453-3.509-1.24 3.012-3.19 2.87-3.225 4.288.036 1.063 1.24 1.31 2.941 2.197 3.65 1.842 4.89 2.09 5.032-1.099.07-1.524.956-2.232 2.87-2.268 1.523 0 4.181-.708 5.917-1.594 15.555-5.35-11.374 4.323 3.26 13.606-2.055-10.205 7.512-7.512 13.146-19.842 2.905 2.728-.674 6.52-.78 9.602 2.835-1.417 7.087-4.819 7.441-8.185.071-1.913.46-2.941 1.24-3.437 3.437.531 10.737 6.697 27.496-3.295-15.697 4.677-24.094.496-21.189-2.41 1.063-.141 7.973 3.012 10.382-3.295-4.004.992-5.492-.815-5.527-3.083 1.771-1.098 4.145-1.452 6.165.39-.213-1.984-1.346-3.933-3.189-5.067 2.764-1.205 5.528-1.807 7.654-5.917-7.37 2.834-8.008-.071-9-1.56-8.717-13.5 5.492-23.598 19.7-24.448 6.201 0 6.45-.106 4.571-2.055-2.41-2.587-2.41-4.536.142-7.016 2.339-2.268.567-5.882-3.33-12.047-2.268-3.579-2.942-2.764-2.942-3.685-.035-.921 1.95.07 2.87 0 2.622-.284 2.693-.142.532-1.311a3.66 3.66 0 0 0-2.232-.496zm-65.977-105.449c.886-2.162 3.898-4.925 0-8.079 7.831-.07 7.37 5.067 5.35 10.311m-21.684-2.48c-.71-2.162-.461-6.945-5.067-7.264 5.846-5.988 9.177.992 11.055 6.13m-15.414 11.976c-1.665-1.523-3.72-5.74-8.043-3.826 2.445-7.902 8.788-3.508 12.898 0m4.641 25.937c-2.02 1.63-4.748 6.023-8.574 4.039 2.338 6.803 6.661 3.118 11.976.921" style="fill:#ffdc14;fill-opacity:1;fill-rule:nonzero;stroke:#000;stroke-width:1.40392315px;stroke-linecap:butt;stroke-linejoin:miter;stroke-miterlimit:4;stroke-opacity:1;stroke-dasharray:none" transform="translate(7.927 -156.696)scale(1.03478)"/><path d="M201.61 496.97c-1.7 0-1.523 2.373-.46 3.117 2.445 1.878 1.772 5.953 4.57 9.992-6.023-6.732-6.944-2.87-7.617-5.492-.496-1.949-1.878-2.94-4.465.355-3.827 4.89-4.18 6.236.107 6.165 1.417-.035 1.984 3.72 6.413 6.413 1.311 1.347 5.067 4.359 6.165 7.725-.567 2.799-1.842 5.138-4.358 5.669-1.134-.283-2.197.425-3.154.957-1.346.744-.283 1.665 1.843 3.047 1.488.992 2.657 2.516 2.622 3.402-.035.885 1.7 1.381 2.197.885.531-.496 1.417-.567 1.488-1.771 3.756-1.418 5.457-2.622 7.228 1.098 2.02 4.252-1.346 7.654-1.594 12.225-.532 9.956-6.91 13.89-17.504 9.992-4.89-1.772-16.051-2.055-14.492 5.35 7.193-6.59 15.342 8.008 31.96-.992 7.264-3.579 6.98-5.244 8.15-8.504.248 1.134 0 2.622 2.02 5.35 2.94 4.075 1.984 11.552-1.666 12.296 1.347 1.134 7.512 1.346 8.185-2.764.461-2.622 1.666-2.197 3.58.248 1.806 2.339 2.196 1.949 7.263 1.027 3.083-.531 5.173-.46 5.35-1.452-1.346 1.417 18.957 13.216 24.556-3.65 2.374-9.673-3.508-13.04-17.54-15.023-.142-.815.177.85-3.543-1.701-5.421-4.677-9.284-12.437-14.882-15.237.425-5.102-6.803-13.818-10.984-18.602 1.594-4.075.815-14.244 2.799-14.988 1.807-4.287-1.843-1.7-3.898-2.835-2.055-1.098-3.614-3.472-4.535-1.452-.921 1.984 1.453 8.716-1.347 12.26-2.728-7.831-5.988-8.859-6.696-11.942.673-.956.566-2.657-.426-2.834-.567-.107-1.807.602-3.153.46-.85-.106-3.614 1.205-4.181 1.205zm77.493 117.495c4.004 5.634-.355 10.311 6.626 12.65 2.976.957 2.657-3.65 2.161-9.709-.886-1.842-2.799-3.756-5.102-5.598-.85-.674-5.103-4.146-6.732-2.41-1.134 1.205 1.948 3.508 3.047 5.067z" style="fill:#ffdc14;fill-opacity:1;fill-rule:nonzero;stroke:#000;stroke-width:1.40392315px;stroke-linecap:butt;stroke-linejoin:miter;stroke-miterlimit:4;stroke-opacity:1;stroke-dasharray:none" transform="translate(7.927 -156.696)scale(1.03478)"/><path d="M333.138 551.784c-.956 14.102-1.913 35.185 3.296 51.803 2.834 9 7.724 22.607-1.701 29.197-6.45 4.5-12.331.425-15.13-10.842-.638-2.516-2.09-5.776-3.402-8.398-.319-7.406-4.216-10.453-8.823-20.268-6.448-13.429 1.524-21.685-13.677-26.114-2.303.496-27.035 10.772-32.067 12.862-2.87 1.205 3.225 12.862 7.264 17.646 4.217 6.024 15.236 10.417 17.008 17.575.815 2.232.567 4.748-1.028 9.708-2.728 8.398-2.693 11.906-.744 17.115 3.331 11.02-3.897 28.807-13.748 32.244 15.13-1.24 14.988-7.441 16.866-12.437 2.552 3.189 1.276 12.401-2.693 16.724-5.562 5.988-13.57 6.803-18.637 12.402-6.307 7.015-6.06 12.508-1.666 18.815 1.807-27.426 26.398-13.217 29.977-39.367 7.334 8.965 3.897 19.595 3.047 22.288 6.2-5.421 7.405-12.012 4.713-17.894-3.473-7.512-5.21-11.445-5.74-12.65 2.55 3.331 9.035 10.064 15.59 12.26 3.65 1.24 9.035 3.685 11.374 6.804.744.992 2.303 1.948 2.48 3.047.248 1.346-2.09 6.342-2.515 10.275-.815 7.3-.142 5.634-3.934 8.681-3.65 2.906-5.633 2.268-8.503 1.418-4.323-3.083-2.977 1.771-4.323 3.968-1.488 1.56 1.098 5.847 2.728 4.394.46-.39 2.976-.354 5.386-.496 3.33.709 6.98-1.63 9.248-3.862 0 .602-2.268 1.771-4.606 3.756-2.02 1.7-4.82 2.41-6.804 2.586-1.984.213-3.968.496-3.224 2.055.284.532 2.02 6.697 3.508 7.725 1.31.886 1.772-1.205 2.622-2.587.886-1.382 2.587-1.098 3.65-1.098s3.047-3.047 4.677-4.394c1.204-.992 1.842-1.594 2.02-1.772-2.02 2.304-4.784 4.465-6.201 6.733-1.205.85-1.311 1.665-1.17 2.055.32 1.31 1.914.638 3.65.744 1.7.106 3.898.39 4.925.638 1.17.283 1.878-.32 1.984-1.772.213-2.835 4.642-4.004 5.811-10.382.638 0 1.347 2.587.957 3.437-1.063 2.303.921 3.366 2.8 1.417.885-.92 3.224-1.736 4.11-1.736 2.728 0 2.622-3.685.425-5.208-1.914-1.276-1.914-1.701.035-4.855 1.134-1.878 2.02-4.606 2.303-6.023.46-2.162-.177-2.552.177-2.552.39-.92 3.296-2.409 3.544 4.678 3.401-1.347 4.075-3.72 4.323-5.989.283-2.267-1.17-3.047-4.004-5.846-1.95-1.949-3.508-4.217-3.437-4.996 2.693 1.63 9.425.106 14.315 3.083-1.807-5.103-9.248-5.138-6.59-6.91 2.019.248 5.81.106 10.735-4.925 8.61-8.752 5.563-15.874 13.5-13.748-9.567-10.205-11.515 17.15-31.252 4.819-1.523-.886.32-4.146.39-7.512.036-3.083-1.665-6.272-3.756-7.193.106 3.72-1.31 6.06-3.437 7.547-.78.567-1.913 1.878-2.87-.744-.638-1.736-.567-3.65.815-5.35-2.48.673-5.882 2.197-7.405 1.7-.674-1.027.318-4.216 4.464-4.783-3.012-.708-6.023-1.559-8.964.744 1.913-1.842 1.275-4.854 1.204-7.618-.744 2.162-1.63 4.11-3.401 4.465a17.7 17.7 0 0 1-1.418-4.323c-6.307-6.095-8.822-10.417-8.397-19.417 3.543 8.858 4.04 15.555 20.55 18.318 10.028 6.556 8.682-3.968 19.241-3.614-3.756-5.031-6.838-1.31-9.496-2.267 1.205-1.17 4.5-3.898 6.024-7.583 1.204-2.87 1.878-4.96 2.161-7.547 3.437-5.74 12.685-4.465 17.043-.178 4.359 4.323 5.28 10.772.426 15.84 12.011-7.3 9.496-22.288-10.134-25.867 6.697-1.24 18.141-.567 21.366-7.158 4.075-8.362 2.197-12.26.035-14.35 2.197 20.055-23.988 6.024-30.508 20.09-11.586-35.432 35.115-12.614 26.894-42.52-9.39 21.084-25.512 1.1-33.484 21.154-4.075-10.984-3.366-33.094-1.701-43.901 1.524-9.886 9.921-30.295 20.232-35.93 4.855-2.621 9.815-2.338 12.614 3.686 4.394 9.46-2.267 17.575-13.5 12.26 1.382 10.098 8.788 9.673 13.217 8.043-1.807 2.516-3.437 4.642-8.362 6.839-5.776 2.515-9.142 10.559-2.693 21.79-1.807-5.704 3.26-9.247 8.008-11.621 21.366-10.736 6.945-21.827 13.393-16.264 7.229 6.13 17.752-3.472 8.788-13.677 1.559 3.083-3.898 12.72-9.213-1.453-1.24-8.929-3.685-18.283-11.02-19.949-26.078-2.338-38.94 31.748-40.535 52.512zm-128.09 57.083c-.886 2.41-4.217 6.378-1.099 9.283-7.264 0-5.138-5.173-4.748-10.878m-12.189-.921c-1.771 1.524-6.342 3.224-5.138 7.654-7.476-3.048-2.02-8.965 2.162-12.792m-.638-5.243c-2.303.105-6.803-1.383-8.681 2.905-3.685-7.158 4.146-8.504 9.673-8.894m2.906-5.705c-1.843-1.275-4.359-4.145-8.504-1.771 2.41-7.37 7.44-5.067 11.976-2.091" style="fill:#ffdc14;fill-opacity:1;fill-rule:nonzero;stroke:#000;stroke-width:1.40392315px;stroke-linecap:butt;stroke-linejoin:miter;stroke-miterlimit:4;stroke-opacity:1;stroke-dasharray:none" transform="translate(7.927 -156.696)scale(1.03478)"/><path d="M277.26 569.253c-6.838.248-19.452 6.91-27.602.531-15.732 2.41-22.642 5.847-28.311 9.744-4.5-1.346-10.347 2.551-15.449 5.173-4.713 2.658-10.205-5.456-14.031-4.358-1.595-4.642-3.508-.39-4.465 2.339-2.41.85-2.622 3.118-.213 3.118 3.296.85 4.394 1.523 6.945 3.012-3.543-.532-5.35-2.729-9.992-.39-1.878-1.595-2.622-.496-2.693 1.098-.354 1.17.603 2.835.638 4.323-.106 3.72.354 4.5 2.728 3.402.638-.284 1.24-.78 1.985-.922 1.771-.318 4.11.249 6.98-.035-3.402 1.17-5.563 1.665-9.035 3.579-2.091-.709-3.331 2.268-1.382 3.401.637.39 1.488 2.41 1.452 3.615-.106 2.763 3.19 3.082 4.075.354 3.756-2.764 3.65-2.587 11.09-3.862-1.806 5.563-1.204 4.323-2.444 6.236-1.63 2.516 1.31 1.453 4.464 1.453 3.19.035 4.926 1.736 4.182-2.658.46-3.579 1.7-4.606 4.11-4.642 2.551 1.489 11.303-4.96 12.118-4.96-2.02 6.91 1.346 5.457-3.012 12.579-2.268 3.72-15.945 2.622-18.213 17.185 7.973-11.02 15.875-9.461 20.658-13.571 4.181-3.579 5.244-8.752 5.244-8.752 5.563-12.154 7.37 3.189 17.93-9 2.798-1.666-7.583 5.173 3.011 10.382 1.524-8.965 6.626-5.74 12.295-14.35 2.729 0 10.17-1.879 11.551-6.875l10.134-13.323c-.283-3.011-2.09-3.897-4.748-3.826zm-54.992 65.693c2.8-2.162 6.166-5.35 6.91-8.256m-2.552-2.906c3.012-1.31 6.343-1.878 10.17-1.453M206.82 681.08c4.641-.71 3.968-2.34 7.263-2.34m.425 8.009c.78-2.02 2.233-3.58 3.614-5.174m105.237-.283c1.098 2.41 3.826 4.04 8.043 4.96m-45.106-66.755c.425-2.693 2.267-4.996 2.41-6.768.247-3.437-2.304-7.157-2.304-7.157m7.795 64.878c-2.48-3.225-3.401-5.032-3.366-7.69m-3.614-.708c.992-3.933 2.8-5.032 5.492-7.158m67.677-42.519c-2.48-.496-4.854-.355-6.732.85m-8.823 24.52c-3.756.035-4.04-.46-5.244-1.95m4.713-47.267c-.85 1.878-1.737 4.606-1.772 7.37m31.961-61.795c1.24-1.772 2.55-3.508 3.118-5.563m-39.296 81.106c-1.877-5.74-6.448-6.236-8.114-4.11-1.949 2.41-.673 5.705 1.737 5.421-4.642 3.685-9.249-1.31-6.84-7.228 2.8-6.91 10.383-6.484 13.217-1.878m-128.126 72.284c3.473 1.736 5.599-1.347 5.493-1.453m109.523 42.661c1.949-1.665 2.622-3.508 3.33-5.35m-4.818-1.099c1.346-1.31 1.843-3.543.319-6.555m10.701 10.701c-1.736-2.02-1.17-4.394-2.8-6.555m13.394-8.929c.107-2.197-.815-4.43-3.26-6.626" style="fill:#ffdc14;fill-opacity:1;fill-rule:nonzero;stroke:#000;stroke-width:1.40392315px;stroke-linecap:butt;stroke-linejoin:miter;stroke-miterlimit:4;stroke-opacity:1;stroke-dasharray:none" transform="translate(7.927 -156.696)scale(1.03478)"/><path d="M222.197 599.229c1.382-2.303 2.835-5.209 5.74-6.06m-27.779 10.029c.567-2.126.886-3.863 4.04-7.37m-10.808.495c4.607-1.063 2.764-1.984 7.406-3.897m-6.874-3.756c2.338.957 4.393.602 6.767-2.622m15.414-75.968c.708 2.799 1.949 5.846 5.67 5.988m-16.3-6.308c2.09 3.19 4.5 3.296 6.236 7.406m-1.134 18.886c4.43.425 5.244-2.41 6.13-5.492m3.969 26.291c-.071-4.606.886-5.705 4.323-11.161m8.149 141.094c4.04-2.445 5.528-5.35 6.095-8.362m27.248-15.201c-4.11-3.012-6.45-1.772-7.548-1.523" style="fill:#ffdc14;fill-opacity:1;fill-rule:nonzero;stroke:#000;stroke-width:1.40392315px;stroke-linecap:butt;stroke-linejoin:miter;stroke-miterlimit:4;stroke-opacity:1;stroke-dasharray:none" transform="translate(7.927 -156.696)scale(1.03478)"/><path d="M261.422 513.41h27.815v21.827h-27.815z" style="fill:#ffdc14;fill-opacity:1;fill-rule:nonzero;stroke:#000;stroke-width:1.43816531px;stroke-linecap:butt;stroke-linejoin:miter;stroke-miterlimit:4;stroke-opacity:1;stroke-dasharray:none" transform="translate(7.927 -156.696)scale(1.03478)"/><path d="M270.74 517.875c1.808 2.799.32 9.354 2.623 11.338 1.559 1.347 3.224.78 5.031.603 2.41-.248 2.729-8.93 5.28-12.26" style="fill:#ffdc14;fill-opacity:1;fill-rule:evenodd;stroke:#000;stroke-width:1.43816531px;stroke-linecap:butt;stroke-linejoin:miter;stroke-miterlimit:4;stroke-opacity:1;stroke-dasharray:none" transform="translate(7.927 -156.696)scale(1.03478)"/><path d="M274.922 533.678c-1.311-1.949-2.48-8.504-2.587-8.646-.921-.957-2.055 7.122-2.728 9.496m-1.595-19.736c.603 2.232 1.205 8.114 2.339 8.894.921.602 1.134-4.82 2.48-6.307m5.032 15.909c1.169-1.7 2.02-7.583 2.303-7.76.708-.531 1.559 6.378 2.09 8.504m-2.09-16.157c1.17 1.63-.036 7.157.992 6.555 1.17-.709 2.87-6.768 3.827-9" style="fill:#ffdc14;fill-opacity:1;fill-rule:evenodd;stroke:#000;stroke-width:1.43816531px;stroke-linecap:round;stroke-linejoin:round;stroke-opacity:1;stroke-dasharray:none" transform="translate(7.927 -156.696)scale(1.03478)"/><path d="M268.083 482.867c-2.161.425-4.464-1.134-6.272 3.26-5.35 3.437-7.157 7.193-7.476 11.303-.496 6.484 1.843 13.252-7.087 16.476 2.268.32 4.359.992 7.264 0-2.586 1.7-2.41 4.713-4.252 6.662-2.55 2.657-6.13 3.295-8.043-2.126-.213 9.212 6.024 10.452 13.819 5.775-8.93 8.788-7.335 25.441-22.323 23.138 10.7 6.661 17.681 3.26 24.697-1.028-14.102 9.922-7.264 26.22-22.252 23.28 9.815 12.047 17.433 4.181 26.681-3.72 1.772-1.489 3.33-3.367 5.953-5.103-1.666 1.347-3.33 3.154-5.103 5.244-7.44 9 3.544 19.276 10.595 19.382-4.5-13.323 5.846-14.315 8.61-16.795-8.433 19.842 5.882 22.04 14.74 14.421-15.59-.602-.637-6.024 2.516-21.153-.78 7.511-1.488 14.74 7.016 11.161-8.93.567 3.968-15.52 1.984-21.047-1.524-5.528-5.882-9.071-9.78-13.004 3.969 3.189 8.327 11.232 13.288 5.244-1.063 1.31-8.398.567-4.5-10.736 2.232-7.548-4.854-10.24-8.787-14.811 2.692 2.586 4.854 1.878 7.795-.248-8.185 1.204-6.697-8.61-7.335-17.044.744.603 2.551.744 3.614-1.098-2.41-.319-4.18-1.772-5.102-3.508-.638-1.24-.921-2.764-.921-4.925-1.418-2.516-.674-4.5-6.555-6.732-.85-1.914-2.091-1.95-3.26-2.268-2.197-1.311-4.288-1.736-7.158-.709-2.055-.283-2.728-1.027-5.988.248-1.842-1.24-4.996-.638-6.378.46m-2.268 31.535c.886-.212 2.445 2.658 5.74 3.473 3.756.92 5.21 1.275 9.036.496 3.791-.78 5.457-4.96 6.236-3.544.815 1.418-2.161 4.82-3.047 9.213-.886 4.43 1.311 6.626-.496 8.398-1.807 1.807-3.402-1.17-6.803-1.24-3.437-.036-4.855 2.905-6.91.992-2.02-1.95-.212-4.394-1.24-8.752-.992-4.394-3.614-7.37-2.8-8.752.107-.177.178-.284.284-.284m34.831 40.358c.142 2.516-.035 4.82-.46 6.945.248-2.41.496-4.854.46-6.945" style="fill:#ffdc14;fill-opacity:1;fill-rule:evenodd;stroke:#000;stroke-width:1.43816531px;stroke-linecap:round;stroke-linejoin:round;stroke-opacity:1;stroke-dasharray:none" transform="translate(7.927 -156.696)scale(1.03478)"/><path d="m257.843 512.1 2.693 5.916c.78 1.701.354 7.193-2.197 9.071 1.7 3.19 3.437 3.579 4.11 2.445 1.205 2.622-.85 4.854-.85 6.874 4.252-1.842 6.838.603 5.988 4.642 3.402-2.126 6.236-.142 9.248-.425 2.976-.32 6.095-.496 7.973.815.354-3.827.956-5.634 5.456-5.35-.673-1.879-2.126-2.198-.46-6.095 1.7.142.885 1.417 4.818-.496-2.338-2.87-3.26-7.37-2.09-11.941l1.346-4.96" style="fill:none;stroke:#000;stroke-width:1.43816531px;stroke-linecap:round;stroke-linejoin:round;stroke-opacity:1;stroke-dasharray:none" transform="translate(7.927 -156.696)scale(1.03478)"/><path d="M258.764 499.024c5.173-2.41 5.492-3.437 13.252 2.551m7.902-.07c6.52-4.926 6.767-5.989 12.65-1.63m-19.631 2.551c1.028 3.685-3.614 4.819-3.614 8.752m10.417-8.468c-.637 4.358 4.253 4.712 4.288 8.043m-11.161.389c.531-.708 1.559.815 3.295.886s3.047-1.771 3.543-1.134c.46.638-2.41 4.217-3.579 4.217-1.204 0-3.826-3.26-3.26-3.969" style="fill:#ffdc14;fill-opacity:1;fill-rule:evenodd;stroke:#000;stroke-width:1.43816531px;stroke-linecap:round;stroke-linejoin:round;stroke-opacity:1;stroke-dasharray:none" transform="translate(7.927 -156.696)scale(1.03478)"/><path d="M279.953 501.717c1.736.78 2.729 1.028 4.146.39 2.303-.957 2.87-2.41 3.968-2.445-.212-.957-.496-1.842-2.09-1.984-3.543 1.17-3.225 2.41-6.024 4.04m-7.937.07c-1.736.815-2.728 1.063-4.145.425-2.268-.956-2.835-2.41-3.969-2.445.213-.956.496-1.842 2.09-1.984 3.544 1.17 3.225 2.374 6.024 4.004" style="fill:#ffdc14;fill-opacity:1;fill-rule:evenodd;stroke:#000;stroke-width:1.43816531px;stroke-linecap:round;stroke-linejoin:round;stroke-opacity:1;stroke-dasharray:none" transform="translate(7.927 -156.696)scale(1.03478)"/><path d="M268.863 500.512c0 .638-.142 1.205-.39 1.524s-.532.319-.78 0c-.212-.319-.39-.886-.39-1.524 0-.637.178-1.204.39-1.523.248-.32.532-.32.78 0 .248.319.39.886.39 1.523zm15.767 0c0 .638-.141 1.205-.39 1.524-.247.319-.53.319-.779 0-.248-.319-.39-.886-.39-1.524 0-.637.142-1.204.39-1.523.248-.32.532-.32.78 0 .248.319.39.886.39 1.523z" style="fill:#ffdc14;fill-opacity:1;fill-rule:evenodd;stroke:#000;stroke-width:1.43816531px;stroke-linecap:butt;stroke-linejoin:miter;stroke-miterlimit:4;stroke-opacity:1;stroke-dasharray:none" transform="translate(7.927 -156.696)scale(1.03478)"/><g style="stroke:#000;stroke-width:7.24565315;stroke-miterlimit:4;stroke-opacity:1;stroke-dasharray:none"><g style="stroke-width:7.24565315;stroke-miterlimit:4;stroke-dasharray:none"><g style="fill:#fcdd09;stroke:#000;stroke-width:7.24565315;stroke-miterlimit:4;stroke-opacity:1;stroke-dasharray:none"><g style="fill:#fcdd09;stroke:#000;stroke-width:3.10328722;stroke-miterlimit:4;stroke-opacity:1;stroke-dasharray:none"><path d="M81.906 972.781c-7.075-6.247-16.521 1.357-12.807 11.842 11.34-10.267 15.452 5.477 9.621 9.76-3.041 2.235-11.54 1.6-16.157-4.788-2.727 6.69-10.271 9.197-14.836 5.44-6.168-5.075-2.918-14.73 6.872-11.066-3.094-9.472-8.797-12.274-17.61-5.283-4.176-11.565-9.776-16.122-15.83-16.466 5.197 16.883 16.947 32.065 15.593 50.642 16.408-2.686 34.395-3.813 50.548-2.89.08.01.16.01.24.017 16.116 1.43 33.763 5.154 49.608 10.192 1.354-18.577 15.169-31.896 22.76-47.846-6.04-.538-12.229 3.16-18.038 13.997-7.706-8.196-13.755-6.25-18.19 2.673 10.217-2.205 12.033 7.819 5.194 11.946-5.06 3.055-12.162-.52-13.89-7.534-5.495 5.65-14.009 5.044-16.694 2.392-5.148-5.084 1.217-20.063 10.949-8.26 5.195-9.836-3.049-18.73-10.954-13.574.874-7.491-1.512-14.848-6.926-18.031-6.792 2.293-8.422 9.713-9.453 16.837z" style="fill:#fcdd09;fill-opacity:1;fill-rule:evenodd;stroke:#000;stroke-width:3.10328722;stroke-linecap:butt;stroke-linejoin:miter;stroke-miterlimit:4;stroke-opacity:1;stroke-dasharray:none;display:inline" transform="matrix(.32251 -.02328 .0233 .32028 242.522 21.156)"/></g></g><path d="M163.242 141.006c-45.292.125-86.279 5.833-115.986 14.952-1.981.616-4-2.183-4.53-4.12-.53-1.94.636-6.165 2.618-6.796 29.852-9.494 71.903-15.48 118.306-15.632 46.404.038 87.992 5.942 116.856 15.371 1.916.626 2.849 4.85 2.115 6.791-.736 1.938-2.84 4.742-4.753 4.13-28.758-9.055-69.325-14.671-114.626-14.696" style="font-size:12px;fill:#fcdd09;fill-opacity:1;stroke:#000;stroke-width:7.24565315;stroke-miterlimit:4;stroke-opacity:1;stroke-dasharray:none" transform="matrix(.1385 .00003 -.00009 .13754 271.73 324.674)"/></g></g><path d="M256.85 493.249c-5.704-9.142-5.952-21.72 6.627-7.76" style="fill:#ffdc14;fill-opacity:1;fill-rule:evenodd;stroke:#000;stroke-width:1.43816531px;stroke-linecap:round;stroke-linejoin:round;stroke-opacity:1;stroke-dasharray:none" transform="translate(7.927 -156.696)scale(1.03478)"/><path d="M256.426 483.186c.92-.355 5.882 5.208 5.173 5.208l-2.906 3.048c-.354.177-3.082-7.69-2.267-8.256m34.264 2.693c6.307-10.843 14.385-6.91 5.74 8.504" style="fill:#ffdc14;fill-opacity:1;fill-rule:evenodd;stroke:#000;stroke-width:1.43816531px;stroke-linecap:round;stroke-linejoin:round;stroke-opacity:1;stroke-dasharray:none" transform="translate(7.927 -156.696)scale(1.03478)"/><path d="M297.457 483.044c-.85-.46-6.023 5.35-5.315 5.421l2.622 3.33c.355.214 3.473-8.078 2.693-8.751" style="fill:#ffdc14;fill-opacity:1;fill-rule:evenodd;stroke:#000;stroke-width:1.43816531px;stroke-linecap:round;stroke-linejoin:round;stroke-opacity:1;stroke-dasharray:none" transform="translate(7.927 -156.696)scale(1.03478)"/></g><g style="display:inline"><path d="M-493.561 458.912h423.557v423.557h-423.557z" style="color:#000;fill:none;stroke:#000;stroke-width:3;stroke-linecap:butt;stroke-linejoin:miter;stroke-miterlimit:4;stroke-opacity:1;stroke-dasharray:none;stroke-dashoffset:0;marker:none;visibility:visible;display:inline;overflow:visible" transform="rotate(-45 -148.564 -98.307)"/></g></svg>