<svg xmlns="http://www.w3.org/2000/svg" version="1.0" viewBox="0 0 602.828 834.105"><g style="display:inline"><g style="display:inline;stroke-width:1.00011086;stroke-miterlimit:4;stroke-dasharray:none" transform="translate(-83.186 -258.358)scale(.99989)"><path d="M596.594 411.785c-8.117 15.083-17.827 34.407-25.331 32.044-1.619-.647-2.145-4.401.277-16.547l14.673-27.448c2.03-3.12 7.798-.757 8.167 2.496z" style="fill:#eac102;fill-rule:evenodd;stroke:#000;stroke-width:1.00011086;stroke-linecap:butt;stroke-linejoin:miter;stroke-miterlimit:4;stroke-dasharray:none;stroke-opacity:1"/><g style="stroke-width:1.00011086;stroke-miterlimit:4;stroke-dasharray:none"><path d="M172.687 411.785c8.118 15.083 17.828 34.407 25.332 32.044 1.618-.647 2.145-4.401-.277-16.547l-14.673-27.448c-2.03-3.12-7.798-.757-8.167 2.496z" style="fill:#eac102;fill-rule:evenodd;stroke:#000;stroke-width:1.00011086;stroke-linecap:butt;stroke-linejoin:miter;stroke-miterlimit:4;stroke-dasharray:none;stroke-opacity:1"/><path d="m185.113 428.46 2.674-7.44c-5.424-6.62-13.806-18.692-22.785-33.699-1.856-3.105-8.216-1.273-6.699 2.177 12.12 21.777 20.733 33.233 26.81 38.961z" style="fill:#eac102;fill-rule:evenodd;stroke:#000;stroke-width:1.00011086;stroke-linecap:butt;stroke-linejoin:miter;stroke-miterlimit:4;stroke-dasharray:none;stroke-opacity:1"/><g style="stroke-width:2.70253134;stroke-miterlimit:4;stroke-dasharray:none"><path d="m2259.22-21.284 13.513-10.7c38.725-10.031 73.254 26.828 73.025 42.667 9.68-8.806 19.36-5.788 29.039-5.28-5.725 18.92-.138 33.015-6.864 53.325 8.969 2.784 15.989 6.738 17.95 13.727l8.976-5.808 11.088-.528c2.121 52.754-15.08 41.16-11.616 60.717l18.48-22.703 20.062 2.112c9.82 1.864 12.627 13.462 23.23 14.783-7.483 10.116-12.038 27.91-19.006 40.126-8.556 6.212-16.076 5.173-23.23 1.583 23.333 8.588 29.448 28.738 38.54 39.598-9.559.528-18.141 1.584-22.174 2.112 14.738 21.028 23.153 37.859 37.486 49.629l-8.448 1.584-43.821-21.647-36.958-38.014-45.405-70.22-1.584-110.872c-23.15-11.794-19.606-39.16-72.283-36.19" style="fill:#eac102;fill-rule:evenodd;stroke:#000;stroke-width:2.70253134;stroke-linecap:round;stroke-linejoin:round;stroke-miterlimit:4;stroke-dasharray:none;stroke-opacity:1" transform="matrix(.39263 0 0 .3488 -776.354 331.259)"/><path d="M2257.836-20.617c63.056 6.588 63.012 95.73 75.586 148.407l40.318 68.267c25.497 24.638 41.98 55.29 57.75 58.903 15.277 3.5 14.219-3.019 29.759.658-30.425-13.526-16.494-44.747-79.72-63.685 20.445-11.326 20.444 19.878 61.393 10.996-11.231-28.088-35.37-29.443-46.274-39.86 16.707-5.397 18.54 5.342 30.697.458 13.499-5.423 10.385-26.335 21.075-40.318-13.993-6.174-25.367-24.565-42.609-15.578-5.991 4.969-14.814 21.736-24.74 25.657-4.177-22.38 9.867-24.388 12.828-35.736 2.934-11.245-1.755-14.662.916-30.697-45.422 16.762-28.28 47.084-49.031 60.368-.213-32.214 8.898-18.514 25.665-53.954-6.33-9.421-10.793-7.643-16.036-10.538 8.33-18.001.796-28.962 9.622-54.063-16.68-5.572-22.356 3.466-27.032 9.163-1.695-15.592-38.161-65.956-80.167-38.448z" style="fill:#eac102;fill-rule:evenodd;stroke:#000;stroke-width:2.70253134;stroke-linecap:butt;stroke-linejoin:round;stroke-miterlimit:4;stroke-dasharray:none;stroke-opacity:1" transform="matrix(.39263 0 0 .3488 -776.354 331.259)"/><path d="M2348.03 39.813c-13.443 30.095-12.093 60.189-11.112 90.283m32.64-15.973c-2.704 15.12-12.25 23.4-22.223 31.251m69.448-9.028c-23.958 1.777-25.712 17.052-61.114 22.223m6.945 9.723c17.158 3.444 34.118 7.087 45.835 15.973m-36.807 5.556c23.369 28.197 42.978 30.734 50.002 45.14" style="fill:none;fill-rule:evenodd;stroke:#000;stroke-width:2.70253134;stroke-linecap:butt;stroke-linejoin:miter;stroke-miterlimit:4;stroke-dasharray:none;stroke-opacity:1" transform="matrix(.39263 0 0 .3488 -776.354 331.259)"/><g style="stroke-width:2.43334794;stroke-miterlimit:4;stroke-dasharray:none"><path d="M2069.063 730.688c.223.008.43.093.656.093 12.758 0 23.094-12.766 23.094-28.5s-10.336-28.5-23.094-28.5c-.226 0-.433.086-.656.094z" style="display:inline;overflow:visible;visibility:visible;opacity:1;fill:#e7e7e7;fill-opacity:1;fill-rule:nonzero;stroke:#000;stroke-width:2.43334794;stroke-linecap:butt;stroke-linejoin:miter;stroke-miterlimit:4;stroke-dasharray:none;stroke-dashoffset:0;stroke-opacity:1;marker:none;marker-start:none;marker-mid:none;marker-end:none" transform="matrix(-.3643 .21291 .23967 .32362 733.026 -280.144)"/><path d="M2066.286 668.732h6.95v66.529h-6.95c-2.458-25.69-2.862-50.125 0-66.53z" style="display:inline;overflow:visible;visibility:visible;fill:#eac102;fill-opacity:1;fill-rule:nonzero;stroke:#000;stroke-width:2.43334794;stroke-linecap:butt;stroke-linejoin:miter;stroke-miterlimit:4;stroke-dasharray:none;stroke-dashoffset:0;stroke-opacity:1;marker:none;marker-start:none;marker-mid:none;marker-end:none" transform="matrix(-.3643 .21291 .23967 .32362 733.026 -280.144)"/></g></g></g><g style="stroke-width:1.00011086;stroke-miterlimit:4;stroke-dasharray:none"><path d="m581.412 421.114 2.675 7.438c6.081-5.7 14.717-17.172 26.895-39.054 1.518-3.45-4.843-5.282-6.699-2.177-9.02 15.078-17.45 27.193-22.87 33.793z" style="fill:#eac102;fill-rule:evenodd;stroke:#000;stroke-width:1.00011086;stroke-linecap:butt;stroke-linejoin:miter;stroke-miterlimit:4;stroke-dasharray:none;stroke-opacity:1"/><g style="stroke-width:2.70253134;stroke-miterlimit:4;stroke-dasharray:none"><path d="m2259.22-21.284 13.513-10.7c38.725-10.031 73.254 26.828 73.025 42.667 9.68-8.806 19.36-5.788 29.039-5.28-5.725 18.92-.138 33.015-6.864 53.325 8.969 2.784 15.989 6.738 17.95 13.727l8.976-5.808 11.088-.528c2.121 52.754-15.08 41.16-11.616 60.717l18.48-22.703 20.062 2.112c9.82 1.864 12.627 13.462 23.23 14.783-7.483 10.116-12.038 27.91-19.006 40.126-8.556 6.212-16.076 5.173-23.23 1.583 23.333 8.588 29.448 28.738 38.54 39.598-9.559.528-18.141 1.584-22.174 2.112 14.738 21.028 23.153 37.859 37.486 49.629l-8.448 1.584-43.821-21.647-36.958-38.014-45.405-70.22-1.584-110.872c-23.15-11.794-19.606-39.16-72.283-36.19" style="fill:#eac102;fill-rule:evenodd;stroke:#000;stroke-width:2.70253134;stroke-linecap:round;stroke-linejoin:round;stroke-miterlimit:4;stroke-dasharray:none;stroke-opacity:1" transform="matrix(-.39263 0 0 .3488 1545.64 331.259)"/><path d="M2257.836-20.617c63.056 6.588 63.012 95.73 75.586 148.407l40.318 68.267c25.497 24.638 41.98 55.29 57.75 58.903 15.277 3.5 14.219-3.019 29.759.658-30.425-13.526-16.494-44.747-79.72-63.685 20.445-11.326 20.444 19.878 61.393 10.996-11.231-28.088-35.37-29.443-46.274-39.86 16.707-5.397 18.54 5.342 30.697.458 13.499-5.423 10.385-26.335 21.075-40.318-13.993-6.174-25.367-24.565-42.609-15.578-5.991 4.969-14.814 21.736-24.74 25.657-4.177-22.38 9.867-24.388 12.828-35.736 2.934-11.245-1.755-14.662.916-30.697-45.422 16.762-28.28 47.084-49.031 60.368-.213-32.214 8.898-18.514 25.665-53.954-6.33-9.421-10.793-7.643-16.036-10.538 8.33-18.001.796-28.962 9.622-54.063-16.68-5.572-22.356 3.466-27.032 9.163-1.695-15.592-38.161-65.956-80.167-38.448z" style="fill:#eac102;fill-rule:evenodd;stroke:#000;stroke-width:2.70253134;stroke-linecap:butt;stroke-linejoin:round;stroke-miterlimit:4;stroke-dasharray:none;stroke-opacity:1" transform="matrix(-.39263 0 0 .3488 1545.64 331.259)"/><path d="M2348.03 39.813c-13.443 30.095-12.093 60.189-11.112 90.283m32.64-15.973c-2.704 15.12-12.25 23.4-22.223 31.251m69.448-9.028c-23.958 1.777-25.712 17.052-61.114 22.223m6.945 9.723c17.158 3.444 34.118 7.087 45.835 15.973m-36.807 5.556c23.369 28.197 42.978 30.734 50.002 45.14" style="fill:none;fill-rule:evenodd;stroke:#000;stroke-width:2.70253134;stroke-linecap:butt;stroke-linejoin:miter;stroke-miterlimit:4;stroke-dasharray:none;stroke-opacity:1" transform="matrix(-.39263 0 0 .3488 1545.64 331.259)"/><g style="stroke-width:2.43334794;stroke-miterlimit:4;stroke-dasharray:none"><path d="M2069.063 730.688c.223.008.43.093.656.093 12.758 0 23.094-12.766 23.094-28.5s-10.336-28.5-23.094-28.5c-.226 0-.433.086-.656.094z" style="display:inline;overflow:visible;visibility:visible;opacity:1;fill:#e7e7e7;fill-opacity:1;fill-rule:nonzero;stroke:#000;stroke-width:2.43334794;stroke-linecap:butt;stroke-linejoin:miter;stroke-miterlimit:4;stroke-dasharray:none;stroke-dashoffset:0;stroke-opacity:1;marker:none;marker-start:none;marker-mid:none;marker-end:none" transform="matrix(.3643 .21291 -.23967 .32362 36.26 -280.144)"/><path d="M2066.286 668.732h6.95v66.529h-6.95c-2.458-25.69-2.862-50.125 0-66.53z" style="display:inline;overflow:visible;visibility:visible;fill:#eac102;fill-opacity:1;fill-rule:nonzero;stroke:#000;stroke-width:2.43334794;stroke-linecap:butt;stroke-linejoin:miter;stroke-miterlimit:4;stroke-dasharray:none;stroke-dashoffset:0;stroke-opacity:1;marker:none;marker-start:none;marker-mid:none;marker-end:none" transform="matrix(.3643 .21291 -.23967 .32362 36.26 -280.144)"/></g></g></g><path d="M384.692 355.764c-1.369.017-2.752.879-2.798 2.526-1.26 16.303-7.932 41.715-32.699 46.318-24.564 4.564-46.222-30.135-47.14-43.932.014-2.06-1.653-2.86-3.337-2.77-1.91.1-3.847 1.34-3.374 3.166 3.663 18.838-.183 42.79-17.178 47.12-20.842 5.312-49.787-39.14-54.625-64.753-1.221-4.723-8.253-2.872-6.908.594 15.314 25.974 14.546 68.256 5.374 72.11-9.402 2.865-29.013-20.001-40.023-40.16-1.873-2.728-8.768-1.31-7.13 2.189 8.014 15.486 15.972 30.969 16.344 46.714-.92-.914-2.11-2.276-3.41-3.865l-2.676 7.438c6.46 6.09 10.052 5.697 11.853 4.086 3.603-3.224 3.674-9.89-1.153-24.748 8.887 8.97 22.857 19.972 31.852 13.91 8.994-6.061 9.823-16.989 9.006-30.218 11.003 13.663 27.733 27.758 42.747 24.259 15.212-3.546 21.852-16.952 23.89-34.002 8.382 15.454 25.655 33.123 46.944 30.416 20.451-2.6 32.2-25.414 34.392-32.92 2.192 7.506 13.952 30.32 34.404 32.92 21.288 2.707 38.55-14.962 46.932-30.416 2.038 17.05 8.677 30.456 23.889 34.002 15.014 3.5 31.744-10.596 42.748-24.26-.818 13.23.01 24.158 9.006 30.22 8.994 6.061 22.965-4.942 31.852-13.91-4.828 14.856-4.757 21.523-1.154 24.747 1.793 1.604 5.362 2.01 11.767-3.993l-2.675-7.438c-1.27 1.546-2.423 2.876-3.325 3.772.372-15.745 8.33-31.228 16.343-46.714 1.639-3.5-5.244-4.917-7.116-2.189-11.01 20.159-30.622 43.025-40.024 40.16-10.005-3.288-9.375-45.138 5.362-72.11 1.346-3.466-5.686-5.317-6.908-.594-3.2 26.018-32.053 69.541-54.612 64.754-17.157-3.64-20.854-28.283-17.19-47.121.889-3.438-6.729-4.79-6.7-.396-.917 13.797-22.588 48.496-47.152 43.932-24.766-4.603-31.426-30.015-32.687-46.318.012-1.714-1.343-2.543-2.711-2.526z" style="fill:#eac102;fill-rule:evenodd;stroke:#000;stroke-width:1.00011086;stroke-linecap:butt;stroke-linejoin:miter;stroke-miterlimit:4;stroke-dasharray:none;stroke-opacity:1"/><g style="stroke-width:1.00011086;stroke-miterlimit:4;stroke-dasharray:none"><path d="M338.435 313.893s11.356-2.076 17.496 7.326c6.032 9.238 20.747 8.271 20.747 8.271l-6.224 20.796-40.112-15.597c-.28 0 2.461-3.924 7.607-3.545 5.147.38 8.061 7.189 15.907 4.018zm92.415 0s-11.356-2.076-17.495 7.326c-6.033 9.238-20.748 8.271-20.748 8.271l6.224 20.796 40.112-15.597c.28 0-2.46-3.924-7.607-3.545-5.146.38-8.061 7.189-15.907 4.018z" style="fill:#eac102;fill-rule:evenodd;stroke:#000;stroke-width:1.00011086;stroke-linecap:butt;stroke-linejoin:miter;stroke-miterlimit:4;stroke-dasharray:none;stroke-opacity:1"/><path d="M384.544 259.204c-6.9 7.64-13.935 16.23-14.315 27.517-5.533-5.912-11.069-1.778-16.601-.718 2.78 3.835-.08 14.346 3.686 21.514-4.027.325-5.846 3.968-8.294 6.135 1.648 6.287 20.465 7.177 23.74 18.668-20.487-2.095-13.999-17.287-34.579-18.429-3.289 17.374 9.817 13.934 10.839 23.392-6.258 1.203-7.82-5.277-13.272-5.014-7.64.369-10.946 8.934-15.778 11.866 7.448 2.08 10.246 9.35 17.72 11.11 4.04.951 5.941-6.37 12.251-3.073-6.188 8.797-12.362 6.212-9.228 18.668 23.424 2.119 13.85-14.243 29.516-11.816-23.661 14.924-10.661 20.595-16.601 32.146 12.189-5.094 16.573-1.608 31.015-12.218 14.441 10.61 18.826 7.124 31.015 12.218-5.94-11.55 7.06-17.222-16.601-32.146 15.665-2.427 6.092 13.935 29.516 11.816 3.133-12.456-3.04-9.871-9.229-18.668 6.31-3.298 8.212 4.024 12.252 3.073 7.473-1.76 10.271-9.03 17.72-11.11-4.832-2.932-8.139-11.497-15.779-11.866-5.451-.263-7.014 6.217-13.271 5.014 1.021-9.458 14.128-6.018 10.838-23.392-20.58 1.142-14.092 16.334-34.579 18.429 3.276-11.49 22.092-12.38 23.741-18.668-2.449-2.167-4.267-5.81-8.294-6.135 3.765-7.168.906-17.679 3.686-21.514-5.533-1.06-11.069-5.194-16.601.718-.38-11.287-7.415-19.876-14.316-27.517l-.098-.101z" style="fill:#eac102;fill-rule:evenodd;stroke:#000;stroke-width:1.00011086;stroke-linecap:butt;stroke-linejoin:miter;stroke-miterlimit:4;stroke-dasharray:none;stroke-opacity:1"/><path d="M384.801 333.737c-.713-1.316 0-63.595 0-63.595m-3.74 85.883c-1.848 7.468-8.423 19.423-16.135 23.663m8.099-30.369c-6.12.319-17.443 6.628-21.972 9.588m20.902-12.433c-21.632 2.014-30.46-6.941-37.151-4.15m38.047-2.304s-5.312-1.588-11.54-3.334c-4.002-1.122-6.425-6.144-8.98-8.903m29.505 4.602s-.32-4.153-5.167-15.79c-4.697-11.278-10.804-17.293-10.804-17.293m22.36 56.723c1.848 7.468 8.422 19.423 16.135 23.663m-8.1-30.369c6.12.319 17.444 6.628 21.973 9.588m-20.902-12.433c21.631 2.014 30.459-6.941 37.15-4.15m-38.046-2.304s5.311-1.588 11.54-3.334c4.002-1.122 6.425-6.144 8.98-8.903m-29.505 4.602s.32-4.153 5.167-15.79c4.697-11.278 10.803-17.293 10.803-17.293" style="fill:none;fill-rule:evenodd;stroke:#000;stroke-width:1.00011086;stroke-linecap:round;stroke-linejoin:miter;stroke-miterlimit:4;stroke-dasharray:none;stroke-opacity:1"/><circle cx="2962.368" cy="81.517" r="27.554" style="display:inline;overflow:visible;visibility:visible;fill:#eac102;fill-opacity:1;fill-rule:evenodd;stroke:#000;stroke-width:1.9832195;stroke-linecap:round;stroke-linejoin:round;stroke-miterlimit:4;stroke-dasharray:none;stroke-dashoffset:0;stroke-opacity:1;marker:none;marker-start:none;marker-mid:none;marker-end:none" transform="matrix(.51569 0 0 .49314 -1142.681 304.533)"/><circle cx="2962.368" cy="81.517" r="27.554" style="display:inline;overflow:visible;visibility:visible;fill:#e7e7e7;fill-opacity:1;fill-rule:evenodd;stroke:#000;stroke-width:2.49505496;stroke-linecap:round;stroke-linejoin:round;stroke-miterlimit:4;stroke-dasharray:none;stroke-dashoffset:0;stroke-opacity:1;marker:none;marker-start:none;marker-mid:none;marker-end:none" transform="matrix(.40995 0 0 .39193 -829.452 312.784)"/></g><path d="M384.468 410.766c-56.612.565-113.875.617-169.475 11.94-12.407 3.74-30.146 5.827-34.803 19.07-1.528 11.062 12.5 15.75 21.263 18.79 41.745 11.963 85.853 12.976 129.105 14.846 67.29 1.29 135.015 1.812 201.807-7.121 18.247-3.366 38.34-5.443 53.344-16.78 8.96-8.38-.958-20.095-10.862-22.505-33.977-12.447-71.036-13.782-106.972-16.317-27.773-1.447-55.595-1.905-83.407-1.923z" style="fill:#eac102;fill-rule:evenodd;stroke:#000;stroke-width:1.00011086;stroke-linecap:butt;stroke-linejoin:miter;stroke-miterlimit:4;stroke-dasharray:none;stroke-opacity:1"/><path d="M384.643 424.363c-30.857 0-56.88.574-78.813 1.572-4.386.2-8.62.421-12.687.652-48.771 2.767-74.923 7.658-88.938 12.126a90 90 0 0 0-3.28 1.097c-5.012 1.82-8.094 3.565-9.97 4.98-.368.28-.686.547-.968.801a10 10 0 0 0-.75.741c-1.253 1.383-1.22 2.224-1.22 2.224l10.657 36.733h371.938l10.656-36.733s.034-.84-1.219-2.224a10 10 0 0 0-.75-.741c-1.714-1.55-4.922-3.595-10.937-5.781-.01-.003-.023.003-.032 0-13.071-4.745-39.35-10.226-92.187-13.223h-.031c-4.066-.23-8.27-.453-12.657-.652-21.933-.998-47.953-1.572-78.812-1.572z" style="fill:#eac102;fill-opacity:1;fill-rule:evenodd;stroke:#000;stroke-width:1.00011086;stroke-linecap:butt;stroke-linejoin:miter;stroke-miterlimit:4;stroke-dasharray:none;stroke-opacity:1"/><circle cx="1773.282" cy="707.071" r="23.066" style="display:inline;overflow:visible;visibility:visible;fill:#eac102;fill-opacity:1;fill-rule:evenodd;stroke:#000;stroke-width:1.78412724;stroke-linecap:round;stroke-linejoin:round;stroke-miterlimit:4;stroke-dasharray:none;stroke-dashoffset:0;stroke-opacity:1;marker:none;marker-start:none;marker-mid:none;marker-end:none" transform="matrix(.55264 0 0 .5686 -519.955 40.359)"/><circle cx="1773.282" cy="707.071" r="23.066" style="display:inline;overflow:visible;visibility:visible;fill:#eac102;fill-opacity:1;fill-rule:evenodd;stroke:#000;stroke-width:1.80457652;stroke-linecap:round;stroke-linejoin:round;stroke-miterlimit:4;stroke-dasharray:none;stroke-dashoffset:0;stroke-opacity:1;marker:none;marker-start:none;marker-mid:none;marker-end:none" transform="matrix(.54019 0 0 .5686 -496.506 40.359)"/><circle cx="1773.282" cy="707.071" r="23.066" style="display:inline;overflow:visible;visibility:visible;fill:#e7e7e7;fill-opacity:1;fill-rule:evenodd;stroke:#000;stroke-width:2.06287813;stroke-linecap:round;stroke-linejoin:round;stroke-miterlimit:4;stroke-dasharray:none;stroke-dashoffset:0;stroke-opacity:1;marker:none;marker-start:none;marker-mid:none;marker-end:none" transform="matrix(.47792 0 0 .49181 -385.798 94.65)"/><circle cx="1773.282" cy="707.071" r="23.066" style="display:inline;overflow:visible;visibility:visible;fill:#eac102;fill-opacity:1;fill-rule:evenodd;stroke:#000;stroke-width:1.78412724;stroke-linecap:round;stroke-linejoin:round;stroke-miterlimit:4;stroke-dasharray:none;stroke-dashoffset:0;stroke-opacity:1;marker:none;marker-start:none;marker-mid:none;marker-end:none" transform="matrix(-.55264 0 0 .5686 1289.24 40.359)"/><circle cx="1773.282" cy="707.071" r="23.066" style="display:inline;overflow:visible;visibility:visible;fill:#eac102;fill-opacity:1;fill-rule:evenodd;stroke:#000;stroke-width:1.80457652;stroke-linecap:round;stroke-linejoin:round;stroke-miterlimit:4;stroke-dasharray:none;stroke-dashoffset:0;stroke-opacity:1;marker:none;marker-start:none;marker-mid:none;marker-end:none" transform="matrix(-.54019 0 0 .5686 1265.792 40.359)"/><circle cx="1773.282" cy="707.071" r="23.066" style="display:inline;overflow:visible;visibility:visible;fill:#e7e7e7;fill-opacity:1;fill-rule:evenodd;stroke:#000;stroke-width:2.06287813;stroke-linecap:round;stroke-linejoin:round;stroke-miterlimit:4;stroke-dasharray:none;stroke-dashoffset:0;stroke-opacity:1;marker:none;marker-start:none;marker-mid:none;marker-end:none" transform="matrix(-.47792 0 0 .49181 1155.084 94.65)"/><path d="m269.113 443.85-20.415-9.843-1.308.238 19.471 10.014zm0 0-20.415 17.261-1.308.238 19.471-17.09z" style="fill:none;fill-rule:evenodd;stroke:#000;stroke-width:1.00011086;stroke-linecap:round;stroke-linejoin:round;stroke-miterlimit:4;stroke-dasharray:none;stroke-opacity:1"/><path d="m247.36 461.307-18.335-9.826 18.294-17.154" style="display:inline;overflow:visible;visibility:visible;fill:none;fill-opacity:1;fill-rule:evenodd;stroke:#000;stroke-width:1.00011086;stroke-linecap:round;stroke-linejoin:round;stroke-miterlimit:4;stroke-dasharray:none;stroke-dashoffset:0;stroke-opacity:1;marker:none;marker-start:none;marker-mid:none;marker-end:none"/><path d="m261.8 445.317-14.648 13.156-14.435-7.94 14.506-12.922z" style="fill:#008f4c;fill-rule:evenodd;stroke:#000;stroke-width:1.00011086;stroke-linecap:round;stroke-linejoin:round;stroke-miterlimit:4;stroke-dasharray:none;stroke-opacity:1"/><path d="m251.95 447.14-7.75 6.935-7.635-4.176 7.674-6.811zm-4.727 11.25-3.037-4.312m-11.255-3.584 3.663-.614m15.346-2.77 9.575-1.74m-17.311-2.224 3.019-5.535m252.949 6.239 20.416-9.843 1.307.238-19.47 10.014zm0 0 20.416 17.261 1.307.238-19.47-17.09z" style="fill:none;fill-rule:evenodd;stroke:#000;stroke-width:1.00011086;stroke-linecap:round;stroke-linejoin:round;stroke-miterlimit:4;stroke-dasharray:none;stroke-opacity:1"/><path d="m521.925 461.307 18.335-9.826-18.293-17.154" style="display:inline;overflow:visible;visibility:visible;fill:none;fill-opacity:1;fill-rule:evenodd;stroke:#000;stroke-width:1.00011086;stroke-linecap:round;stroke-linejoin:round;stroke-miterlimit:4;stroke-dasharray:none;stroke-dashoffset:0;stroke-opacity:1;marker:none;marker-start:none;marker-mid:none;marker-end:none"/><path d="m507.485 445.317 14.649 13.156 14.434-7.94-14.506-12.922z" style="fill:#008f4c;fill-rule:evenodd;stroke:#000;stroke-width:1.00011086;stroke-linecap:round;stroke-linejoin:round;stroke-miterlimit:4;stroke-dasharray:none;stroke-opacity:1"/><path d="m517.336 447.14 7.749 6.935 7.635-4.176-7.673-6.811zm4.726 11.25 3.037-4.312m11.255-3.584-3.662-.614m-15.346-2.77-9.575-1.74m17.31-2.224-3.019-5.535" style="fill:none;fill-rule:evenodd;stroke:#000;stroke-width:1.00011086;stroke-linecap:round;stroke-linejoin:round;stroke-miterlimit:4;stroke-dasharray:none;stroke-opacity:1"/><rect width="52.713" height="26.65" x="358.286" y="427.559" rx="13.479" ry="13.325" style="display:inline;overflow:visible;visibility:visible;fill:#eac102;fill-opacity:1;fill-rule:nonzero;stroke:#000;stroke-width:1.00011086;stroke-linecap:butt;stroke-linejoin:miter;stroke-miterlimit:4;stroke-dasharray:none;stroke-dashoffset:0;stroke-opacity:1;marker:none;marker-start:none;marker-mid:none;marker-end:none"/><rect width="47.431" height="23.013" x="360.927" y="429.377" rx="12.129" ry="11.507" style="display:inline;overflow:visible;visibility:visible;fill:#ed1c24;fill-opacity:1;fill-rule:nonzero;stroke:#000;stroke-width:1.00011086;stroke-linecap:butt;stroke-linejoin:miter;stroke-miterlimit:4;stroke-dasharray:none;stroke-dashoffset:0;stroke-opacity:1;marker:none;marker-start:none;marker-mid:none;marker-end:none"/><path d="m186.99 421.327-2.7 5.662a44 44 0 0 0 2.054 1.932l1.787-6.72c-.297-.397-.748-.938-1.141-.874zm395.36-.018c-.489.008-.514.023-1.349 1.058l2.09 6.438c.541-.467 1.088-.99 1.618-1.532z" style="fill:#eac102;fill-opacity:1;fill-rule:evenodd;stroke:#000;stroke-width:1.00011086;stroke-linecap:butt;stroke-linejoin:miter;stroke-miterlimit:4;stroke-dasharray:none;stroke-opacity:0"/><g style="stroke-width:2.18159795;stroke-miterlimit:4;stroke-dasharray:none"><path d="M2069.063 730.688c.223.008.43.093.656.093 12.758 0 23.094-12.766 23.094-28.5s-10.336-28.5-23.094-28.5c-.226 0-.433.086-.656.094z" style="display:inline;overflow:visible;visibility:visible;opacity:1;fill:#ed1c24;fill-opacity:1;fill-rule:nonzero;stroke:#000;stroke-width:2.18159795;stroke-linecap:butt;stroke-linejoin:miter;stroke-miterlimit:4;stroke-dasharray:none;stroke-dashoffset:0;stroke-opacity:1;marker:none;marker-start:none;marker-mid:none;marker-end:none" transform="matrix(-.44839 .13572 .14305 .4254 1021.248 -112.997)"/><path d="M2066.286 668.732h6.95v66.529h-6.95c-2.458-25.69-2.862-50.125 0-66.53z" style="display:inline;overflow:visible;visibility:visible;fill:#eac102;fill-opacity:1;fill-rule:nonzero;stroke:#000;stroke-width:2.18159795;stroke-linecap:butt;stroke-linejoin:miter;stroke-miterlimit:4;stroke-dasharray:none;stroke-dashoffset:0;stroke-opacity:1;marker:none;marker-start:none;marker-mid:none;marker-end:none" transform="matrix(-.44839 .13572 .14305 .4254 1021.248 -112.997)"/></g><g style="stroke-width:2.18159842;stroke-miterlimit:4;stroke-dasharray:none" transform="matrix(-.45462 .11557 .12181 .4313 1048.54 -82.307)"><path d="M2030.156 670.594c-6.01 1.755-10.687 15.383-10.687 31.906 0 16.522 4.678 30.119 10.687 31.875l.25.063c.352.083.703.125 1.063.125l10.843-.024v-18.352c.739-4.16 1.157-8.779 1.157-13.687s-.418-9.558-1.157-13.719v-18.178z" style="display:inline;overflow:visible;visibility:visible;opacity:1;fill:#eac102;fill-opacity:1;fill-rule:evenodd;stroke:#000;stroke-width:2.18159842;stroke-linecap:round;stroke-linejoin:round;stroke-miterlimit:4;stroke-dasharray:none;stroke-dashoffset:0;stroke-opacity:1;marker:none;marker-start:none;marker-mid:none;marker-end:none"/><ellipse cx="2042.31" cy="702.486" rx="6.069" ry="32.089" style="display:inline;overflow:visible;visibility:visible;opacity:1;fill:#eac102;fill-opacity:1;fill-rule:evenodd;stroke:#000;stroke-width:1.55549061;stroke-linecap:round;stroke-linejoin:round;stroke-miterlimit:4;stroke-dasharray:none;stroke-dashoffset:0;stroke-opacity:1;marker:none;marker-start:none;marker-mid:none;marker-end:none" transform="matrix(1.97872 0 0 .9941 -1999.373 4.335)"/><path d="M2042.955 674.4c25.153 7.781 23.558 49.664 0 57.98-16.346-3.472-14.067-57.719 0-57.98" style="display:inline;overflow:visible;visibility:visible;fill:#e7e7e7;fill-opacity:1;fill-rule:evenodd;stroke:#000;stroke-width:2.18159842;stroke-linecap:round;stroke-linejoin:round;stroke-miterlimit:4;stroke-dasharray:none;stroke-dashoffset:0;stroke-opacity:1;marker:none;marker-start:none;marker-mid:none;marker-end:none"/></g><g style="stroke-width:2.18159795;stroke-miterlimit:4;stroke-dasharray:none"><path d="M2069.063 730.688c.223.008.43.093.656.093 12.758 0 23.094-12.766 23.094-28.5s-10.336-28.5-23.094-28.5c-.226 0-.433.086-.656.094z" style="display:inline;overflow:visible;visibility:visible;opacity:1;fill:#ed1c24;fill-opacity:1;fill-rule:nonzero;stroke:#000;stroke-width:2.18159795;stroke-linecap:butt;stroke-linejoin:miter;stroke-miterlimit:4;stroke-dasharray:none;stroke-dashoffset:0;stroke-opacity:1;marker:none;marker-start:none;marker-mid:none;marker-end:none" transform="matrix(.44839 .13572 -.14305 .4254 -251.963 -112.997)"/><path d="M2066.286 668.732h6.95v66.529h-6.95c-2.458-25.69-2.862-50.125 0-66.53z" style="display:inline;overflow:visible;visibility:visible;fill:#eac102;fill-opacity:1;fill-rule:nonzero;stroke:#000;stroke-width:2.18159795;stroke-linecap:butt;stroke-linejoin:miter;stroke-miterlimit:4;stroke-dasharray:none;stroke-dashoffset:0;stroke-opacity:1;marker:none;marker-start:none;marker-mid:none;marker-end:none" transform="matrix(.44839 .13572 -.14305 .4254 -251.963 -112.997)"/></g><g style="stroke-width:2.18159842;stroke-miterlimit:4;stroke-dasharray:none" transform="matrix(.45462 .11557 -.12181 .4313 -279.255 -82.307)"><path d="M2030.156 670.594c-6.01 1.755-10.687 15.383-10.687 31.906 0 16.522 4.678 30.119 10.687 31.875l.25.063c.352.083.703.125 1.063.125l10.843-.024v-18.352c.739-4.16 1.157-8.779 1.157-13.687s-.418-9.558-1.157-13.719v-18.178z" style="display:inline;overflow:visible;visibility:visible;opacity:1;fill:#eac102;fill-opacity:1;fill-rule:evenodd;stroke:#000;stroke-width:2.18159842;stroke-linecap:round;stroke-linejoin:round;stroke-miterlimit:4;stroke-dasharray:none;stroke-dashoffset:0;stroke-opacity:1;marker:none;marker-start:none;marker-mid:none;marker-end:none"/><ellipse cx="2042.31" cy="702.486" rx="6.069" ry="32.089" style="display:inline;overflow:visible;visibility:visible;opacity:1;fill:#eac102;fill-opacity:1;fill-rule:evenodd;stroke:#000;stroke-width:1.55549061;stroke-linecap:round;stroke-linejoin:round;stroke-miterlimit:4;stroke-dasharray:none;stroke-dashoffset:0;stroke-opacity:1;marker:none;marker-start:none;marker-mid:none;marker-end:none" transform="matrix(1.97872 0 0 .9941 -1999.373 4.335)"/><path d="M2042.955 674.4c25.153 7.781 23.558 49.664 0 57.98-16.346-3.472-14.067-57.719 0-57.98" style="display:inline;overflow:visible;visibility:visible;fill:#e7e7e7;fill-opacity:1;fill-rule:evenodd;stroke:#000;stroke-width:2.18159842;stroke-linecap:round;stroke-linejoin:round;stroke-miterlimit:4;stroke-dasharray:none;stroke-dashoffset:0;stroke-opacity:1;marker:none;marker-start:none;marker-mid:none;marker-end:none"/></g><path d="M213.118 486.903s37.062-17.868 171.525-17.868c134.017 0 171.524 17.868 171.524 17.868s-31.347 17.868-171.524 17.868c-140.623 0-171.525-17.868-171.525-17.868z" style="fill:#eac102;fill-rule:evenodd;stroke:#000;stroke-width:1.00011086;stroke-linecap:butt;stroke-linejoin:miter;stroke-miterlimit:4;stroke-dasharray:none;stroke-opacity:1"/><path d="M340.985 507.624v-41.34m-7.882 41.34v-41.34m-7.44 41.34v-41.34m-7.376 41.34v-41.34m-6.573 41.34v-41.34m-12.534 39.111-.174-37.627m6.116 38.122v-39.358m-17.515 37.171v-34.667m5.864 35.657-.174-36.893m-21.215 33.923v-30.458m5.094 30.953v-31.943m5.248 32.933v-33.182m-15.784 31.448V472.01m-5.074 27.98v-27.486m-5.441 26.741V473.74m-11.141 23.28-.174-20.307m5.883 21.296v-22.78m-11.418 20.056v-17.831m-5.229 16.386v-14.85m-5.709 12.87v-11.63m-5.867 10.64v-8.66m-6.212 6.682v-4.209m156.086 20.712v-37.873m-13.353 39.112.173-40.102m-9.905 40.597v-40.846m79.041 41.341v-41.34m7.882 41.34v-41.34m7.44 41.34v-41.34m7.376 41.34v-41.34m6.572 41.34v-41.34m12.535 39.111.174-37.627m-6.116 38.122v-39.358m17.515 37.171v-34.667m-5.863 35.657.173-36.893m21.215 33.923v-30.458m-5.094 30.953v-31.943m-5.248 32.933v-33.182m15.784 31.448V472.01m5.075 27.98v-27.486m5.44 26.741V473.74m11.141 23.28.174-20.307m-5.883 21.296v-22.78m11.418 20.056v-17.831m5.229 16.386v-14.85m5.709 12.87v-11.63m5.868 10.64v-8.66m6.211 6.682v-4.209m-156.086 20.712v-37.873m13.353 39.112-.173-40.102m9.905 40.597v-40.846" style="font-size:12px;fill:none;stroke:#000;stroke-width:1.00011086;stroke-miterlimit:4;stroke-dasharray:none"/><path d="M384.49 456.77c-52.176.52-104.945.575-156.185 11.01-11.435 3.446-27.792 5.365-32.084 17.57-1.408 10.194 11.508 14.521 19.584 17.323 38.472 11.026 79.141 11.965 119.003 13.689 62.016 1.188 124.409 1.648 185.965-6.585 16.816-3.101 35.333-5.016 49.162-15.465 8.257-7.722-.866-18.518-9.994-20.739-31.314-11.47-65.465-12.692-98.584-15.028-25.596-1.333-51.236-1.759-76.868-1.776zm.143 12.268c134.018 0 171.535 17.87 171.535 17.87s-31.358 17.869-171.535 17.869c-140.623 0-171.506-17.87-171.506-17.87s37.043-17.87 171.506-17.87z" style="fill:#eac102;fill-rule:evenodd;stroke:#000;stroke-width:1.00011086;stroke-linecap:butt;stroke-linejoin:miter;stroke-miterlimit:4;stroke-dasharray:none;stroke-opacity:1"/><g style="stroke-width:1.00011086;stroke-miterlimit:4;stroke-dasharray:none"><circle cx="216.095" cy="38.547" r="15.161" style="display:inline;overflow:visible;visibility:visible;fill:#e7e7e7;fill-opacity:1;fill-rule:evenodd;stroke:#000;stroke-width:.81836504;stroke-linecap:round;stroke-linejoin:miter;stroke-miterlimit:4;stroke-dasharray:none;stroke-dashoffset:0;stroke-opacity:1;marker:none;marker-start:none;marker-mid:none;marker-end:none" transform="matrix(1.22024 -.0671 .0671 1.22024 -58.954 323.525)"/><circle cx="216.095" cy="38.547" r="15.161" style="display:inline;overflow:visible;visibility:visible;fill:#e7e7e7;fill-opacity:1;fill-rule:evenodd;stroke:#000;stroke-width:.77744687;stroke-linecap:round;stroke-linejoin:miter;stroke-miterlimit:4;stroke-dasharray:none;stroke-dashoffset:0;stroke-opacity:1;marker:none;marker-start:none;marker-mid:none;marker-end:none" transform="rotate(-3.148 5206.902 1339.985)scale(1.2864)"/><circle cx="216.095" cy="38.547" r="15.161" style="display:inline;overflow:visible;visibility:visible;fill:#e7e7e7;fill-opacity:1;fill-rule:evenodd;stroke:#000;stroke-width:.75848472;stroke-linecap:round;stroke-linejoin:miter;stroke-miterlimit:4;stroke-dasharray:none;stroke-dashoffset:0;stroke-opacity:1;marker:none;marker-start:none;marker-mid:none;marker-end:none" transform="rotate(-3.148 5706.923 1005.463)scale(1.31857)"/></g><g style="stroke-width:1.00011086;stroke-miterlimit:4;stroke-dasharray:none"><circle cx="216.095" cy="38.547" r="15.161" style="display:inline;overflow:visible;visibility:visible;fill:#e7e7e7;fill-opacity:1;fill-rule:evenodd;stroke:#000;stroke-width:.8183651;stroke-linecap:round;stroke-linejoin:miter;stroke-miterlimit:4;stroke-dasharray:none;stroke-dashoffset:0;stroke-opacity:1;marker:none;marker-start:none;marker-mid:none;marker-end:none" transform="matrix(-1.22024 -.0671 -.0671 1.22024 828.24 323.525)"/><circle cx="216.095" cy="38.547" r="15.161" style="display:inline;overflow:visible;visibility:visible;fill:#e7e7e7;fill-opacity:1;fill-rule:evenodd;stroke:#000;stroke-width:.77744681;stroke-linecap:round;stroke-linejoin:miter;stroke-miterlimit:4;stroke-dasharray:none;stroke-dashoffset:0;stroke-opacity:1;marker:none;marker-start:none;marker-mid:none;marker-end:none" transform="scale(-1.2864 1.2864)rotate(-3.148 3748.648 11924.374)"/><circle cx="216.095" cy="38.547" r="15.161" style="display:inline;overflow:visible;visibility:visible;fill:#e7e7e7;fill-opacity:1;fill-rule:evenodd;stroke:#000;stroke-width:.75848472;stroke-linecap:round;stroke-linejoin:miter;stroke-miterlimit:4;stroke-dasharray:none;stroke-dashoffset:0;stroke-opacity:1;marker:none;marker-start:none;marker-mid:none;marker-end:none" transform="matrix(-1.31658 -.0724 -.0724 1.31658 815.88 314.873)"/></g></g></g><g style="display:inline"><path d="m2.121 673.586 299.293-299.293 299.293 299.293-299.293 299.293Z" style="display:inline;overflow:visible;visibility:visible;fill:#eac102;fill-opacity:1;fill-rule:evenodd;stroke:#000;stroke-width:1;stroke-linecap:butt;stroke-linejoin:miter;stroke-miterlimit:4;stroke-dasharray:none;stroke-dashoffset:0;stroke-opacity:1;marker:none" transform="translate(0 -140.896)"/><g style="display:inline"><path d="m268.137 407.57-66.557 66.557v398.918l66.557 66.557zm66.554 0v532.032l66.557-66.557V474.127zM135.025 540.682 68.47 607.238v132.696l66.556 66.556zm332.778 0V806.49l66.556-66.556V607.238z" style="display:inline;fill:#ed1c24;fill-opacity:1;stroke:#000;stroke-width:1;stroke-miterlimit:4;stroke-dasharray:none" transform="translate(0 -140.896)"/><g style="display:inline;fill:#e7e7e7;fill-opacity:1;stroke:none;stroke-width:1.11389589;stroke-miterlimit:10;stroke-dasharray:none"><path d="M-45.73 734.204c-1.623.005-2.821.534-3.41 1.71-16.069 16.122-32.192 37.614-35.54 43.009-7.075 11.398-10.569 16.89-11.624 19.079l.086.039c-.859 1.977-1.395 4.157-1.41 6.424-.038 5.868 6.085 13.246 8.014 16.297 2.687 4.255 7.571 18.731 14.773 37.933 8.005 21.338 15.093 32.349 16.844 45.327.728 5.395-9.749 26.108-15.723 30.91-7.435 5.977-11.999 6.12-9.896 11.118 1.581 3.758 7.717 1.837 10.784-1 2.675 1.222 6.488 1.885 11.469-2.09 5.32-4.244 10.3-9.03 13.878-13.858 9.68-1.968 16.973-5.755 19.402-14.086 2.175-7.461-6.982-14.075-9.518-18.608-6.481-11.588-1.723-42.868-4.83-52.826-1.429-15-15.456-28.578-17.089-29.893l-.353-.414-.518-1.967c.24-.665.879-1.129 1.305-1.379 5.387-3.159 10.456-7.489 15.09-10.916 3.855-2.851 28.463-26.474 31.812-29.393 10.065-9.768-22.176-35.448-33.545-35.416z" style="fill:#e7e7e7;fill-opacity:1;stroke:#000;stroke-width:.61373842;stroke-miterlimit:10;stroke-dasharray:none" transform="matrix(1.50532 .62463 -.62508 1.50424 909.735 -695.294)"/></g><path stroke-miterlimit="10" d="M120.967 630.416c8.026-10.367-6.743-8.942-5.501-18.82" style="fill:none;stroke:#000;stroke-width:1.11389589;stroke-linecap:round;stroke-linejoin:round;stroke-miterlimit:10;stroke-dasharray:none;stroke-opacity:1" transform="rotate(8.601 -364.57 1749.466)scale(.89775)"/></g></g><g style="display:inline"><path d="m2.121 673.586 299.293-299.293 299.293 299.293-299.293 299.293Z" style="display:inline;overflow:visible;visibility:visible;fill:none;stroke:#000;stroke-width:3;stroke-linecap:butt;stroke-linejoin:miter;stroke-miterlimit:4;stroke-dasharray:none;stroke-dashoffset:0;stroke-opacity:1;marker:none" transform="translate(0 -140.896)"/></g></svg>