<svg xmlns="http://www.w3.org/2000/svg" xmlns:xlink="http://www.w3.org/1999/xlink" version="1.0" viewBox="0 0 602 759.113"><g style="fill:#f54029;stroke:#000;stroke-width:3;stroke-miterlimit:4;stroke-opacity:1;stroke-dasharray:none;display:inline"><path d="M-493.561 458.912h423.557v423.557h-423.557z" style="fill:#ff1e00;fill-opacity:1;fill-rule:evenodd;stroke:#000;stroke-width:3;stroke-linecap:butt;stroke-linejoin:miter;stroke-miterlimit:4;stroke-opacity:1;stroke-dasharray:none;stroke-dashoffset:0;marker:none;visibility:visible;display:inline;overflow:visible" transform="rotate(-45 -246.995 -139.079)"/></g><g style="fill:#ffdc14;stroke:#000;stroke-width:1.29789436;stroke-miterlimit:4;stroke-opacity:1;stroke-dasharray:none"><g style="fill:#ffdc14;fill-opacity:1;stroke:#000;stroke-width:1.29789436;stroke-miterlimit:4;stroke-opacity:1;stroke-dasharray:none"><path d="m272.406 565.177-8.687 9.906-8.719 9.938h5v59.948h-.031v139.968H505.03V644.97H505v-59.95h4.812l-8.688-9.938-8.719-9.906-8.687 9.906-8.719 9.938h5v59.948h-30V585.02h4.813l-8.688-9.938-8.719-9.906-8.687 9.906-8.719 9.938h5v59.948h-30V585.02h5l-8.719-9.938-8.687-9.906-8.719 9.906-8.687 9.938H370v59.948h-30V585.02h4.813l-8.688-9.938-8.719-9.906-8.687 9.906L310 585.02h5v59.948h-30V585.02h4.813l-8.688-9.938z" style="fill:#ffdc14;fill-opacity:1;stroke:#000;stroke-width:1.29789436;stroke-linecap:round;stroke-linejoin:miter;stroke-miterlimit:4;stroke-opacity:1;stroke-dasharray:none" transform="translate(-141.603 -329.108)scale(1.15572)"/></g><g style="fill:#ffdc14;stroke:#000;stroke-width:1.29789436;stroke-miterlimit:4;stroke-opacity:1;stroke-dasharray:none"><g style="fill:#ffdc14;stroke:#000;stroke-width:1.29789436;stroke-miterlimit:4;stroke-opacity:1;stroke-dasharray:none"><path d="M180 645h45v20h-45zm45.027.027h50.058v19.947h-50.058z" style="fill:#ffdc14;stroke:#000;stroke-width:1.29789436;stroke-linecap:round;stroke-linejoin:miter;stroke-miterlimit:4;stroke-opacity:1;stroke-dasharray:none" transform="translate(-49.078 -329.139)scale(1.15572)"/><path d="M274.916 645.027h50.058v19.947h-50.058z" style="fill:#ffdc14;stroke:#000;stroke-width:1.29789436;stroke-linecap:round;stroke-linejoin:miter;stroke-miterlimit:4;stroke-opacity:1;stroke-dasharray:none" transform="translate(-49.078 -329.139)scale(1.15572)"/><path d="M324.916 645.027h50.058v19.947h-50.058z" style="fill:#ffdc14;stroke:#000;stroke-width:1.29789436;stroke-linecap:round;stroke-linejoin:miter;stroke-miterlimit:4;stroke-opacity:1;stroke-dasharray:none" transform="translate(-49.078 -329.139)scale(1.15572)"/><path d="M374.916 645.027h50.058v19.947h-50.058zM180 665h25v20h-25z" style="fill:#ffdc14;stroke:#000;stroke-width:1.29789436;stroke-linecap:round;stroke-linejoin:miter;stroke-miterlimit:4;stroke-opacity:1;stroke-dasharray:none" transform="translate(-49.078 -329.139)scale(1.15572)"/><path d="M205 665.053h50.058V685H205z" style="fill:#ffdc14;stroke:#000;stroke-width:1.29789436;stroke-linecap:round;stroke-linejoin:miter;stroke-miterlimit:4;stroke-opacity:1;stroke-dasharray:none;display:inline" transform="translate(-49.078 -329.139)scale(1.15572)"/><path d="M255 665h50.058v19.947H255z" style="fill:#ffdc14;stroke:#000;stroke-width:1.29789436;stroke-linecap:round;stroke-linejoin:miter;stroke-miterlimit:4;stroke-opacity:1;stroke-dasharray:none;display:inline" transform="translate(-49.078 -329.139)scale(1.15572)"/><path d="M305 665h50.058v19.947H305z" style="fill:#ffdc14;stroke:#000;stroke-width:1.29789436;stroke-linecap:round;stroke-linejoin:miter;stroke-miterlimit:4;stroke-opacity:1;stroke-dasharray:none;display:inline" transform="translate(-49.078 -329.139)scale(1.15572)"/><path d="M354.942 665H405v19.947h-50.058z" style="fill:#ffdc14;stroke:#000;stroke-width:1.29789436;stroke-linecap:round;stroke-linejoin:miter;stroke-miterlimit:4;stroke-opacity:1;stroke-dasharray:none;display:inline" transform="translate(-49.078 -329.139)scale(1.15572)"/><path d="M405 665h20v20h-20z" style="fill:#ffdc14;stroke:#000;stroke-width:1.29789436;stroke-linecap:round;stroke-linejoin:miter;stroke-miterlimit:4;stroke-opacity:1;stroke-dasharray:none" transform="translate(-49.078 -329.139)scale(1.15572)"/><path d="M180 685h50.058v19.947H180z" style="fill:#ffdc14;stroke:#000;stroke-width:1.29789436;stroke-linecap:round;stroke-linejoin:miter;stroke-miterlimit:4;stroke-opacity:1;stroke-dasharray:none;display:inline" transform="translate(-49.078 -329.139)scale(1.15572)"/><path d="M230 685.053h50.058V705H230z" style="fill:#ffdc14;stroke:#000;stroke-width:1.29789436;stroke-linecap:round;stroke-linejoin:miter;stroke-miterlimit:4;stroke-opacity:1;stroke-dasharray:none;display:inline" transform="translate(-49.078 -329.139)scale(1.15572)"/><path d="M279.942 685H330v19.947h-50.058z" style="fill:#ffdc14;stroke:#000;stroke-width:1.29789436;stroke-linecap:round;stroke-linejoin:miter;stroke-miterlimit:4;stroke-opacity:1;stroke-dasharray:none;display:inline" transform="translate(-49.078 -329.139)scale(1.15572)"/><path d="M329.942 685H380v19.947h-50.058zm50.137-.027h44.947v20.001h-44.947z" style="fill:#ffdc14;stroke:#000;stroke-width:1.29789436;stroke-linecap:round;stroke-linejoin:miter;stroke-miterlimit:4;stroke-opacity:1;stroke-dasharray:none;display:inline" transform="translate(-49.078 -329.139)scale(1.15572)"/><path d="M180 705h25v20h-25z" style="fill:#ffdc14;stroke:#000;stroke-width:1.29789436;stroke-linecap:round;stroke-linejoin:miter;stroke-miterlimit:4;stroke-opacity:1;stroke-dasharray:none" transform="translate(-49.078 -329.139)scale(1.15572)"/><path d="M204.942 705.053H255V725h-50.058z" style="fill:#ffdc14;stroke:#000;stroke-width:1.29789436;stroke-linecap:round;stroke-linejoin:miter;stroke-miterlimit:4;stroke-opacity:1;stroke-dasharray:none;display:inline" transform="translate(-49.078 -329.139)scale(1.15572)"/><path d="M254.942 705H305v19.947h-50.058z" style="fill:#ffdc14;stroke:#000;stroke-width:1.29789436;stroke-linecap:round;stroke-linejoin:miter;stroke-miterlimit:4;stroke-opacity:1;stroke-dasharray:none;display:inline" transform="translate(-49.078 -329.139)scale(1.15572)"/><path d="M304.942 705.053H355V725h-50.058z" style="fill:#ffdc14;stroke:#000;stroke-width:1.29789436;stroke-linecap:round;stroke-linejoin:miter;stroke-miterlimit:4;stroke-opacity:1;stroke-dasharray:none;display:inline" transform="translate(-49.078 -329.139)scale(1.15572)"/><path d="M354.942 705H405v19.947h-50.058z" style="fill:#ffdc14;stroke:#000;stroke-width:1.29789436;stroke-linecap:round;stroke-linejoin:miter;stroke-miterlimit:4;stroke-opacity:1;stroke-dasharray:none;display:inline" transform="translate(-49.078 -329.139)scale(1.15572)"/><path d="M405 705h20v20h-20z" style="fill:#ffdc14;stroke:#000;stroke-width:1.29789436;stroke-linecap:round;stroke-linejoin:miter;stroke-miterlimit:4;stroke-opacity:1;stroke-dasharray:none" transform="translate(-49.078 -329.139)scale(1.15572)"/><path d="M179.942 725H230v19.947h-50.058z" style="fill:#ffdc14;stroke:#000;stroke-width:1.29789436;stroke-linecap:round;stroke-linejoin:miter;stroke-miterlimit:4;stroke-opacity:1;stroke-dasharray:none;display:inline" transform="translate(-49.078 -329.139)scale(1.15572)"/><path d="M229.942 725.053H280V745h-50.058z" style="fill:#ffdc14;stroke:#000;stroke-width:1.29789436;stroke-linecap:round;stroke-linejoin:miter;stroke-miterlimit:4;stroke-opacity:1;stroke-dasharray:none;display:inline" transform="translate(-49.078 -329.139)scale(1.15572)"/><path d="M279.942 725.053H330V745h-50.058z" style="fill:#ffdc14;stroke:#000;stroke-width:1.29789436;stroke-linecap:round;stroke-linejoin:miter;stroke-miterlimit:4;stroke-opacity:1;stroke-dasharray:none;display:inline" transform="translate(-49.078 -329.139)scale(1.15572)"/><path d="M329.942 725H380v19.947h-50.058zm50.137-.027h45.006v20h-45.006z" style="fill:#ffdc14;stroke:#000;stroke-width:1.29789436;stroke-linecap:round;stroke-linejoin:miter;stroke-miterlimit:4;stroke-opacity:1;stroke-dasharray:none;display:inline" transform="translate(-49.078 -329.139)scale(1.15572)"/><path d="M180 745h25v20h-25z" style="fill:#ffdc14;stroke:#000;stroke-width:1.29789436;stroke-linecap:round;stroke-linejoin:miter;stroke-miterlimit:4;stroke-opacity:1;stroke-dasharray:none" transform="translate(-49.078 -329.139)scale(1.15572)"/><path d="M204.942 745.053H255V765h-50.058z" style="fill:#ffdc14;stroke:#000;stroke-width:1.29789436;stroke-linecap:round;stroke-linejoin:miter;stroke-miterlimit:4;stroke-opacity:1;stroke-dasharray:none;display:inline" transform="translate(-49.078 -329.139)scale(1.15572)"/><path d="M254.942 745H305v19.947h-50.058zM305 745h50.058v19.947H305z" style="fill:#ffdc14;stroke:#000;stroke-width:1.29789436;stroke-linecap:round;stroke-linejoin:miter;stroke-miterlimit:4;stroke-opacity:1;stroke-dasharray:none;display:inline" transform="translate(-49.078 -329.139)scale(1.15572)"/><path d="M354.942 745H405v19.947h-50.058z" style="fill:#ffdc14;stroke:#000;stroke-width:1.29789436;stroke-linecap:round;stroke-linejoin:miter;stroke-miterlimit:4;stroke-opacity:1;stroke-dasharray:none;display:inline" transform="translate(-49.078 -329.139)scale(1.15572)"/><path d="M405 745h20v20h-20z" style="fill:#ffdc14;stroke:#000;stroke-width:1.29789436;stroke-linecap:round;stroke-linejoin:miter;stroke-miterlimit:4;stroke-opacity:1;stroke-dasharray:none" transform="translate(-49.078 -329.139)scale(1.15572)"/><path d="M179.942 765.053H230V785h-50.058zm50.058 0h50.058V785H230z" style="fill:#ffdc14;stroke:#000;stroke-width:1.29789436;stroke-linecap:round;stroke-linejoin:miter;stroke-miterlimit:4;stroke-opacity:1;stroke-dasharray:none;display:inline" transform="translate(-49.078 -329.139)scale(1.15572)"/><path d="M279.942 765.053H330V785h-50.058zm50.058 0h50.058V785H330zm50.079-.026h45.006v20h-45.006z" style="fill:#ffdc14;stroke:#000;stroke-width:1.29789436;stroke-linecap:round;stroke-linejoin:miter;stroke-miterlimit:4;stroke-opacity:1;stroke-dasharray:none;display:inline" transform="translate(-49.078 -329.139)scale(1.15572)"/></g><path d="M180 625h25v20h-25z" style="fill:#ffdc14;stroke:#000;stroke-width:1.29789436;stroke-linecap:round;stroke-linejoin:miter;stroke-miterlimit:4;stroke-opacity:1;stroke-dasharray:none" transform="translate(-49.078 -329.139)scale(1.15572)"/><path d="M180 605h25v20h-25zm0-20h25v20h-25zm55 40h25v20h-25zm0-20h25v20h-25zm0-20h25v20h-25zm54.898 39.912h25v20h-25zm0-20h25v20h-25zm0-20h25v20h-25zm55.133 40h25v20h-25zm0-20h25v20h-25zm0-20h25v20h-25zm55 40.057h25v20h-25zm0-20h25v20h-25zm0-20h25v20h-25z" style="fill:#ffdc14;stroke:#000;stroke-width:1.29789436;stroke-linecap:round;stroke-linejoin:miter;stroke-miterlimit:4;stroke-opacity:1;stroke-dasharray:none;display:inline" transform="translate(-49.078 -329.139)scale(1.15572)"/></g></g><g transform="translate(-174.618 -198.925)"><path d="M634.679 320.058c-43.238-44.928-120.85-33.377-168.237-31.643-65.372 28.432-149.209-18.975-153.62 32.432 153.351 9.636 192.4 10.267 321.857-.79z" style="fill:#ffdc14;stroke:#000;stroke-width:.92552745;stroke-miterlimit:4;stroke-opacity:1;stroke-dasharray:none;display:inline"/><g style="fill:none;stroke-width:1.174649;stroke-miterlimit:4;stroke-dasharray:none"><g style="fill:none"><path d="M210.606 209.915v-40.133" style="font-size:12px;fill:none;stroke:#000;stroke-width:.74587703;stroke-miterlimit:4;stroke-dasharray:none" transform="matrix(.82368 0 0 .63415 266.127 196.669)"/><path d="M189.38 208.372v-37.047" style="font-size:12px;fill:none;stroke:#000;stroke-width:1.31907177" transform="matrix(.82368 0 0 .63415 266.127 196.669)"/><path d="M172.15 208.152v-36.607" style="font-size:12px;fill:none;stroke:#000;stroke-width:1.98789394" transform="matrix(.82368 0 0 .63415 266.127 196.669)"/><path d="M156.753 206.521v-33.345" style="font-size:12px;fill:none;stroke:#000;stroke-width:2.32230806" transform="matrix(.82368 0 0 .63415 266.127 196.669)"/><path d="M143.428 204.919v-30.14" style="font-size:12px;fill:none;stroke:#000;stroke-width:2.63814354" transform="matrix(.82368 0 0 .63415 266.127 196.669)"/><path d="M131.282 203.945v-28.194" style="font-size:12px;fill:none;stroke:#000;stroke-width:2.97255707" transform="matrix(.82368 0 0 .63415 266.127 196.669)"/><path d="M118.47 202.128v-24.56" style="font-size:12px;fill:none;stroke:#000;stroke-width:3.3069706" transform="matrix(.82368 0 0 .63415 266.127 196.669)"/><path d="M107.049 200.279v-20.861" style="font-size:12px;fill:none;stroke:#000;stroke-width:3.64137936" transform="matrix(.82368 0 0 .63415 266.127 196.669)"/><path d="M97.011 198.87v-18.044" style="font-size:12px;fill:none;stroke:#000;stroke-width:3.97579312" transform="matrix(.82368 0 0 .63415 266.127 196.669)"/><path d="m82.02 195.608-.202-11.366m6.85 12.554V182.9" style="font-size:12px;fill:none;stroke:#000;stroke-width:4.29162884" transform="matrix(.82368 0 0 .63415 266.127 196.669)"/><path d="M75.007 194.02v-8.343" style="font-size:12px;fill:none;stroke:#000;stroke-width:4.86755943" transform="matrix(.82368 0 0 .63415 266.127 196.669)"/><path d="M67.585 192.62v-5.544" style="font-size:12px;fill:none;stroke:#000;stroke-width:5.49925089" transform="matrix(.82368 0 0 .63415 266.127 196.669)"/><path d="m234.994 210.934.202-42.172" style="font-size:12px;fill:none;stroke:#000;stroke-width:.38579848;stroke-miterlimit:4;stroke-dasharray:none" transform="matrix(.82368 0 0 .63415 266.127 196.669)"/></g><g style="fill:none"><path d="M210.606 209.915v-40.133" style="font-size:12px;fill:none;stroke:#000;stroke-width:.74587703;stroke-miterlimit:4;stroke-dasharray:none" transform="matrix(-.82368 0 0 .63415 687.465 196.669)"/><path d="M189.38 208.372v-37.047" style="font-size:12px;fill:none;stroke:#000;stroke-width:1.31907177" transform="matrix(-.82368 0 0 .63415 687.465 196.669)"/><path d="M172.15 208.152v-36.607" style="font-size:12px;fill:none;stroke:#000;stroke-width:1.98789394" transform="matrix(-.82368 0 0 .63415 687.465 196.669)"/><path d="M156.753 206.521v-33.345" style="font-size:12px;fill:none;stroke:#000;stroke-width:2.32230806" transform="matrix(-.82368 0 0 .63415 687.465 196.669)"/><path d="M143.428 204.919v-30.14" style="font-size:12px;fill:none;stroke:#000;stroke-width:2.63814354" transform="matrix(-.82368 0 0 .63415 687.465 196.669)"/><path d="M131.282 203.945v-28.194" style="font-size:12px;fill:none;stroke:#000;stroke-width:2.97255707" transform="matrix(-.82368 0 0 .63415 687.465 196.669)"/><path d="M118.47 202.128v-24.56" style="font-size:12px;fill:none;stroke:#000;stroke-width:3.3069706" transform="matrix(-.82368 0 0 .63415 687.465 196.669)"/><path d="M107.049 200.279v-20.861" style="font-size:12px;fill:none;stroke:#000;stroke-width:3.64137936" transform="matrix(-.82368 0 0 .63415 687.465 196.669)"/><path d="M97.011 198.87v-18.044" style="font-size:12px;fill:none;stroke:#000;stroke-width:3.97579312" transform="matrix(-.82368 0 0 .63415 687.465 196.669)"/><path d="m82.02 195.608-.202-11.366m6.85 12.554V182.9" style="font-size:12px;fill:none;stroke:#000;stroke-width:4.29162884" transform="matrix(-.82368 0 0 .63415 687.465 196.669)"/><path d="M75.007 194.02v-8.343" style="font-size:12px;fill:none;stroke:#000;stroke-width:4.86755943" transform="matrix(-.82368 0 0 .63415 687.465 196.669)"/><path d="M67.585 192.62v-5.544" style="font-size:12px;fill:none;stroke:#000;stroke-width:5.49925089" transform="matrix(-.82368 0 0 .63415 687.465 196.669)"/><path d="m234.994 210.934.202-42.172" style="font-size:12px;fill:none;stroke:#000;stroke-width:.38579848;stroke-miterlimit:4;stroke-dasharray:none" transform="matrix(-.82368 0 0 .63415 687.465 196.669)"/></g></g><path d="M652.712 320.095c2.768-4.29-4.396-1.67-9.433-4.797-106.536 13.947-190.68 13.31-331.562.288-6.065 1.528-16.152.168-13.318 4.188 31.363 4.9 173.455 25.906 354.313.32z" style="font-size:medium;font-style:normal;font-variant:normal;font-weight:400;font-stretch:normal;text-indent:0;text-align:start;text-decoration:none;line-height:normal;letter-spacing:normal;word-spacing:normal;text-transform:none;direction:ltr;block-progression:tb;writing-mode:lr-tb;text-anchor:start;color:#000;fill:#ffdc14;stroke:#000;stroke-width:1;stroke-miterlimit:4;stroke-opacity:1;stroke-dasharray:none;marker:none;visibility:visible;display:inline;overflow:visible;font-family:Bitstream Vera Sans;-inkscape-font-specification:Bitstream Vera Sans"/><path d="M475.682 303.724c-62.365.489-112.853 1.97-174.532 7.507l-11.353-54.588c62.012-6.871 120.416-9.95 184.478-10.067 64.063-.18 125.152 3.196 187.164 10.067l-11.353 54.588c-61.68-5.537-112.167-7.018-174.532-7.507" style="fill:#ffdc14;stroke:#000;stroke-width:1;stroke-linecap:butt;stroke-linejoin:miter;stroke-miterlimit:4;stroke-opacity:1;stroke-dasharray:none;display:inline"/><path d="m354.955 247.739-.051.04h-.052c-22.15 1.593-47.786 3.332-70.155 6.38-3.163 3.78-3.426 7.228 2.33 9.985 21.476-2.926 46.798-4.706 68.964-6.3 30.063-1.743 60.374-2.832 90.607-3.13h57.988c18.085 0 56.279 1.103 90.607 3.17 34.17 2.056 69.068 6.26 69.068 6.26 5.955-3.04 5.308-6.442 2.07-9.986 0 0-35.219-4.319-70.103-6.419-34.727-2.09-72.873-3.17-91.642-3.17h-57.988c-31.94.327-64.343 1.714-91.643 3.17zm8.469 56.351-.048.04h-.048c-20.596 1.593-44.433 3.331-65.232 6.38-2.941 3.78-3.185 7.228 2.166 9.985 19.97-2.926 43.514-4.706 64.125-6.3 27.952-1.743 56.136-2.832 84.247-3.131h53.919c16.816 0 52.33 1.103 84.248 3.17 31.773 2.057 64.22 6.261 64.22 6.261 5.538-3.04 4.936-6.443 1.926-9.986 0 0-32.748-4.32-65.183-6.42-32.29-2.09-67.76-3.17-85.211-3.17h-53.919c-28.445.092-56.846 1.535-85.21 3.17z" style="font-size:medium;font-style:normal;font-variant:normal;font-weight:400;font-stretch:normal;text-indent:0;text-align:start;text-decoration:none;line-height:normal;letter-spacing:normal;word-spacing:normal;text-transform:none;direction:ltr;block-progression:tb;writing-mode:lr-tb;text-anchor:start;color:#000;fill:#ffdc14;stroke:#000;stroke-width:1;stroke-miterlimit:4;stroke-opacity:1;stroke-dasharray:none;marker:none;visibility:visible;display:inline;overflow:visible;font-family:Bitstream Vera Sans;-inkscape-font-specification:Bitstream Vera Sans"/><path d="m504.413 277.148-29.146-16.432-28.444 16.209 28.029 15.64z" style="fill:none;stroke:#000;stroke-width:1;stroke-linecap:butt;stroke-linejoin:miter;stroke-miterlimit:4;stroke-opacity:1;stroke-dasharray:none;display:inline"/><path d="m455.913 277.289 19.106-10.807 18.995 11.094-19.679 9.053z" style="fill:#ff1e00;stroke:#000;stroke-width:1;stroke-linecap:butt;stroke-linejoin:miter;stroke-miterlimit:4;stroke-opacity:1;stroke-dasharray:none;display:inline"/><rect width="52.298" height="26.158" x="-611.026" y="230.273" rx="13.373" ry="13.079" style="fill:none;stroke:#000;stroke-width:1.00000238;stroke-linecap:butt;stroke-linejoin:miter;stroke-miterlimit:4;stroke-opacity:1;stroke-dasharray:none;stroke-dashoffset:0;marker:none;visibility:visible;display:inline;overflow:visible" transform="matrix(-.99817 -.06041 -.06345 .99798 0 0)"/><rect width="52.298" height="26.158" x="338.26" y="288.323" rx="13.373" ry="13.079" style="fill:none;stroke:#000;stroke-width:1.00000238;stroke-linecap:butt;stroke-linejoin:miter;stroke-miterlimit:4;stroke-opacity:1;stroke-dasharray:none;stroke-dashoffset:0;marker:none;visibility:visible;display:inline;overflow:visible" transform="rotate(-3.464)skewX(.174)"/><path d="m658.597 270.238-30.97 10.614 24.617 20.598z" style="fill:none;stroke:#000;stroke-width:1;stroke-linecap:butt;stroke-linejoin:miter;stroke-miterlimit:4;stroke-opacity:1;stroke-dasharray:none;display:inline"/><path d="m636.49 282.907 20.787-7.05 2.558 10.982-6.475 8.78z" style="fill:#ff1e00;stroke:#000;stroke-width:1;stroke-linecap:butt;stroke-linejoin:miter;stroke-miterlimit:4;stroke-opacity:1;stroke-dasharray:none;display:inline"/><path d="m292.899 271.206 30.71 10.578-24.284 20.634z" style="fill:none;stroke:#000;stroke-width:1;stroke-linecap:butt;stroke-linejoin:miter;stroke-miterlimit:4;stroke-opacity:1;stroke-dasharray:none;display:inline"/><path d="m314.747 283.838-20.788-7.05-2.558 10.982 6.475 8.78z" style="fill:#ff1e00;stroke:#000;stroke-width:1;stroke-linecap:butt;stroke-linejoin:miter;stroke-miterlimit:4;stroke-opacity:1;stroke-dasharray:none;display:inline"/><path id="a" d="M188.91-50.866a23.845 23.845 0 1 1-47.691 0 23.845 23.845 0 1 1 47.69 0z" style="fill:#f5f5f5;fill-opacity:1;fill-rule:nonzero;stroke:#000" transform="matrix(.94835 0 0 .96487 262.655 271.012)"/><use xlink:href="#a" id="b" width="400.418" height="134.107" x="0" y="0" transform="translate(118.507 .563)"/><use xlink:href="#a" width="400.418" height="134.107" transform="translate(-121.16 7.736)"/><use xlink:href="#b" width="400.418" height="134.107" transform="translate(115.502 7.799)"/><path id="c" d="M40.282-24.938a11.112 11.344 0 1 1-22.224 0 11.112 11.344 0 1 1 22.224 0" style="fill:#f5f5f5;fill-opacity:1;fill-rule:nonzero;stroke:#000;stroke-width:1.21968341;stroke-linecap:round;stroke-linejoin:round;stroke-miterlimit:4;stroke-opacity:1;stroke-dasharray:none" transform="matrix(.83012 0 0 .80978 291.784 269.54)"/><use xlink:href="#c" width="400.418" height="134.107" transform="translate(13.8 5.204)"/><use xlink:href="#d" width="400.418" height="134.107" transform="translate(-11.64 -12.322)"/><rect width="41.568" height="17.244" x="343.511" y="294.024" rx="9.484" ry="8.622" style="fill:#00b914;fill-opacity:1;fill-rule:nonzero;stroke:#000;stroke-width:1;stroke-linecap:round;stroke-linejoin:round;stroke-miterlimit:4;stroke-opacity:1;stroke-dasharray:none" transform="rotate(-3.659)"/><use xlink:href="#e" id="d" width="400.418" height="134.107" x="0" y="0" transform="translate(-7.332 -11.687)"/><use xlink:href="#f" id="e" width="400.418" height="134.107" x="0" y="0" transform="translate(-4.199 -16.043)"/><use xlink:href="#c" id="f" width="400.418" height="134.107" x="0" y="0" transform="translate(48.488 54.863)"/><use xlink:href="#c" id="g" width="400.418" height="134.107" x="0" y="0" transform="translate(118.346 -9.994)"/><use xlink:href="#g" id="h" width="400.418" height="134.107" x="0" y="0" transform="translate(12.11 6.032)"/><use xlink:href="#h" id="i" width="400.418" height="134.107" x="0" y="0" transform="translate(10.009 12.09)"/><use xlink:href="#i" id="j" width="400.418" height="134.107" x="0" y="0" transform="translate(7.303 13.828)"/><use xlink:href="#j" id="k" width="400.418" height="134.107" x="0" y="0" transform="translate(4.31 14.245)"/><use xlink:href="#k" width="400.418" height="134.107" transform="translate(3.338 16.161)"/><rect width="41.568" height="17.244" x="-606.096" y="232.698" rx="9.484" ry="8.622" style="fill:#00b914;fill-opacity:1;fill-rule:nonzero;stroke:#000;stroke-width:1;stroke-linecap:round;stroke-linejoin:round;stroke-miterlimit:4;stroke-opacity:1;stroke-dasharray:none" transform="scale(-1 1)rotate(-3.659)"/><use xlink:href="#l" width="400.418" height="134.107" transform="translate(-11.408 -6.721)"/><use xlink:href="#m" id="l" width="400.418" height="134.107" x="0" y="0" transform="translate(-10.385 -12.99)"/><use xlink:href="#n" id="m" width="400.418" height="134.107" x="0" y="0" transform="translate(-6.146 -15.81)"/><use xlink:href="#o" id="n" width="400.418" height="134.107" x="0" y="0" transform="translate(-4.462 -14.557)"/><use xlink:href="#p" id="o" width="400.418" height="134.107" x="0" y="0" transform="translate(-1.362 -13.419)"/><use xlink:href="#c" id="p" width="400.418" height="134.107" x="0" y="0" transform="translate(271.409 55.723)"/></g></svg>