<?xml version="1.0" encoding="UTF-8"?>
<!-- Created with Inkscape (http://www.inkscape.org/) -->
<svg width="520.93" height="992.36" version="1.0" xmlns="http://www.w3.org/2000/svg" xmlns:cc="http://creativecommons.org/ns#" xmlns:dc="http://purl.org/dc/elements/1.1/" xmlns:rdf="http://www.w3.org/1999/02/22-rdf-syntax-ns#" xmlns:xlink="http://www.w3.org/1999/xlink">
 <metadata>
  <rdf:RDF>
   <cc:Work rdf:about="">
    <dc:format>image/svg+xml</dc:format>
    <dc:type rdf:resource="http://purl.org/dc/dcmitype/StillImage"/>
    <dc:title/>
   </cc:Work>
  </rdf:RDF>
 </metadata>
 <g transform="translate(62.851 16.958)"></g>
 <g transform="translate(6.4225 93.598)">
  <g transform="translate(-3.0094e-6)">
   <g transform="translate(-602.16)">
    <path d="m1086.7 118.06s3.8926-9.6415 3.7972-31.137c-0.1473-33.177-32.081-48.05-65.89-53.819-34.184-5.8324-70.308-2.3801-81.821-3.5187-47.386-4.6863-79.361-47.465-79.361-47.465h-2.658s25.417 47.574 72.526 56.958c45.442 9.0521 124.14-16.489 139.42 44.403 2.0563 8.1945 2.3744 19.831 0.6967 34.578z" style="fill:#c6a76e;stroke-linecap:round;stroke-linejoin:round;stroke-width:1.5;stroke:#000"/>
    <circle transform="translate(56.429 -76.64)" cx="1046.8" cy="164.14" r="12.721" style="fill:#e7e7e7;stroke-linecap:round;stroke-linejoin:round;stroke-width:1.5;stroke:#000"/>
    <circle cx="1094.5" cy="58.147" r="12.339" style="fill:#e7e7e7;stroke-linecap:round;stroke-linejoin:round;stroke-width:1.5;stroke:#000"/>
    <circle cx="1072.2" cy="39.084" r="11.957" style="fill:#e7e7e7;stroke-linecap:round;stroke-linejoin:round;stroke-width:1.5;stroke:#000"/>
    <circle cx="1044" cy="27.27" r="11.576" style="fill:#e7e7e7;stroke-linecap:round;stroke-linejoin:round;stroke-width:1.5;stroke:#000"/>
    <circle cx="1015.5" cy="22.436" r="11.194" style="fill:#e7e7e7;stroke-linecap:round;stroke-linejoin:round;stroke-width:1.5;stroke:#000"/>
    <circle cx="986.53" cy="21.094" r="10.812" style="fill:#e7e7e7;stroke-linecap:round;stroke-linejoin:round;stroke-width:1.5;stroke:#000"/>
   </g>
   <g transform="matrix(-1 0 0 1 1110.2 0)">
    <path d="m1086.7 118.06s3.8926-9.6415 3.7972-31.137c-0.1473-33.177-32.081-48.05-65.89-53.819-34.184-5.8324-70.308-2.3801-81.821-3.5187-47.386-4.6863-79.361-47.465-79.361-47.465h-2.658s25.417 47.574 72.526 56.958c45.442 9.0521 124.14-16.489 139.42 44.403 2.0563 8.1945 2.3744 19.831 0.6967 34.578z" style="fill:#c6a76e;stroke-linecap:round;stroke-linejoin:round;stroke-width:1.5;stroke:#000"/>
    <circle transform="translate(56.429 -76.64)" cx="1046.8" cy="164.14" r="12.721" style="fill:#e7e7e7;stroke-linecap:round;stroke-linejoin:round;stroke-width:1.5;stroke:#000"/>
    <circle cx="1094.5" cy="58.147" r="12.339" style="fill:#e7e7e7;stroke-linecap:round;stroke-linejoin:round;stroke-width:1.5;stroke:#000"/>
    <circle cx="1072.2" cy="39.084" r="11.957" style="fill:#e7e7e7;stroke-linecap:round;stroke-linejoin:round;stroke-width:1.5;stroke:#000"/>
    <circle cx="1044" cy="27.27" r="11.576" style="fill:#e7e7e7;stroke-linecap:round;stroke-linejoin:round;stroke-width:1.5;stroke:#000"/>
    <circle cx="1015.5" cy="22.436" r="11.194" style="fill:#e7e7e7;stroke-linecap:round;stroke-linejoin:round;stroke-width:1.5;stroke:#000"/>
    <circle cx="986.53" cy="21.094" r="10.812" style="fill:#e7e7e7;stroke-linecap:round;stroke-linejoin:round;stroke-width:1.5;stroke:#000"/>
   </g>
   <g transform="translate(-602.16)">
    <path transform="translate(-20.957 -58.798)" d="m799.31 122.49c-0.26233 1e-3 -0.52629 0.0113-0.79102 0.0293-12.939 0.8794-22.337 13.981-34.904 17.184-12.5 3.1858-26.737-3.3025-38.664 1.6113-5.1546 2.1237-12.352 11.277-12.352 11.277s-20.749-5.4242-30.609-1.0742c-9.9255 4.3787-21.01 18.96-24.164 29.266-2.3786 7.7704 0.88855 10.278 2.416 18.26 3.6804 19.231 12.208 41.103 33.025 45.912 5.6299 1.3006 11.675 1.8931 16.648 4.834 4.7939 2.8345 11.008 11.008 11.008 11.008 29.524-14.052 94.273-24.145 156.23-24.145s126.71 10.093 156.23 24.145c0 0 6.2159-8.1733 11.01-11.008 4.9738-2.9408 11.017-3.5334 16.646-4.834 20.817-4.8092 29.345-26.681 33.025-45.912 1.5275-7.9815 4.7965-10.489 2.4179-18.26-3.1545-10.305-14.24-24.887-24.166-29.266-9.8604-4.35-30.609 1.0742-30.609 1.0742 0 0-7.197-9.1536-12.352-11.277-11.927-4.9138-26.164 1.5745-38.664-1.6113-12.567-3.2029-21.966-16.304-34.904-17.184-8.4712-0.57576-15.679 7.7951-24.166 8.0547-8.3326 0.25485-18-5.738-26.312-5.1016-9.2398 0.70743-16.842 6.7129-28.16 6.7129s-18.92-6.0055-28.16-6.7129c-8.3122-0.63642-17.98 5.3564-26.312 5.1016-8.2216-0.25144-15.243-8.1162-23.375-8.084z" style="fill:#da1e2a;stroke-linecap:round;stroke-linejoin:round;stroke-width:1.5;stroke:#000"/>
    <path d="m691.64 93.798s-1.8057 6.4806-3.759 9.129c-1.5848 2.1488-6.1755 5.1015-6.1755 5.1015" style="fill:none;stroke-linecap:round;stroke-linejoin:round;stroke-width:1.5;stroke:#000"/>
    <path d="m1020.8 93.798s1.8056 6.4806 3.759 9.129c1.5848 2.1488 6.1755 5.1015 6.1755 5.1015" style="fill:none;stroke-linecap:round;stroke-linejoin:round;stroke-width:1.5;stroke:#000"/>
   </g>
   <path transform="translate(-6.4225 -93.598)" d="m265.01 75.723s19.134 25.701 54.68 31.896c18.018 3.1406 45.335 15.147 45.945 35.504 0.43587 14.531-1.9243 42.93-1.9243 42.93h17.874s20.376-13.427 20.693-35.715c0.34177-23.975-34.349-47.636-60.564-50.502-35.793-3.9136-74.045-24.113-74.045-24.113z" style="fill:#c6a76e;stroke-linecap:round;stroke-linejoin:round;stroke-width:1.5;stroke:#000"/>
   <path d="m369.61 92.455s15.799-24.207 16.092-36.032c0.49769-20.068-20.341-41.337-52.398-47.001-22.229-3.9277-45.326-11.359-59.515-18.841-7.9721-4.2041-13.732-8.4568-13.732-8.4568" style="fill:none;stroke-width:.75;stroke:#000"/>
   <g transform="translate(-602.16)" style="fill:#e7e7e7;stroke-width:1.5;stroke:#000">
    <circle cx="983.91" cy="38.621" r="11.68" style="fill:#e7e7e7;stroke-linecap:round;stroke-linejoin:round;stroke-width:1.5;stroke:#000"/>
    <circle cx="871.94" cy="-16.154" r="4.4705" style="fill:#e7e7e7;stroke-linecap:round;stroke-linejoin:round;stroke-width:1.5;stroke:#000"/>
    <circle cx="884.03" cy="-10.918" r="5.2163" style="fill:#e7e7e7;stroke-linecap:round;stroke-linejoin:round;stroke-width:1.5;stroke:#000"/>
    <circle cx="896.98" cy="-6.6652" r="6.1635" style="fill:#e7e7e7;stroke-linecap:round;stroke-linejoin:round;stroke-width:1.5;stroke:#000"/>
    <circle cx="910.67" cy="-3.1984" r="7.1778" style="fill:#e7e7e7;stroke-linecap:round;stroke-linejoin:round;stroke-width:1.5;stroke:#000"/>
    <circle cx="925.71" cy=".69488" r="7.7893" style="fill:#e7e7e7;stroke-linecap:round;stroke-linejoin:round;stroke-width:1.5;stroke:#000"/>
    <circle cx="964.37" cy="14.12" r="10.27" style="fill:#e7e7e7;stroke-linecap:round;stroke-linejoin:round;stroke-width:1.5;stroke:#000"/>
    <circle cx="943.03" cy="4.5881" r="9.3304" style="fill:#e7e7e7;stroke-linecap:round;stroke-linejoin:round;stroke-width:1.5;stroke:#000"/>
   </g>
   <path d="m258.59-17.875s16.719 19.827 71.007 29.998c19.532 3.6592 41.888 16.81 42.908 41.389 0.55355 13.335-10.252 38.943-10.252 38.943" style="fill:none;stroke-linecap:round;stroke-linejoin:round;stroke-width:.75;stroke:#000"/>
   <g transform="matrix(-1 0 0 1 508.09 0)">
    <path transform="translate(-6.4225 -93.598)" d="m265.01 75.723s19.134 25.701 54.68 31.896c18.018 3.1406 45.335 15.147 45.945 35.504 0.43587 14.531-1.9243 42.93-1.9243 42.93h17.874s20.376-13.427 20.693-35.715c0.34177-23.975-34.349-47.636-60.564-50.502-35.793-3.9136-74.045-24.113-74.045-24.113z" style="fill:#c6a76e;stroke-linecap:round;stroke-linejoin:round;stroke-width:1.5;stroke:#000"/>
    <path d="m369.61 92.455s15.799-24.207 16.092-36.032c0.49769-20.068-20.341-41.337-52.398-47.001-22.229-3.9277-45.326-11.359-59.515-18.841-7.9721-4.2041-13.732-8.4568-13.732-8.4568" style="fill:none;stroke-width:.75;stroke:#000"/>
    <g transform="translate(-602.16)" style="fill:#e7e7e7;stroke-width:1.5;stroke:#000">
     <circle cx="983.91" cy="38.621" r="11.68" style="fill:#e7e7e7;stroke-linecap:round;stroke-linejoin:round;stroke-width:1.5;stroke:#000"/>
     <circle cx="871.94" cy="-16.154" r="4.4705" style="fill:#e7e7e7;stroke-linecap:round;stroke-linejoin:round;stroke-width:1.5;stroke:#000"/>
     <circle cx="884.03" cy="-10.918" r="5.2163" style="fill:#e7e7e7;stroke-linecap:round;stroke-linejoin:round;stroke-width:1.5;stroke:#000"/>
     <circle cx="896.98" cy="-6.6652" r="6.1635" style="fill:#e7e7e7;stroke-linecap:round;stroke-linejoin:round;stroke-width:1.5;stroke:#000"/>
     <circle cx="910.67" cy="-3.1984" r="7.1778" style="fill:#e7e7e7;stroke-linecap:round;stroke-linejoin:round;stroke-width:1.5;stroke:#000"/>
     <circle cx="925.71" cy=".69488" r="7.7893" style="fill:#e7e7e7;stroke-linecap:round;stroke-linejoin:round;stroke-width:1.5;stroke:#000"/>
     <circle cx="964.37" cy="14.12" r="10.27" style="fill:#e7e7e7;stroke-linecap:round;stroke-linejoin:round;stroke-width:1.5;stroke:#000"/>
     <circle cx="943.03" cy="4.5881" r="9.3304" style="fill:#e7e7e7;stroke-linecap:round;stroke-linejoin:round;stroke-width:1.5;stroke:#000"/>
    </g>
    <path d="m258.59-17.875s16.719 19.827 71.007 29.998c19.532 3.6592 41.888 16.81 42.908 41.389 0.55355 13.335-10.252 38.943-10.252 38.943" style="fill:none;stroke-linecap:round;stroke-linejoin:round;stroke-width:.75;stroke:#000"/>
   </g>
   <g transform="translate(-602.16)">
    <path d="m850.14-17.876s-17.829 31.041-18.227 54.869c-0.40679 24.363 13.859 37.594 13.859 37.594h20.859s14.268-13.231 13.861-37.594c-0.39787-23.828-18.227-54.869-18.227-54.869h-6.0644z" style="fill:#c6a76e;stroke-linecap:round;stroke-linejoin:round;stroke-width:1.5;stroke:#000"/>
    <path d="m859.04-17.875s12.944 33.613 13.29 51.262c0.35703 18.186-10.822 41.199-10.822 41.199" style="fill:none;stroke-width:.75;stroke:#000"/>
    <path d="m853.37-17.875s-12.944 33.613-13.29 51.262c-0.35703 18.186 10.822 41.199 10.822 41.199" style="fill:none;stroke-width:.75;stroke:#000"/>
   </g>
   <g transform="translate(-600.25)">
    <path d="m850.21-92.848v10.525h-12.253v8.1671h12.253v23.222h8.1623v-23.222h12.253v-8.1671h-12.253v-10.525z" style="fill:#c6a76e;stroke-linecap:round;stroke-linejoin:round;stroke-width:1.5;stroke:#000"/>
    <circle cx="854.29" cy="-36.671" r="19.555" style="fill:#0038a8;stroke-linecap:round;stroke-linejoin:round;stroke-width:1.5;stroke:#000"/>
    <path transform="translate(-20.957 -58.798)" d="m875.25 1.0527a21.074 21.074 0 0 0-3.9863 0.39648v14.123a33.415 33.415 0 0 0-17.062 7.2734 21.074 21.074 0 0 0 1.7402 7.6406 26.58 26.58 0 0 1 19.309-8.3594 26.58 26.58 0 0 1 19.307 8.334 21.074 21.074 0 0 0 1.7344-7.666 33.415 33.415 0 0 0-17.055-7.2383v-14.115a21.074 21.074 0 0 0-3.9863-0.38867z" style="fill:#c6a76e;stroke-linecap:round;stroke-linejoin:round;stroke-width:1.5;stroke:#000"/>
   </g>
   <g transform="translate(-602.16)">
    <circle cx="856.2" cy="-15.603" r="3.8933" style="fill:#e7e7e7;stroke-linecap:round;stroke-linejoin:round;stroke-width:1.5;stroke:#000"/>
    <circle cx="856.2" cy="-8.2862" r="5.0344" style="fill:#e7e7e7;stroke-linecap:round;stroke-linejoin:round;stroke-width:1.5;stroke:#000"/>
    <circle cx="856.2" cy="3.0443" r="7.9208" style="fill:#e7e7e7;stroke-linecap:round;stroke-linejoin:round;stroke-width:1.5;stroke:#000"/>
    <circle cx="856.2" cy="19.221" r="10.002" style="fill:#e7e7e7;stroke-linecap:round;stroke-linejoin:round;stroke-width:1.5;stroke:#000"/>
    <circle cx="856.2" cy="39.762" r="11.344" style="fill:#e7e7e7;stroke-linecap:round;stroke-linejoin:round;stroke-width:1.5;stroke:#000"/>
   </g>
   <g transform="matrix(1.0057 0 0 1.0058 -922.7 -67.836)" style="stroke-width:.99427">
    <g style="stroke-width:.99427">
     <path transform="translate(-25.134 54.36)" d="m1195.1 130.06c-3.0689 20.063-16.258 35.899-30.727 36.498-8.3992 0.34794-19.091-1.5014-23.742-8.5039-3.4357-5.1727-7.7247-5.6449-9.9218 0-5.8131 14.935-25.987 18.123-45.358-15.947-7.7867 44.375-26.427 45.631-42.168 32.955-2.7353-2.2027-10.214 0.0451-9.9219 3.5449 0.4766 5.7062-4.3555 13.667-10.277 15.236-11.591 3.0723-27.035-6.5468-32.246-15.945-0.80389-1.4499-5.6278-1.1644-4.9609 0.35352 7.2614 16.529 30.84 32.786 42.832 26.861 6.5585-3.2404 10.947-9.8512 13.51-17.293 7.3542 3.0178 16.572 6.4526 24.49 4.0508 10.981-3.331 21.51-13.951 24.234-23.363 5.4193 6.5343 15.729 15.215 24.986 14.021 9.8613-1.2715 18.012-9.5046 20.549-14.908 2.7226 6.07 18.316 11.368 28.359 10.504 8.7522-0.75314 23.841-10.845 30.361-18.299 6.5203 7.4534 21.609 17.546 30.361 18.299 10.044 0.86426 25.637-4.4339 28.359-10.504 2.537 5.4036 10.688 13.637 20.549 14.908 9.2574 1.1937 19.567-7.4871 24.986-14.021 2.7239 9.4127 13.253 20.032 24.234 23.363 7.9178 2.4018 17.134-1.033 24.488-4.0508 2.5631 7.4417 6.9532 14.053 13.512 17.293 11.992 5.925 35.571-10.332 42.832-26.861 0.6667-1.5179-4.1571-1.8035-4.961-0.35352-5.2108 9.3985-20.655 19.018-32.246 15.945-5.9218-1.5696-10.754-9.5301-10.277-15.236 0.2923-3.4998-7.1866-5.7476-9.9219-3.5449-15.74 12.676-34.381 11.42-42.168-32.955-19.371 34.07-39.544 30.882-45.357 15.947-2.1971-5.6449-6.4862-5.1727-9.9219 0-4.6511 7.0025-15.343 8.8518-23.742 8.5039-14.468-0.59935-27.658-16.436-30.726-36.498z" style="fill:#c6a76e;stroke-width:1.4914;stroke:#000"/>
     <g transform="translate(-2.9375)" style="stroke-width:.99427;stroke:#000">
      <path transform="translate(-25.134 54.36)" d="m1198.1 56.352c-2.938 5.4378-7.8438 2.6318-8.3262 10.631-4.4295-2.8144-9.9645 1.8257-13.289 2.6582 0.9752 3.4356-1.055 8.0847 3.3652 10.098-4.9449-0.20698-6.0909 4.452-9.8692 4.2324 2.5008 1.4683 1.6494 5.3648 3.4551 6.4121 2.3227 1.3472 5.2268 0.60715 7.4824 1.3496 2.0442 0.67288 2.7889 3.6188 1.3907 4.9941-1.051 1.0339-2.4758 1.531-4.1895 0.08984-1.5144-1.2735-2.6488-3.8064-4.9765-5.1719-3.7767-2.2154-6.8942 1.3639-11.188-3.4004 0 0-1.31 4.4512-0.4122 6.7754 0.8939 2.3141 3.7993 3.2706 5.0938 5.3867 0.6431 1.0512 1.4205 2.6954 0.3105 3.2305-4.9539 2.3876-5.8453-4.693-9.8281-4.9707-6.24-0.43503-6.5964 12.976-11.109 14.914 4.4432 2.5057 1.7856 12.72 9.2129 13.643 4.1958 0.5211 6.8548-5.8586 12.402-2.6562 1.2864 0.74257 0.035 3.4675-1.2168 4.4375-2.1613 1.6756-6.0181 1.2624-7.2871 4.2441-2.4634 5.7884 2.214 7.2653 0.791 10.828 3.6743-2.199 8.3534-1.9348 11.611-5.5137 2.6218-2.88 4.5864-8.3751 7.1172-6.1797 1.1378 0.98708 0.8379 3.4882-0.1 4.7188-1.7245 2.2625-5.1061 3.1372-6.1836 5.9648-1.6218 4.2562 2.9284 5.6044 1.8242 9.4941 17.799-1.4358 23.995-17.267 23.918-22.502-0.077 5.2353 6.1207 21.066 23.92 22.502-1.1042-3.8898 3.4441-5.238 1.8223-9.4941-1.0775-2.8277-4.4591-3.7024-6.1836-5.9648-0.9375-1.2305-1.2374-3.7317-0.1-4.7188 2.5308-2.1954 4.4973 3.2997 7.1191 6.1797 3.2579 3.5788 7.937 3.3147 11.611 5.5137-1.423-3.5628 3.2545-5.0397 0.7911-10.828-1.269-2.9817-5.1259-2.5686-7.2872-4.2441-1.2514-0.96999-2.5051-3.6949-1.2187-4.4375 5.5476-3.2024 8.2065 3.1774 12.402 2.6562 7.4273-0.92245 4.7717-11.137 9.2149-13.643-4.513-1.9378-4.8713-15.349-11.111-14.914-3.9828 0.27766-4.8723 7.3583-9.8262 4.9707-1.11-0.53503-0.3345-2.1793 0.3086-3.2305 1.2945-2.1161 4.2018-3.0727 5.0957-5.3867 0.8978-2.3242-0.4141-6.7754-0.4141-6.7754-4.2933 4.7643-7.4088 1.185-11.186 3.4004-2.3277 1.3654-3.4622 3.8984-4.9766 5.1719-1.7137 1.4411-3.1404 0.94402-4.1914-0.08984-1.3982-1.3753-0.6516-4.3213 1.3926-4.9941 2.2556-0.74246 5.1597-0.0024 7.4824-1.3496 1.8057-1.0473 0.9523-4.9438 3.4531-6.4121-3.7783 0.21962-4.9242-4.4394-9.8691-4.2324 4.4202-2.0129 2.392-6.6621 3.3672-10.098-3.3246-0.83251-8.8596-5.4726-13.289-2.6582-0.4824-7.9991-5.3901-5.1931-8.3281-10.631z" style="fill:#c6a76e;stroke-linecap:round;stroke-linejoin:round;stroke-width:1.4914;stroke:#000"/>
      <g style="stroke-width:.99427;stroke:#000">
       <ellipse cx="1173" cy="168.23" rx="9.4168" ry="16.147" style="fill:none;stroke-linecap:round;stroke-linejoin:round;stroke-width:1.4508;stroke:#000"/>
       <ellipse cx="1173" cy="168.23" rx="6.6743" ry="12.208" style="fill:#da1e2a;stroke-linecap:round;stroke-linejoin:round;stroke-width:1.062;stroke:#000"/>
       <path d="m1173 151.89v-24.43" style="fill:none;stroke-linecap:round;stroke-linejoin:round;stroke-width:.99427px;stroke:#000"/>
       <path d="m1168.7 152.77c-1.6404-4.5693-5.8231-8.5912-10.399-12.528" style="fill:none;stroke-linecap:round;stroke-linejoin:round;stroke-width:.99427px;stroke:#000"/>
       <path d="m1163.3 165.42c-5.596-0.15364-11.192-7.3189-16.788-11.651" style="fill:none;stroke-linecap:round;stroke-linejoin:round;stroke-width:.99427px;stroke:#000"/>
       <path d="m1163.6 169.68c-11.023 0.51183-16.379-0.95789-26.184-0.75171" style="fill:none;stroke-linecap:round;stroke-linejoin:round;stroke-width:.99427px;stroke:#000"/>
       <path d="m1164.8 176.32c-4.1141 0.75508-8.2149 1.4308-12.654 4.1344" style="fill:none;stroke-linecap:round;stroke-linejoin:round;stroke-width:.99427px;stroke:#000"/>
       <path d="m1169.7 183.48c-2.554 6.582-6.8143 8.8211-10.566 13.007" style="fill:none;stroke-linecap:round;stroke-linejoin:round;stroke-width:.99427px;stroke:#000"/>
       <path d="m1177.2 152.77c1.6404-4.5693 5.8231-8.5912 10.399-12.528" style="fill:none;stroke-linecap:round;stroke-linejoin:round;stroke-width:.99427px;stroke:#000"/>
       <path d="m1182.6 165.42c5.596-0.15364 11.192-7.3189 16.788-11.651" style="fill:none;stroke-linecap:round;stroke-linejoin:round;stroke-width:.99427px;stroke:#000"/>
       <path d="m1182.3 169.68c11.023 0.51183 16.379-0.95789 26.184-0.75171" style="fill:none;stroke-linecap:round;stroke-linejoin:round;stroke-width:.99427px;stroke:#000"/>
       <path d="m1181.1 176.32c4.1141 0.75508 8.2149 1.4308 12.654 4.1344" style="fill:none;stroke-linecap:round;stroke-linejoin:round;stroke-width:.99427px;stroke:#000"/>
       <path d="m1175.9 183.48c2.554 6.582 7.0806 8.8211 10.833 13.007" style="fill:none;stroke-linecap:round;stroke-linejoin:round;stroke-width:.99427px;stroke:#000"/>
      </g>
     </g>
     <g transform="rotate(-11.587 1166 748.78)" style="fill:none;stroke-width:.99427;stroke:#000">
      <path transform="translate(-25.134 54.36)" d="m1187.3 71.712c-4.4295-2.8144-8.0798-1.7525-11.404-0.91998 0.9752 3.4356 0.2981 7.7227 4.6114 11.504-4.9449-0.20698-3.7152 0.97452-7.4935 0.7549 2.3252 1.4323 2.5473 4.293 5.9759 8.4637 2.1545 2.6208 4.1398 2.8861 4.8141 4.3834 0.9703 2.155 1.1651 4.0532-0.2331 5.4285-1.051 1.0339-1.7584 0.52704-3.4721-0.91408-1.5144-1.2735-1.9062-4.9331-4.2339-6.2985-3.7767-2.2154-8.1687 0.71887-10.885 0.11467 1.0464 2.3887-0.507 5.4121 0.9127 7.1749 1.5753 1.956 2.7291 1.0049 4.0236 3.121 0.6431 1.0512 1.0554 1.9811-0.055 2.5162-3.4497 1.2892-3.6802-5.2722-7.663-5.5499-7.5901-0.71185-6.8988 9.4612-14.096 12.639 4.4432 2.5057 3.9727 12.657 11.4 13.579 4.1958 0.5211 6.5705-7.2187 11.817-3.5436 1.5271 1.0697-0.1886 3.9331-1.4402 4.9033-2.1615 1.6754-4.8884 1.3662-6.1574 4.3479-2.4634 5.7884 0.3699 7.5266-1.0531 11.089 3.6743-2.199 9.99 0.0633 14.953-5.5958 2.6218-2.88 0.9328-9.8916 6.7363-8.6877 1.1378 0.98708 0.8661 2.7267-0.072 3.9572-1.7245 2.2625-3.8509 2.969-5.8626 5.647-3.0129 4.0107 2.2427 10.196-2.2066 14.806 17.616-4.2869 21.991-19.34 21.913-24.576-0.077 5.2353 6.4703 24.975 25.323 21.894-6.6395-2.4669-1.1663-7.0785-2.7881-11.335-1.0775-2.8277-3.7572-1.5122-5.4817-3.7747-0.9375-1.2305-0.9447-3.288 0.1927-4.2751 5.2592-2.4033 4.1543 3.5879 6.9713 6.2773 3.8613 3.6864 7.9021 0.36605 11.812-0.45601-2.6755-3.6918 2.4596-9.0286 0.256-11.961-1.9468-2.5906-5.2297-1.4388-7.391-3.1144-1.2514-0.96999-1.6711-3.396-0.3847-4.1386 5.5476-3.2024 6.2022 6.0915 12.192 5.5546 7.4273-0.92245 5.2344-10.275 9.6776-12.78-7.0463-1.4341-3.5515-9.5022-11.702-9.536-3.9924-0.0165-8.1128 6.7368-11.129 5.0872-1.7227-0.94214-1.2157-2.8715-0.5726-3.9227 1.2945-2.1161 6.119-2.4265 7.6951-4.3422 1.7397-2.1144 2.6794-6.269 2.6794-6.269-4.0669 3.6597-9.0171-1.5747-12.794 0.6407-2.3277 1.3654-2.6504 3.6812-4.1648 4.9547-1.7137 1.4411-3.3668 2.0486-4.4178 1.0147-1.3982-1.3753-0.9166-2.9976 0.7506-4.3584 1.6793-1.3706 3.7907-1.4341 6.1134-2.7813 1.8057-1.0473 2.664-8.3017 5.1648-9.77-3.7783 0.21962-1.7297 0.5639-6.6746 0.77088 5.5875-4.5872-0.2926-10.41 3.3354-13.685-4.9859 2.2799-6.156-0.56991-10.586 2.2444-1.3322-10.092-10.446-6.1021-12.576-15.656-2.4056 6.7595-11.569 5.3825-12.331 15.371z" style="fill:#c6a76e;stroke-linecap:round;stroke-linejoin:round;stroke-width:1.4914;stroke:#000"/>
      <g style="fill:none;stroke-width:.99427;stroke:#000">
       <ellipse cx="1173" cy="168.23" rx="9.4168" ry="16.147" style="fill:none;stroke-linecap:round;stroke-linejoin:round;stroke-width:1.4508;stroke:#000"/>
       <ellipse cx="1173" cy="168.23" rx="6.6743" ry="12.208" style="fill:#007c66;stroke-linecap:round;stroke-linejoin:round;stroke-width:1.062;stroke:#000"/>
       <path d="m1173 151.89v-24.43" style="fill:none;stroke-linecap:round;stroke-linejoin:round;stroke-width:.99427px;stroke:#000"/>
       <path d="m1168.7 152.77c-1.6404-4.5693-5.8231-8.5912-10.399-12.528" style="fill:none;stroke-linecap:round;stroke-linejoin:round;stroke-width:.99427px;stroke:#000"/>
       <path d="m1163.3 165.42c-5.596-0.15364-11.192-7.3189-16.788-11.651" style="fill:none;stroke-linecap:round;stroke-linejoin:round;stroke-width:.99427px;stroke:#000"/>
       <path d="m1163.6 169.68c-11.023 0.51183-16.379-0.95789-26.184-0.75171" style="fill:none;stroke-linecap:round;stroke-linejoin:round;stroke-width:.99427px;stroke:#000"/>
       <path d="m1163.5 173.24c-4.1141 0.75508-6.9276 4.5084-11.366 7.2119" style="fill:none;stroke-linecap:round;stroke-linejoin:round;stroke-width:.99427px;stroke:#000"/>
       <path d="m1169.7 183.48c-2.554 6.582-6.8143 8.8211-10.566 13.007" style="fill:none;stroke-linecap:round;stroke-linejoin:round;stroke-width:.99427px;stroke:#000"/>
       <path d="m1177.2 152.77c1.6404-4.5693 5.8231-8.5912 10.399-12.528" style="fill:none;stroke-linecap:round;stroke-linejoin:round;stroke-width:.99427px;stroke:#000"/>
       <path d="m1182.6 165.42c5.596-0.15364 11.192-7.3189 16.788-11.651" style="fill:none;stroke-linecap:round;stroke-linejoin:round;stroke-width:.99427px;stroke:#000"/>
       <path d="m1182.3 169.68c11.023 0.51183 16.379-0.95789 26.184-0.75171" style="fill:none;stroke-linecap:round;stroke-linejoin:round;stroke-width:.99427px;stroke:#000"/>
       <path d="m1182.1 172.69c4.1141 0.75508 7.2145 5.0624 11.653 7.766" style="fill:none;stroke-linecap:round;stroke-linejoin:round;stroke-width:.99427px;stroke:#000"/>
       <path d="m1175.9 183.48c2.554 6.582 7.0806 8.8211 10.833 13.007" style="fill:none;stroke-linecap:round;stroke-linejoin:round;stroke-width:.99427px;stroke:#000"/>
      </g>
     </g>
     <g transform="matrix(-.97962 -.20086 -.20086 .97962 2466.7 249.47)" style="fill:none;stroke-width:.99427;stroke:#000">
      <path transform="translate(-25.134 54.36)" d="m1187.3 71.712c-4.4295-2.8144-8.0798-1.7525-11.404-0.91998 0.9752 3.4356 0.2981 7.7227 4.6114 11.504-4.9449-0.20698-3.7152 0.97452-7.4935 0.7549 2.3252 1.4323 2.5473 4.293 5.9759 8.4637 2.1545 2.6208 4.1398 2.8861 4.8141 4.3834 0.9703 2.155 1.1651 4.0532-0.2331 5.4285-1.051 1.0339-1.7584 0.52704-3.4721-0.91408-1.5144-1.2735-1.9062-4.9331-4.2339-6.2985-3.7767-2.2154-8.1687 0.71887-10.885 0.11467 1.0464 2.3887-0.507 5.4121 0.9127 7.1749 1.5753 1.956 2.7291 1.0049 4.0236 3.121 0.6431 1.0512 1.0554 1.9811-0.055 2.5162-3.4497 1.2892-3.6802-5.2722-7.663-5.5499-7.5901-0.71185-6.8988 9.4612-14.096 12.639 4.4432 2.5057 3.9727 12.657 11.4 13.579 4.1958 0.5211 6.5705-7.2187 11.817-3.5436 1.5271 1.0697-0.1886 3.9331-1.4402 4.9033-2.1615 1.6754-4.8884 1.3662-6.1574 4.3479-2.4634 5.7884 0.3699 7.5266-1.0531 11.089 3.6743-2.199 9.99 0.0633 14.953-5.5958 2.6218-2.88 0.9328-9.8916 6.7363-8.6877 1.1378 0.98708 0.8661 2.7267-0.072 3.9572-1.7245 2.2625-3.8509 2.969-5.8626 5.647-3.0129 4.0107 2.2427 10.196-2.2066 14.806 17.616-4.2869 21.991-19.34 21.913-24.576-0.077 5.2353 6.4703 24.975 25.323 21.894-6.6395-2.4669-1.1663-7.0785-2.7881-11.335-1.0775-2.8277-3.7572-1.5122-5.4817-3.7747-0.9375-1.2305-0.9447-3.288 0.1927-4.2751 5.2592-2.4033 4.1543 3.5879 6.9713 6.2773 3.8613 3.6864 7.9021 0.36605 11.812-0.45601-2.6755-3.6918 2.4596-9.0286 0.256-11.961-1.9468-2.5906-5.2297-1.4388-7.391-3.1144-1.2514-0.96999-1.6711-3.396-0.3847-4.1386 5.5476-3.2024 6.2022 6.0915 12.192 5.5546 7.4273-0.92245 5.2344-10.275 9.6776-12.78-7.0463-1.4341-3.5515-9.5022-11.702-9.536-3.9924-0.0165-8.1128 6.7368-11.129 5.0872-1.7227-0.94214-1.2157-2.8715-0.5726-3.9227 1.2945-2.1161 6.119-2.4265 7.6951-4.3422 1.7397-2.1144 2.6794-6.269 2.6794-6.269-4.0669 3.6597-9.0171-1.5747-12.794 0.6407-2.3277 1.3654-2.6504 3.6812-4.1648 4.9547-1.7137 1.4411-3.3668 2.0486-4.4178 1.0147-1.3982-1.3753-0.9166-2.9976 0.7506-4.3584 1.6793-1.3706 3.7907-1.4341 6.1134-2.7813 1.8057-1.0473 2.664-8.3017 5.1648-9.77-3.7783 0.21962-1.7297 0.5639-6.6746 0.77088 5.5875-4.5872-0.2926-10.41 3.3354-13.685-4.9859 2.2799-6.156-0.56991-10.586 2.2444-1.3322-10.092-10.446-6.1021-12.576-15.656-2.4056 6.7595-11.569 5.3825-12.331 15.371z" style="fill:#c6a76e;stroke-linecap:round;stroke-linejoin:round;stroke-width:1.4914;stroke:#000"/>
      <g style="fill:none;stroke-width:.99427;stroke:#000">
       <ellipse cx="1173" cy="168.23" rx="9.4168" ry="16.147" style="fill:none;stroke-linecap:round;stroke-linejoin:round;stroke-width:1.4508;stroke:#000"/>
       <ellipse cx="1173" cy="168.23" rx="6.6743" ry="12.208" style="fill:#007c66;stroke-linecap:round;stroke-linejoin:round;stroke-width:1.062;stroke:#000"/>
       <path d="m1173 151.89v-24.43" style="fill:none;stroke-linecap:round;stroke-linejoin:round;stroke-width:.99427px;stroke:#000"/>
       <path d="m1168.7 152.77c-1.6404-4.5693-5.8231-8.5912-10.399-12.528" style="fill:none;stroke-linecap:round;stroke-linejoin:round;stroke-width:.99427px;stroke:#000"/>
       <path d="m1163.3 165.42c-5.596-0.15364-11.192-7.3189-16.788-11.651" style="fill:none;stroke-linecap:round;stroke-linejoin:round;stroke-width:.99427px;stroke:#000"/>
       <path d="m1163.6 169.68c-11.023 0.51183-16.379-0.95789-26.184-0.75171" style="fill:none;stroke-linecap:round;stroke-linejoin:round;stroke-width:.99427px;stroke:#000"/>
       <path d="m1163.5 173.24c-4.1141 0.75508-6.9276 4.5084-11.366 7.2119" style="fill:none;stroke-linecap:round;stroke-linejoin:round;stroke-width:.99427px;stroke:#000"/>
       <path d="m1169.7 183.48c-2.554 6.582-6.8143 8.8211-10.566 13.007" style="fill:none;stroke-linecap:round;stroke-linejoin:round;stroke-width:.99427px;stroke:#000"/>
       <path d="m1177.2 152.77c1.6404-4.5693 5.8231-8.5912 10.399-12.528" style="fill:none;stroke-linecap:round;stroke-linejoin:round;stroke-width:.99427px;stroke:#000"/>
       <path d="m1182.6 165.42c5.596-0.15364 11.192-7.3189 16.788-11.651" style="fill:none;stroke-linecap:round;stroke-linejoin:round;stroke-width:.99427px;stroke:#000"/>
       <path d="m1182.3 169.68c11.023 0.51183 16.379-0.95789 26.184-0.75171" style="fill:none;stroke-linecap:round;stroke-linejoin:round;stroke-width:.99427px;stroke:#000"/>
       <path d="m1182.1 172.69c4.1141 0.75508 7.2145 5.0624 11.653 7.766" style="fill:none;stroke-linecap:round;stroke-linejoin:round;stroke-width:.99427px;stroke:#000"/>
       <path d="m1175.9 183.48c2.554 6.582 7.0806 8.8211 10.833 13.007" style="fill:none;stroke-linecap:round;stroke-linejoin:round;stroke-width:.99427px;stroke:#000"/>
      </g>
     </g>
     <g style="stroke-width:.99427;stroke:#000">
      <path d="m945.57 209.4c3.7759 7.5507 9.0207 21.935 18.292 27.563 7.0913 4.3049 17.305 7.3314 24.932 0.87699-7.0621-0.80792-5.6243-4.9249-8.6446-7.3918-1.4432-1.1787-4.2769-0.4478-6.3332-1.3776-1.7796-0.80467-1.995-3.3227-0.68282-4.2602 4.0585-2.8997 5.3362 3.4482 9.5216 3.6332 2.6387 0.11668 5.432 0.0812 7.5171-2.0045-3.578-1.2509-2.5409-7.1119-6.0137-9.6469-2.1613-1.5777-7.1942-0.54615-9.9587-0.94506-1.6353-0.23598-3.6544-2.3006-1.9433-4.4422 2.0903-2.6162 5.5694 0.63841 8.1435-0.50114 7.2839-3.2246 7.0936-13.627 12.027-17.039-3.575 0.21743-7.1562-6.7251-12.904-4.7608-2.4827 0.84839-3.5576 3.5884-5.2275 6.3136-1.5255 2.4895-3.8865 4.0463-5.4217 2.2057-3.1985-3.8345 4.6406-4.9878 6.2642-8.2688 1.2066-2.4384 2.1687-5.8476 3.3827-8.3941-4.4175 2.8165-8.4812 1.007-13.155 3.8838-3.9552 2.4345-4.4867 9.4011-10.023 7.8929-2.4825-0.6763-0.98158-3.8615 0.75171-5.7631 2.1351-2.3424 6.7995-1.3721 9.0205-3.6332 4.1862-4.2621 0.16658-10.272 1.8793-14.157-4.4649 3.13-11.777-0.14072-15.285 5.5125-1.4637 2.3593-0.36863 5.9606-2.8816 7.1412-1.4891 0.69957-2.5615 0.11036-2.8815-1.5034-0.47118-2.3759 3.5959-2.597 4.7608-6.1389 1.3785-4.1914-1.7543-5.1576-0.12528-10.399-2.4499 3.9042-6.7166 2.9097-9.5216 5.262-2.3296 1.9535-2.5592 5.4171-5.5125 6.1389-3.4115 0.83382-4.6038-4.0439-12.403-2.631-8.9927 1.6291-6.5364 8.3096-10.9 12.779 6.7244-0.0677 11.188-2.0682 16.162 0.50114 8.3707 4.3238 12.95 15.127 17.164 23.553z" style="fill:#c6a76e;stroke-linecap:round;stroke-linejoin:round;stroke-width:1.4914;stroke:#000"/>
      <ellipse transform="rotate(-35.565)" cx="648.83" cy="734.44" rx="7.2811" ry="16.677" style="fill:#c6a76e;stroke-linecap:round;stroke-linejoin:round;stroke-width:1.4506;stroke:#000"/>
      <ellipse transform="matrix(.81278 -.58258 .58069 .81412 0 0)" cx="648.8" cy="735.48" rx="5.7314" ry="13.138" style="fill:#da1e2a;stroke-linecap:round;stroke-linejoin:round;stroke-width:1.0619;stroke:#000"/>
      <path d="m946.57 205.76c-5.6376-7.9421-2.8591-10.76-10.273-19.294" style="fill:none;stroke-linecap:round;stroke-linejoin:round;stroke-width:.99427px;stroke:#000"/>
      <path d="m950.33 206.39c-1.4124-4.3878-0.22619-7.3559-1.0023-10.9" style="fill:none;stroke-linecap:round;stroke-linejoin:round;stroke-width:.99427px;stroke:#000"/>
      <path d="m959.73 213.78c3.7838-1.6936 1.666-8.2053 3.3827-12.278" style="fill:none;stroke-linecap:round;stroke-linejoin:round;stroke-width:.99427px;stroke:#000"/>
      <path d="m961.73 216.16c4.3041-5.8374 8.9939-11.353 15.285-15.535" style="fill:none;stroke-linecap:round;stroke-linejoin:round;stroke-width:.99427px;stroke:#000"/>
      <path d="m962.98 218.92c5.2556 1.4167 9.6148-0.2829 12.779 1.1276" style="fill:none;stroke-linecap:round;stroke-linejoin:round;stroke-width:.99427px;stroke:#000"/>
      <path d="m964.74 233.45c4.4794 3.4297 7.7185 1.998 11.902 5.1367" style="fill:none;stroke-linecap:round;stroke-linejoin:round;stroke-width:.99427px;stroke:#000"/>
     </g>
     <g transform="matrix(-1 0 0 1 2340 0)" style="stroke-width:.99427;stroke:#000">
      <path d="m945.57 209.4c3.7759 7.5507 9.0207 21.935 18.292 27.563 7.0913 4.3049 17.305 7.3314 24.932 0.87699-7.0621-0.80792-5.6243-4.9249-8.6446-7.3918-1.4432-1.1787-4.2769-0.4478-6.3332-1.3776-1.7796-0.80467-1.995-3.3227-0.68282-4.2602 4.0585-2.8997 5.3362 3.4482 9.5216 3.6332 2.6387 0.11668 5.432 0.0812 7.5171-2.0045-3.578-1.2509-2.5409-7.1119-6.0137-9.6469-2.1613-1.5777-7.1942-0.54615-9.9587-0.94506-1.6353-0.23598-3.6544-2.3006-1.9433-4.4422 2.0903-2.6162 5.5694 0.63841 8.1435-0.50114 7.2839-3.2246 7.0936-13.627 12.027-17.039-3.575 0.21743-7.1562-6.7251-12.904-4.7608-2.4827 0.84839-3.5576 3.5884-5.2275 6.3136-1.5255 2.4895-3.8865 4.0463-5.4217 2.2057-3.1985-3.8345 4.6406-4.9878 6.2642-8.2688 1.2066-2.4384 2.1687-5.8476 3.3827-8.3941-4.4175 2.8165-8.4812 1.007-13.155 3.8838-3.9552 2.4345-4.4867 9.4011-10.023 7.8929-2.4825-0.6763-0.98158-3.8615 0.75171-5.7631 2.1351-2.3424 6.7995-1.3721 9.0205-3.6332 4.1862-4.2621 0.16658-10.272 1.8793-14.157-4.4649 3.13-11.777-0.14072-15.285 5.5125-1.4637 2.3593-0.36863 5.9606-2.8816 7.1412-1.4891 0.69957-2.5615 0.11036-2.8815-1.5034-0.47118-2.3759 3.5959-2.597 4.7608-6.1389 1.3785-4.1914-1.7543-5.1576-0.12528-10.399-2.4499 3.9042-6.7166 2.9097-9.5216 5.262-2.3296 1.9535-2.5592 5.4171-5.5125 6.1389-3.4115 0.83382-4.6038-4.0439-12.403-2.631-8.9927 1.6291-6.5364 8.3096-10.9 12.779 6.7244-0.0677 11.188-2.0682 16.162 0.50114 8.3707 4.3238 12.95 15.127 17.164 23.553z" style="fill:#c6a76e;stroke-linecap:round;stroke-linejoin:round;stroke-width:1.4914;stroke:#000"/>
      <ellipse transform="rotate(-35.565)" cx="648.83" cy="734.44" rx="7.2811" ry="16.677" style="fill:#c6a76e;stroke-linecap:round;stroke-linejoin:round;stroke-width:1.4506;stroke:#000"/>
      <ellipse transform="matrix(.81278 -.58258 .58069 .81412 0 0)" cx="648.8" cy="735.48" rx="5.7314" ry="13.138" style="fill:#da1e2a;stroke-linecap:round;stroke-linejoin:round;stroke-width:1.0619;stroke:#000"/>
      <path d="m946.57 205.76c-5.6376-7.9421-2.8591-10.76-10.273-19.294" style="fill:none;stroke-linecap:round;stroke-linejoin:round;stroke-width:.99427px;stroke:#000"/>
      <path d="m950.33 206.39c-1.4124-4.3878-0.22619-7.3559-1.0023-10.9" style="fill:none;stroke-linecap:round;stroke-linejoin:round;stroke-width:.99427px;stroke:#000"/>
      <path d="m959.73 213.78c3.7838-1.6936 1.666-8.2053 3.3827-12.278" style="fill:none;stroke-linecap:round;stroke-linejoin:round;stroke-width:.99427px;stroke:#000"/>
      <path d="m961.73 216.16c4.3041-5.8374 8.9939-11.353 15.285-15.535" style="fill:none;stroke-linecap:round;stroke-linejoin:round;stroke-width:.99427px;stroke:#000"/>
      <path d="m962.98 218.92c5.2556 1.4167 9.6148-0.2829 12.779 1.1276" style="fill:none;stroke-linecap:round;stroke-linejoin:round;stroke-width:.99427px;stroke:#000"/>
      <path d="m964.74 233.45c4.4794 3.4297 7.7185 1.998 11.902 5.1367" style="fill:none;stroke-linecap:round;stroke-linejoin:round;stroke-width:.99427px;stroke:#000"/>
     </g>
     <g style="stroke-width:.99427">
      <circle cx="1010.5" cy="224.58" r="9.2705" style="fill:#e7e7e7;stroke-linecap:round;stroke-linejoin:round;stroke-width:1.4506;stroke:#000"/>
      <circle cx="1109.9" cy="205.27" r="9.2705" style="fill:#e7e7e7;stroke-linecap:round;stroke-linejoin:round;stroke-width:1.4506;stroke:#000"/>
      <circle transform="scale(-1,1)" cx="-1230.1" cy="205.27" r="9.2705" style="fill:#e7e7e7;stroke-linecap:round;stroke-linejoin:round;stroke-width:1.4506;stroke:#000"/>
      <circle transform="scale(-1,1)" cx="-1329.5" cy="224.58" r="9.2705" style="fill:#e7e7e7;stroke-linecap:round;stroke-linejoin:round;stroke-width:1.4506;stroke:#000"/>
     </g>
    </g>
    <g style="stroke-width:.99427">
     <g style="stroke-width:.99427">
      <g style="stroke-width:.99427">
       <ellipse transform="translate(56.429 -76.64)" cx="1113.6" cy="400.46" rx="171.89" ry="36.266" style="fill:#da1e2a;stroke-linecap:round;stroke-linejoin:round;stroke-width:1.4914;stroke:#000"/>
       <g transform="matrix(.73618 0 0 1 76.747 384.55)" style="fill:#eac102;stroke-width:.99427;stroke:#000">
        <path d="m1428.7-25.419v-55.588" style="fill:#eac102;stroke-width:.66825;stroke:#000"/>
        <path d="m1418.5-25.967v-54.655" style="fill:#eac102;stroke-width:.98381;stroke:#000"/>
        <path d="m1408.9-26.233v-53.96" style="fill:#eac102;stroke-width:1.3179;stroke:#000"/>
        <path d="m1399.4-26.992v-52.711" style="fill:#eac102;stroke-width:1.6521;stroke:#000"/>
        <path d="m1390.9-27.218v-51.991" style="fill:#eac102;stroke-width:1.9862;stroke:#000"/>
        <path d="m1374.7-28.767-0.2241-49.318m7.8948 49.928v-50.498" style="fill:#eac102;stroke-width:2.3203;stroke:#000"/>
        <path d="m1359.8-29.558v-47.31m7.5684 47.962-0.2242-48.596" style="fill:#eac102;stroke-width:2.6359;stroke:#000"/>
        <path d="m1339.7-31.596v-43.234m6.5757 43.271v-43.995m6.7744 44.744v-45.431" style="fill:#eac102;stroke-width:2.97;stroke:#000"/>
        <path d="m1332.7-32.435v-41.556" style="fill:#eac102;stroke-width:3.3041;stroke:#000"/>
        <path d="m1326.2-33.287v-39.851" style="fill:#eac102;stroke-width:3.6383;stroke:#000"/>
        <path d="m1319.1-34.286v-37.853" style="fill:#eac102;stroke-width:3.9724;stroke:#000"/>
        <path d="m1304.8-37.683-0.2242-32.026m7.5939 33.351v-34.681" style="fill:#eac102;stroke-width:4.2879;stroke:#000"/>
        <path d="m1297.4-39.149v-29.143" style="fill:#eac102;stroke-width:4.5293;stroke:#000"/>
        <path d="m1290.6-40.642v-26.117" style="fill:#eac102;stroke-width:4.8634;stroke:#000"/>
        <path d="m1283.3-42.48v-22.301" style="fill:#eac102;stroke-width:5.1789;stroke:#000"/>
        <path d="m1275.7-44.669v-17.534" style="fill:#eac102;stroke-width:5.4945;stroke:#000"/>
        <path d="m1267.7-48.458v-11.009" style="fill:#eac102;stroke-width:6.4783;stroke:#000"/>
        <path d="m1469.2-24.547v-57.341m-17.237 57.059 0.224-56.812m-12.787 56.554v-56.252" style="fill:#eac102;stroke-width:.33413;stroke:#000"/>
        <path d="m1541.4-25.419v-55.588" style="fill:#eac102;stroke-width:.66825;stroke:#000"/>
        <path d="m1551.6-25.804v-54.818" style="fill:#eac102;stroke-width:.98381;stroke:#000"/>
        <path d="m1561.2-26.445v-53.748" style="fill:#eac102;stroke-width:1.3179;stroke:#000"/>
        <path d="m1570.7-26.723v-52.979" style="fill:#eac102;stroke-width:1.6521;stroke:#000"/>
        <path d="m1579.2-27.542v-51.666" style="fill:#eac102;stroke-width:1.9862;stroke:#000"/>
        <path d="m1595.4-28.767 0.2241-49.318m-7.8949 50.313v-50.882" style="fill:#eac102;stroke-width:2.3203;stroke:#000"/>
        <path d="m1610.3-30.124v-46.744m-7.5683 47.46 0.224-48.095" style="fill:#eac102;stroke-width:2.6359;stroke:#000"/>
        <path d="m1630.3-32.523v-42.307m-6.5759 43.271v-43.995m-6.7744 45.368v-46.055" style="fill:#eac102;stroke-width:2.97;stroke:#000"/>
        <path d="m1637.4-32.435v-41.556" style="fill:#eac102;stroke-width:3.3041;stroke:#000"/>
        <path d="m1643.9-34.154v-38.985" style="fill:#eac102;stroke-width:3.6383;stroke:#000"/>
        <path d="m1650.9-35.21v-36.929" style="fill:#eac102;stroke-width:3.9724;stroke:#000"/>
        <path d="m1665.3-37.683 0.2242-32.026m-7.5939 33.35v-34.681" style="fill:#eac102;stroke-width:4.2879;stroke:#000"/>
        <path d="m1672.7-39.149v-29.142" style="fill:#eac102;stroke-width:4.5293;stroke:#000"/>
        <path d="m1679.4-40.642v-26.116" style="fill:#eac102;stroke-width:4.8634;stroke:#000"/>
        <path d="m1686.8-42.48v-22.301" style="fill:#eac102;stroke-width:5.1789;stroke:#000"/>
        <path d="m1694.4-44.669v-17.533" style="fill:#eac102;stroke-width:5.4945;stroke:#000"/>
        <path d="m1702.4-48.458v-11.437" style="fill:#eac102;stroke-width:6.4783;stroke:#000"/>
        <path d="m1500.9-24.547v-57.341m17.237 57.099-0.224-56.852m12.787 56.554v-56.251" style="fill:#eac102;stroke-width:.33413;stroke:#000"/>
       </g>
       <ellipse transform="translate(56.429 -76.64)" cx="1113.6" cy="407.98" rx="162.25" ry="28.75" style="fill:none;stroke-linecap:round;stroke-linejoin:round;stroke-width:1.4914;stroke:#000"/>
       <path transform="translate(56.429 -76.64)" d="m1113.6 436.73v-57.5" style="fill:none;stroke-width:.19885;stroke:#000"/>
       <path transform="translate(-25.134 54.36)" d="m1195.1 233.2a171.89 36.266 0 0 0-171.89 36.266 171.89 36.266 0 0 0 14.789 14.607 162.25 28.75 0 0 1-5.1523-7.0898 162.25 28.75 0 0 1 162.25-28.75 162.25 28.75 0 0 1 162.25 28.75 162.25 28.75 0 0 1-5.5254 7.3008 171.89 36.266 0 0 0 15.162-14.818 171.89 36.266 0 0 0-171.89-36.266z" style="fill:#c6a76e;stroke-linecap:round;stroke-linejoin:round;stroke-width:1.4914;stroke:#000"/>
      </g>
      <path d="m1170 231.75c-103.03 0-186.55 25.246-186.55 47.289 0 3.1363 2.8074 6.2657 8.0098 9.2852l-0.2676-0.75781c-0.7801-2.214-0.7418-3.6968 0.8652-5.6875 25.024-22.338 96.686-37.586 177.95-37.592 81.262 6e-3 152.92 15.254 177.95 37.592 1.6069 1.9907 1.6453 3.4735 0.8652 5.6875l-0.2676 0.75781c5.2023-3.0195 8.0098-6.1489 8.0098-9.2852 0-22.043-83.524-47.289-186.55-47.289z" style="fill:#c6a76e;stroke-linecap:round;stroke-linejoin:round;stroke-width:1.4914;stroke:#000"/>
      <path d="m1170 244.29c-81.262 6e-3 -152.92 15.254-177.95 37.592-1.607 1.9907-1.6453 3.4735-0.8652 5.6875l10.316 29.277c15.805-17 86.388-29.267 168.5-29.285 82.108 0.0177 152.69 12.285 168.5 29.285l10.316-29.277c0.7801-2.214 0.7417-3.6968-0.8652-5.6875-25.024-22.338-96.686-37.586-177.95-37.592z" style="fill:#c6a76e;stroke-linecap:round;stroke-linejoin:round;stroke-width:1.4914;stroke:#000"/>
      <g transform="translate(56.429 -76.64)" style="stroke-width:.99427;stroke:#000">
       <path transform="translate(-81.563 131)" d="m1365 258.61c-2.4622-2.247-5.6057-4.2906-9.4219-6.2344-9.0917-4.6309-22.058-8.684-38.154-12.08-20.202-4.2623-45.407-7.387-72.549-9.125" style="fill:none;stroke-linecap:round;stroke-linejoin:round;stroke-width:.49714;stroke:#000"/>
       <path transform="translate(-81.563 131)" d="m1366.3 254.94c-2.5645-2.1319-5.5916-4.0073-9.0781-5.7832-9.5728-4.876-22.762-8.961-39.045-12.396-18.154-3.8302-40.198-6.736-64.014-8.5606" style="fill:none;stroke-linecap:round;stroke-linejoin:round;stroke-width:.49714;stroke:#000"/>
       <path transform="translate(-81.563 131)" d="m1367.6 251.33c-2.5839-2.0041-5.4853-3.7457-8.7109-5.3887-10.054-5.121-23.468-9.2361-39.938-12.711-17.002-3.5871-37.294-6.3545-59.207-8.2012" style="fill:none;stroke-linecap:round;stroke-linejoin:round;stroke-width:.49714;stroke:#000"/>
       <path transform="translate(-81.563 131)" d="m1368.8 247.77c-2.555-1.8739-5.3271-3.5026-8.332-5.0332-10.535-5.3661-24.174-9.5131-40.83-13.027-16.531-3.4879-36.046-6.2031-57.106-8.0566" style="fill:none;stroke-linecap:round;stroke-linejoin:round;stroke-width:.49714;stroke:#000"/>
       <path transform="translate(-81.563 131)" d="m1370.1 244.21c-2.4944-1.7455-5.1439-3.2615-7.9511-4.6914-11.016-5.6111-24.878-9.7863-41.721-13.34-16.599-3.5022-36.095-6.2216-57.098-8.084" style="fill:none;stroke-linecap:round;stroke-linejoin:round;stroke-width:.49714;stroke:#000"/>
       <path transform="translate(-81.563 131)" d="m1371.3 240.79c-2.4141-1.6246-4.9304-3.0519-7.5625-4.3926-11.484-5.8496-25.566-10.057-42.59-13.648-16.946-3.5754-36.794-6.3359-58.148-8.209" style="fill:none;stroke-linecap:round;stroke-linejoin:round;stroke-width:.49714;stroke:#000"/>
       <path transform="translate(-81.563 131)" d="m1372.6 237.18c-2.314-1.5022-4.6953-2.8354-7.1543-4.0879-11.978-6.1012-26.29-10.338-43.506-13.971-17.623-3.7182-38.268-6.5477-60.436-8.4316" style="fill:none;stroke-linecap:round;stroke-linejoin:round;stroke-width:.49714;stroke:#000"/>
       <path transform="translate(-81.563 131)" d="m1373.8 233.67c-2.2047-1.3874-4.4537-2.6223-6.752-3.793-12.459-6.3463-26.996-10.615-44.398-14.287-18.707-3.947-40.693-6.8892-64.248-8.7754" style="fill:none;stroke-linecap:round;stroke-linejoin:round;stroke-width:.49714;stroke:#000"/>
       <path transform="translate(-81.563 131)" d="m1374.3 229.77c-1.8577-1.1091-3.734-2.1344-5.6368-3.1035-12.94-6.5914-27.7-10.891-45.289-14.602-20.372-4.2981-44.475-7.4056-70.234-9.2676" style="fill:none;stroke-linecap:round;stroke-linejoin:round;stroke-width:.49714;stroke:#000"/>
       <path transform="translate(-81.563 131)" d="m1363.6 220.68c-11.687-5.095-24.626-8.6597-39.541-11.807-22.597-4.7676-49.619-8.073-78.381-9.8516" style="fill:none;stroke-linecap:round;stroke-linejoin:round;stroke-width:.49714;stroke:#000"/>
       <path transform="translate(-81.563 131)" d="m1323 204.63c-26.389-5.4197-58.332-8.889-91.947-10.33" style="fill:none;stroke-linecap:round;stroke-linejoin:round;stroke-width:.49714;stroke:#000"/>
      </g>
      <path transform="translate(-25.134 54.36)" d="m1298 198.91-1.709 10.787-16.547 6.0234-4.1875-3.2715-11.674 4.25 9.7383 7.6094 5.0391-1.834 13.889 10.852-0.9726 6.1465v6e-3c4.3549 0.62502 8.5822 1.2864 12.644 1.9922l0.9395-5.9277 16.982-6.1816 3.9258 3.0684 11.615-4.2266-9.4922-7.416-5.1718 1.8828-14.078-11 1.6055-10.141c-4.0544-0.92454-8.2473-1.7944-12.551-2.6191z" style="fill:#c6a76e;stroke-linecap:round;stroke-linejoin:round;stroke-width:1.2926;stroke:#000"/>
     </g>
     <path d="m1170 360.09v-57.5" style="fill:none;stroke-width:.19885;stroke:#000"/>
     <g style="stroke-width:.99427;stroke:#000">
      <g style="stroke-width:.99427;stroke:#000">
       <path d="m1275.4 253.75-1.7736 11.198-18.898 6.8783" style="fill:none;stroke-linecap:round;stroke-linejoin:round;stroke-width:.74571;stroke:#000"/>
       <path d="m1269 294.17 1.045-6.5977-15.848-12.382-3.9018 1.4201-6.0162-4.7004" style="fill:none;stroke-linecap:round;stroke-linejoin:round;stroke-width:.74571;stroke:#000"/>
      </g>
      <path d="m1283.3 255.41-1.7077 10.782 15.848 12.381" style="fill:none;stroke-linecap:round;stroke-linejoin:round;stroke-width:.74571;stroke:#000"/>
      <path d="m1277.1 295.48 0.9514-6.6395 18.898-6.8784 4.3454 3.395 7.7165-2.7177" style="fill:none;stroke-linecap:round;stroke-linejoin:round;stroke-width:.74571;stroke:#000"/>
      <path d="m1261.6 274.62 16.194-5.8943 13.58 10.61-16.194 5.8943z" style="fill:#007c66;stroke-linecap:round;stroke-linejoin:round;stroke-width:1.1931;stroke:#000"/>
     </g>
     <g transform="matrix(-1 0 0 1 2340 0)" style="stroke-width:.99427;stroke:#000">
      <g style="stroke-width:.99427;stroke:#000">
       <path d="m1272.9 253.26-1.71 10.797-16.548 6.0229-4.1873-3.2715-11.675 4.2492 9.7394 7.6092 5.0377-1.8336 13.89 10.852-0.9733 6.1454" style="fill:none;stroke-linecap:round;stroke-linejoin:round;stroke-width:1.2926;stroke:#000"/>
       <path d="m1275.4 253.75-1.7736 11.198-18.898 6.8783" style="fill:none;stroke-linecap:round;stroke-linejoin:round;stroke-width:.74571;stroke:#000"/>
       <path d="m1269 294.17 1.045-6.5977-15.848-12.382-3.9018 1.4201-6.0162-4.7004" style="fill:none;stroke-linecap:round;stroke-linejoin:round;stroke-width:.74571;stroke:#000"/>
      </g>
      <path d="m1283.3 255.41-1.7077 10.782 15.848 12.381" style="fill:none;stroke-linecap:round;stroke-linejoin:round;stroke-width:.74571;stroke:#000"/>
      <path d="m1285.4 255.88-1.6064 10.143 14.078 10.999 5.1723-1.8825v-1e-5l9.4919 7.4159-11.614 4.2273-3.9264-3.0676-16.982 6.1811-0.9389 5.9284" style="fill:none;stroke-linecap:round;stroke-linejoin:round;stroke-width:1.2926;stroke:#000"/>
      <path d="m1277.1 295.48 0.9514-6.6395 18.898-6.8784 4.3454 3.395 8.9461-3.1652" style="fill:none;stroke-linecap:round;stroke-linejoin:round;stroke-width:.74571;stroke:#000"/>
      <path d="m1261.6 274.62 16.194-5.8943 13.58 10.61-16.194 5.8943z" style="fill:#007c66;stroke-linecap:round;stroke-linejoin:round;stroke-width:1.1931;stroke:#000"/>
     </g>
     <g style="stroke-width:.99427;stroke:#000">
      <ellipse cx="1170" cy="266.02" rx="28.045" ry="17.386" style="fill:none;stroke-linecap:round;stroke-linejoin:round;stroke-width:1.2926;stroke:#000"/>
      <ellipse cx="1170" cy="266.02" rx="20.933" ry="12.729" style="fill:#da1e2a;stroke-linecap:round;stroke-linejoin:round;stroke-width:.99427;stroke:#000"/>
      <path d="m1187.5 267.6c-1.9736 4.9809-9.0548 8.6675-17.488 8.6675-2.0557 0-4.0311-0.21906-5.8717-0.62253" style="fill:none;stroke-linecap:round;stroke-linejoin:round;stroke-width:.74571;stroke:#000"/>
     </g>
     <g style="stroke-width:.99427;stroke:#000">
      <path transform="matrix(.98753 -.15741 0 1 0 0)" d="m1030.6 456.85c0 7.136-6.5922 13.259-14.828 12.921-7.0927-0.29146-8.8826-5.1412-11.041-12.45-2.2868-7.7437 2.8517-13.392 11.041-13.392s14.828 5.7848 14.828 12.921z" style="fill:#c6a76e;stroke-linecap:round;stroke-linejoin:round;stroke-width:1.3007;stroke:#000"/>
      <path d="m1011.4 296.04a8.8191 10.718 56.514 0 1-10.178 10.965 8.8191 10.718 56.514 0 1-10.178-7.6098 8.8191 10.718 56.514 0 1 10.178-10.965 8.8191 10.718 56.514 0 1 10.178 7.6098z" style="fill:#da1e2a;stroke-linecap:round;stroke-linejoin:round;stroke-width:.99427;stroke:#000"/>
     </g>
     <g transform="matrix(-1 0 0 1 2340 0)" style="stroke-width:.99427">
      <path transform="matrix(.98753 -.15741 0 1 0 0)" d="m1030.6 456.85c0 7.136-6.5922 13.259-14.828 12.921-7.0927-0.29146-8.8826-5.1412-11.041-12.45-2.2868-7.7437 2.8517-13.392 11.041-13.392s14.828 5.7848 14.828 12.921z" style="fill:#c6a76e;stroke-linecap:round;stroke-linejoin:round;stroke-width:1.3007;stroke:#000"/>
      <path d="m1011.4 296.04a8.8191 10.718 56.514 0 1-10.178 10.965 8.8191 10.718 56.514 0 1-10.178-7.6098 8.8191 10.718 56.514 0 1 10.178-10.965 8.8191 10.718 56.514 0 1 10.178 7.6098z" style="fill:#da1e2a;stroke-linecap:round;stroke-linejoin:round;stroke-width:.99427;stroke:#000"/>
     </g>
    </g>
   </g>
  </g>
 </g>
 <g transform="translate(6.4225 93.598)">
  <path transform="translate(-20.957 -58.798)" d="m276 757.05v199c18.933 0.095 37.893-2.0278 56.436-6.5449 93.447-20.19 169-99.613 188.13-192.45z" style="fill:#008f4c;stroke:#000"/>
  <path d="m5.5426 300.26v348.5a248.5 248.5 0 0 0 248.5 248.5 248.5 248.5 0 0 0 248.5-248.5v-348.5z" style="fill-rule:evenodd;fill:#e7e7e7;stroke-linecap:round;stroke-linejoin:round;stroke:#000"/>
  <path transform="translate(-20.988 -58.798)" d="m26.531 359.06v197h248.5v-197z" style="fill:#f0f2f0;stroke-linecap:round;stroke-linejoin:round;stroke:#000"/>
  <path transform="translate(-20.988 -58.798)" d="m276.03 359.06v397.99h242.25a248.5 248.5 0 0 0 5.2461-49.49v-348.5z" style="fill:#0038a8;stroke-linecap:round;stroke-linejoin:round;stroke:#000"/>
  <path transform="translate(-20.988 -58.798)" d="m26.531 556.06v151.5a248.5 248.5 0 0 0 248.5 248.5v-400z" style="fill:#c6a76e;stroke-linecap:round;stroke-linejoin:round;stroke:#000"/>
  <path transform="translate(-20.988 -58.798)" d="m275.03 757.05v199.01a248.5 248.5 0 0 0 243.25-199.01z" style="fill:#007c66;stroke-linecap:round;stroke-linejoin:round;stroke:#000"/>
 </g>
 <g transform="translate(62.851 16.958)">
  <path transform="translate(-77.417 17.843)" d="m60.158 556.06v275.87a248.5 248.5 0 0 0 25.75 36.729v-312.6zm51.82 0v338.62a248.5 248.5 0 0 0 25.781 19.838v-358.46zm51.855 0v373.65a248.5 248.5 0 0 0 25.75 10.992v-384.64zm51.822 0v392.54a248.5 248.5 0 0 0 25.75 4.8926v-397.43z" style="fill:#da1e2a;stroke-linecap:round;stroke-linejoin:round;stroke:#000"/>
 </g>
 <g transform="translate(62.851 16.958)">
  <g style="fill:#c6a76e">
   <path d="m307.9 855.14c-0.0956-0.0659-2.2244-1.5366-2.1295-3.8306 0.0956-2.2939 1.8625-3.411 2.0655-4.2925 0.28688-1.2428-0.98348-2.1925-0.98348-2.1925s3.052-0.19994 3.8795 1.963c0.82754 2.1629-1.5271 3.3118-1.7507 5.2422-0.22289 1.9304 0.58111 3.5246 0.58111 3.5246l-0.99525-0.44833-0.66718 0.0341z" stroke-miterlimit="3.8637" style="fill:#c6a76e;stroke-miterlimit:3.8637;stroke:#000"/>
   <path d="m317.1 863.51s2.7691-0.0782 3.3706-2.4256c0.60159-2.3473-2.6484-4.0687-5.2569-4.3817s-6.0595 0.35241-6.0595 0.35241l2.4879 2.1126s1.9524-0.4582 3.725-0.32738c1.7726 0.13208 2.057 0.99026 2.1553 1.4804 0.0982 0.49012-0.66515 1.265-0.86546 1.4647-0.20031 0.19968-0.8693 0.71108-0.8693 0.71108z" stroke-miterlimit="3.8637" style="fill:#c6a76e;stroke-miterlimit:3.8637;stroke:#000"/>
   <g transform="translate(-56.429 76.64)" style="fill:#c6a76e;stroke-miterlimit:3.8637">
    <g transform="matrix(.74414 0 0 .73315 548.37 198.07)" style="fill:#c6a76e;stroke-miterlimit:3.8637;stroke-width:1.3539">
     <path d="m-192.22 747.99c-47.756 20.655-73.483 66.948-96.217 126.81 1.4372 0.5606 2.8984 1.0989 4.3772 1.6171 9.8553-25.824 19.96-48.516 31.958-67.659 0.0199-0.0317 0.0398-0.0637 0.0597-0.0954 12.732-23.437 30.887-42.07 60.505-56.272-0.21751-1.4742-0.44617-2.9495-0.68268-4.4046z" style="fill-rule:evenodd;fill:#c6a76e;stroke-miterlimit:3.8637;stroke-width:1.3539;stroke:#000"/>
     <g transform="matrix(.61259 .5118 -.27281 .69656 -393.66 200.43)" style="fill:#c6a76e;stroke-miterlimit:3.8637;stroke-width:1.799;stroke:#000">
      <path d="m578 348.63c-23.638 9.178-31.892 5.0015-37.337 34.387 22.555-3.1931 26.888-12.804 37.337-34.387z" style="fill-rule:evenodd;fill:#c6a76e;stroke-miterlimit:3.8637;stroke-width:1.799;stroke:#000"/>
      <path d="m538.62 343.37c4.687 15.192 16.482 27.584-6.9146 51.041-10.262-24.253-7.1112-24.681 6.9146-51.041z" style="fill-rule:evenodd;fill:#c6a76e;stroke-miterlimit:3.8637;stroke-width:1.799;stroke:#000"/>
      <path d="m521.08 370.41c8.3576 15.783 19.388 23.599-1.9847 43.597-4.5945-19.229-10.158-20.456 1.9847-43.597z" style="fill-rule:evenodd;fill:#c6a76e;stroke-miterlimit:3.8637;stroke-width:1.799;stroke:#000"/>
      <path d="m509.76 383.87c4.8001 14.998 16.645 27.305-6.4143 50.186-10.428-23.97-7.2976-24.363 6.4143-50.186z" style="fill-rule:evenodd;fill:#c6a76e;stroke-miterlimit:3.8637;stroke-width:1.799;stroke:#000"/>
      <path d="m492.73 403.16c6.5572 15.638 20.704 29.12-2.98 50.475-11.599-26.509 0.32324-25.627 2.98-50.475z" style="fill-rule:evenodd;fill:#c6a76e;stroke-miterlimit:3.8637;stroke-width:1.799;stroke:#000"/>
      <path d="m479.12 424.45c6.0464 14.95 20.346 28.923-2.3476 49.697-8.3541-21.616-9.2307-24.785 2.3476-49.697z" style="fill-rule:evenodd;fill:#c6a76e;stroke-miterlimit:3.8637;stroke-width:1.799;stroke:#000"/>
      <path d="m576.19 376.83c-11.21 2.6724-29.129-6.7614-44.04 20.709 28.968-1.8866 27.487 0.41322 44.04-20.709z" style="fill-rule:evenodd;fill:#c6a76e;stroke-miterlimit:3.8637;stroke-width:1.799;stroke:#000"/>
      <path d="m564.93 396.07c-11.477 1.9459-30.622-8.27-44.497 17.573 29.952-0.14814 28.548 2.0018 44.497-17.573z" style="fill-rule:evenodd;fill:#c6a76e;stroke-miterlimit:3.8637;stroke-width:1.799;stroke:#000"/>
      <path d="m552.97 412.59c-12.033 2.3044-31.839-8.2204-46.852 19.638 31.306-0.75147 29.796 1.571 46.852-19.638z" style="fill-rule:evenodd;fill:#c6a76e;stroke-miterlimit:3.8637;stroke-width:1.799;stroke:#000"/>
      <path d="m538.96 436.53c-10.911-1.0977-28.929-18.112-46.882 16.751 20.825 4.0335 24.939-7.1896 46.882-16.751z" style="fill-rule:evenodd;fill:#c6a76e;stroke-miterlimit:3.8637;stroke-width:1.799;stroke:#000"/>
      <path d="m517.91 452.88c-15.474-0.89378-22.155-5.4184-38.769 21.498 24.835-3.375 23.44-1.181 38.769-21.498z" style="fill-rule:evenodd;fill:#c6a76e;stroke-miterlimit:3.8637;stroke-width:1.799;stroke:#000"/>
     </g>
     <path transform="translate(-79.864 139.55)" d="m-77.459 576.23 6.9049-11.69" style="fill-rule:evenodd;fill:#c6a76e;stroke-miterlimit:3.8637;stroke-width:1.3539;stroke:#000"/>
     <path transform="translate(-79.864 139.55)" d="m-95.83 585.13 5.5123-11.873" style="fill-rule:evenodd;fill:#c6a76e;stroke-miterlimit:3.8637;stroke-width:1.3539;stroke:#000"/>
     <path transform="translate(-79.864 139.55)" d="m-106.85 588.94 4.2402-11.449" style="fill-rule:evenodd;fill:#c6a76e;stroke-miterlimit:3.8637;stroke-width:1.3539;stroke:#000"/>
     <path transform="translate(-79.864 139.55)" d="m-122.54 593.61 3.3922-12.721" style="fill-rule:evenodd;fill:#c6a76e;stroke-miterlimit:3.8637;stroke-width:1.3539;stroke:#000"/>
     <path transform="translate(-79.864 139.55)" d="m-136.11 601.66 3.8162-12.297" style="fill-rule:evenodd;fill:#c6a76e;stroke-miterlimit:3.8637;stroke-width:1.3539;stroke:#000"/>
     <path transform="translate(-79.864 139.55)" d="m-55.547 599.12 17.385-1.6961" style="fill-rule:evenodd;fill:#c6a76e;stroke-miterlimit:3.8637;stroke-width:1.3539;stroke:#000"/>
     <path transform="translate(-79.864 139.55)" d="m-64.452 618.2 14.417 0.84805" style="fill-rule:evenodd;fill:#c6a76e;stroke-miterlimit:3.8637;stroke-width:1.3539;stroke:#000"/>
     <path transform="translate(-79.864 139.55)" d="m-75.901 626.26 13.145 1.6961" style="fill-rule:evenodd;fill:#c6a76e;stroke-miterlimit:3.8637;stroke-width:1.3539;stroke:#000"/>
     <path transform="translate(-79.864 139.55)" d="m-87.773 631.35 11.873 2.5442" style="fill-rule:evenodd;fill:#c6a76e;stroke-miterlimit:3.8637;stroke-width:1.3539;stroke:#000"/>
     <path transform="translate(-79.864 139.55)" d="m-103.04 640.67 11.025 5.9364" style="fill-rule:evenodd;fill:#c6a76e;stroke-miterlimit:3.8637;stroke-width:1.3539;stroke:#000"/>
     <path transform="translate(-79.864 139.55)" d="m-120.85 641.52 8.9045 3.8162" style="fill-rule:evenodd;fill:#c6a76e;stroke-miterlimit:3.8637;stroke-width:1.3539;stroke:#000"/>
    </g>
    <g transform="matrix(-.74414 0 0 .73315 181.61 198.07)" style="fill:#c6a76e;stroke-miterlimit:3.8637;stroke-width:1.3539">
     <path d="m-192.22 747.99c-47.756 20.655-73.483 66.948-96.217 126.81 1.4372 0.5606 2.8984 1.0989 4.3772 1.6171 9.8553-25.824 19.96-48.516 31.958-67.659 0.0199-0.0317 0.0398-0.0637 0.0597-0.0954 12.732-23.437 30.887-42.07 60.505-56.272-0.21751-1.4742-0.44617-2.9495-0.68268-4.4046z" style="fill-rule:evenodd;fill:#c6a76e;stroke-miterlimit:3.8637;stroke-width:1.3539;stroke:#000"/>
     <g transform="matrix(.61259 .5118 -.27281 .69656 -393.66 200.43)" style="fill:#c6a76e;stroke-miterlimit:3.8637;stroke-width:1.799;stroke:#000">
      <path d="m578 348.63c-23.638 9.178-31.892 5.0015-37.337 34.387 22.555-3.1931 26.888-12.804 37.337-34.387z" style="fill-rule:evenodd;fill:#c6a76e;stroke-miterlimit:3.8637;stroke-width:1.799;stroke:#000"/>
      <path d="m538.62 343.37c4.687 15.192 16.482 27.584-6.9146 51.041-10.262-24.253-7.1112-24.681 6.9146-51.041z" style="fill-rule:evenodd;fill:#c6a76e;stroke-miterlimit:3.8637;stroke-width:1.799;stroke:#000"/>
      <path d="m521.08 370.41c8.3576 15.783 19.388 23.599-1.9847 43.597-4.5945-19.229-10.158-20.456 1.9847-43.597z" style="fill-rule:evenodd;fill:#c6a76e;stroke-miterlimit:3.8637;stroke-width:1.799;stroke:#000"/>
      <path d="m509.76 383.87c4.8001 14.998 16.645 27.305-6.4143 50.186-10.428-23.97-7.2976-24.363 6.4143-50.186z" style="fill-rule:evenodd;fill:#c6a76e;stroke-miterlimit:3.8637;stroke-width:1.799;stroke:#000"/>
      <path d="m492.73 403.16c6.5572 15.638 20.704 29.12-2.98 50.475-11.599-26.509 0.32324-25.627 2.98-50.475z" style="fill-rule:evenodd;fill:#c6a76e;stroke-miterlimit:3.8637;stroke-width:1.799;stroke:#000"/>
      <path d="m479.12 424.45c6.0464 14.95 20.346 28.923-2.3476 49.697-8.3541-21.616-9.2307-24.785 2.3476-49.697z" style="fill-rule:evenodd;fill:#c6a76e;stroke-miterlimit:3.8637;stroke-width:1.799;stroke:#000"/>
      <path d="m576.19 376.83c-11.21 2.6724-29.129-6.7614-44.04 20.709 28.968-1.8866 27.487 0.41322 44.04-20.709z" style="fill-rule:evenodd;fill:#c6a76e;stroke-miterlimit:3.8637;stroke-width:1.799;stroke:#000"/>
      <path d="m564.93 396.07c-11.477 1.9459-30.622-8.27-44.497 17.573 29.952-0.14814 28.548 2.0018 44.497-17.573z" style="fill-rule:evenodd;fill:#c6a76e;stroke-miterlimit:3.8637;stroke-width:1.799;stroke:#000"/>
      <path d="m552.97 412.59c-12.033 2.3044-31.839-8.2204-46.852 19.638 31.306-0.75147 29.796 1.571 46.852-19.638z" style="fill-rule:evenodd;fill:#c6a76e;stroke-miterlimit:3.8637;stroke-width:1.799;stroke:#000"/>
      <path d="m538.96 436.53c-10.911-1.0977-28.929-18.112-46.882 16.751 20.825 4.0335 24.939-7.1896 46.882-16.751z" style="fill-rule:evenodd;fill:#c6a76e;stroke-miterlimit:3.8637;stroke-width:1.799;stroke:#000"/>
      <path d="m517.91 452.88c-15.474-0.89378-22.155-5.4184-38.769 21.498 24.835-3.375 23.44-1.181 38.769-21.498z" style="fill-rule:evenodd;fill:#c6a76e;stroke-miterlimit:3.8637;stroke-width:1.799;stroke:#000"/>
     </g>
     <path transform="translate(-79.864 139.55)" d="m-77.459 576.23 6.9049-11.69" style="fill-rule:evenodd;fill:#c6a76e;stroke-miterlimit:3.8637;stroke-width:1.3539;stroke:#000"/>
     <path transform="translate(-79.864 139.55)" d="m-95.83 585.13 5.5123-11.873" style="fill-rule:evenodd;fill:#c6a76e;stroke-miterlimit:3.8637;stroke-width:1.3539;stroke:#000"/>
     <path transform="translate(-79.864 139.55)" d="m-106.85 588.94 4.2402-11.449" style="fill-rule:evenodd;fill:#c6a76e;stroke-miterlimit:3.8637;stroke-width:1.3539;stroke:#000"/>
     <path transform="translate(-79.864 139.55)" d="m-122.54 593.61 3.3922-12.721" style="fill-rule:evenodd;fill:#c6a76e;stroke-miterlimit:3.8637;stroke-width:1.3539;stroke:#000"/>
     <path transform="translate(-79.864 139.55)" d="m-136.11 601.66 3.8162-12.297" style="fill-rule:evenodd;fill:#c6a76e;stroke-miterlimit:3.8637;stroke-width:1.3539;stroke:#000"/>
     <path transform="translate(-79.864 139.55)" d="m-55.547 599.12 17.385-1.6961" style="fill-rule:evenodd;fill:#c6a76e;stroke-miterlimit:3.8637;stroke-width:1.3539;stroke:#000"/>
     <path transform="translate(-79.864 139.55)" d="m-64.452 618.2 14.417 0.84805" style="fill-rule:evenodd;fill:#c6a76e;stroke-miterlimit:3.8637;stroke-width:1.3539;stroke:#000"/>
     <path transform="translate(-79.864 139.55)" d="m-75.901 626.26 13.145 1.6961" style="fill-rule:evenodd;fill:#c6a76e;stroke-miterlimit:3.8637;stroke-width:1.3539;stroke:#000"/>
     <path transform="translate(-79.864 139.55)" d="m-87.773 631.35 11.873 2.5442" style="fill-rule:evenodd;fill:#c6a76e;stroke-miterlimit:3.8637;stroke-width:1.3539;stroke:#000"/>
     <path transform="translate(-79.864 139.55)" d="m-103.04 640.67 11.025 5.9364" style="fill-rule:evenodd;fill:#c6a76e;stroke-miterlimit:3.8637;stroke-width:1.3539;stroke:#000"/>
     <path transform="translate(-79.864 139.55)" d="m-120.85 641.52 8.9045 3.8162" style="fill-rule:evenodd;fill:#c6a76e;stroke-miterlimit:3.8637;stroke-width:1.3539;stroke:#000"/>
    </g>
   </g>
   <path d="m300.92 859.95c0.39494 0.99305 0.87687 1.9854 2.9378 3.0648 2.061 1.0794 5.4808 1.6401 7.6287 1.4247 2.148-0.21546 4.472-2.2879 5.13-3.1076s-0.30725-1.9426-0.87686-2.2444c-0.56961-0.30179-2.5429-0.25897-2.5429-0.25897s0 0.90673-1.0087 1.3812c-1.0088 0.47443-3.7972 1.4033-5.3398 0.65812-1.5433-0.74444-1.6752-1.1332-1.9382-1.6512 0.48262-1.0794 1.5264-1.5095 1.5264-1.5095l-1.6452-2.2371s-4.8766 1.949-3.8713 4.48z" stroke-miterlimit="3.8637" style="fill:#c6a76e;stroke-miterlimit:3.8637;stroke:#000"/>
   <path d="m295.98 857.24c-1.9843 0.0136-4.2244 0.28854-5.916 1.07-2.7065 1.2504-5.7438 9.2984-3.666 12.281 2.0778 2.9824 3.7113 2.6721 6.8996 3.0092 3.8171 0.40354 9.3924 0.8289 11.494 0.70236 2.5382-0.15286 4.881 0.0485 6.4764 1.4427 1.5953 1.3942 1.2079 2.7415 0.0967 3.4625-1.1112 0.72097-2.8519-0.0958-4.5431-0.72135-1.6912-0.62556-4.1565-0.57709-5.7031 0.4809s-1.4499 3.174-1.4499 3.174 1.0165-1.1076 3.8197-0.91523c2.8032 0.19237 6.041 1.1076 7.733 0.43433 1.692-0.67327 3.7694-2.5007 3.5282-4.9052s-4.4235-4.8909-7.5676-4.8463c-6.7687 0.0959-11.279-0.68775-16.44-1.3814-2.7031-0.3633-1.1955-7.1354 0.13087-8.7826 0.60626-0.75291 2.2303-1.496 4.5085-2.0895 3.4036-0.88667 7.8795-0.0481 9.3294 0.33663 1.4499 0.38472 2.9044 0.16231 2.9044 0.16231s-1.3578-0.83446-1.9378-0.97835c-0.57997-0.14388-4.3498-1.3942-6.573-1.7312-0.83372-0.12638-1.9328-0.21257-3.1234-0.20438z" style="fill:#c6a76e;stroke-miterlimit:3.8637;stroke:#000"/>
  </g>
  <g transform="matrix(1.2884 0 0 1.2887 9.6393 -136.96)">
   <path d="m81.138 431.99c8.207 0 14.678 3.0776 19.334 9.075 5.8396 7.6545 8.7594 19.097 8.7594 34.564 0 14.283-2.6042 24.779-7.8914 31.407-5.3662 6.6288-12.074 9.8642-20.202 9.8642-7.5757 0-13.731-2.9987-18.387-8.9962-5.9974-7.9702-9.0751-19.334-9.0751-34.09 0-14.362 2.9198-25.331 8.7594-32.828 4.6559-5.9974 10.89-8.9961 18.703-8.9961zm1.1048-4.8137c-11.285 0-20.991 3.9456-29.119 11.758-9.3118 9.0751-14.047 20.754-14.047 35.116 0 14.047 4.1035 25.489 12.153 34.327 8.1281 8.8383 18.071 13.257 29.987 13.257 11.837 0 21.859-4.498 30.145-13.573 8.2859-8.996 12.468-20.438 12.468-34.169 0-13.336-4.1035-24.463-12.311-33.301-8.207-8.9172-17.992-13.415-29.277-13.415z" style="fill:#1c1b1d;stroke-width:.1807px;stroke:#000"/>
   <path d="m-3.8113 434.59c3.6299 0 6.7865 0.86804 9.6274 2.5252 2.762 1.6572 4.8926 4.1824 6.4709 7.5757 1.4992 3.3144 2.2884 6.9443 2.2884 10.89 0 5.6818-1.5783 10.259-4.8136 13.81-3.1565 3.63-7.0233 5.445-11.442 5.445-1.1836 0-2.7619-0.079-4.498-0.31578-1.7361-0.23674-3.7089-0.63129-5.9974-1.1048v-37.484c3.3933-0.86804 6.2342-1.3415 8.3648-1.3415zm-32.986-5.3661v2.5252h3.2354c3.3143 0 5.7606 0.86807 7.4178 2.8409 1.1048 1.4204 1.7361 4.8926 1.7361 10.574v58.396c0 5.2082-0.39456 8.5226-1.2626 9.8641-1.5783 2.4463-4.1824 3.709-7.8913 3.709h-3.2354v2.4462h37.089v-2.4462h-3.3143c-3.3144 0-5.6818-1.0259-7.339-2.9198-1.1837-1.4204-1.815-4.8926-1.815-10.653v-26.278c2.762 0.55237 5.3661 1.1048 7.8124 1.4204 2.4463 0.31578 4.7347 0.47349 6.7864 0.47349 8.5227 0 15.072-2.3674 19.728-6.9443 4.6558-4.6559 6.9443-10.574 6.9443-17.992 0-5.3662-1.4994-10.101-4.5769-14.047-3.0776-3.9457-6.7866-6.7865-11.285-8.4437-4.498-1.7361-10.574-2.5252-18.308-2.5252z" style="fill:#1c1b1d;stroke-width:.1807px;stroke:#000"/>
   <path d="m24.165 506.64c-1.9728 0-3.7089 0.71023-5.0504 2.1307-1.4204 1.4204-2.0518 3.1566-2.0518 5.2872 0 2.0517 0.63133 3.7879 2.0518 5.2082 1.3415 1.4994 3.0776 2.1307 5.0504 2.1307 1.9728 0 3.63-0.6313 4.9714-2.1307 1.4204-1.4203 2.0518-3.1564 2.0518-5.2082 0-2.0518-0.63134-3.7879-2.0518-5.2083-1.3414-1.4204-2.9986-2.2096-4.9714-2.2096z" style="fill:#1c1b1d;stroke-width:.1807px;stroke:#000"/>
   <path d="m129.29 506.64c-1.9718 0-3.629 0.71023-5.0494 2.1307-1.3415 1.4204-2.0517 3.1566-2.0517 5.2872 0 2.0517 0.71022 3.7879 2.0517 5.2082 1.4204 1.4994 3.0776 2.1307 5.0494 2.1307 1.9728 0 3.63-0.6313 5.0504-2.1307 1.3416-1.4203 2.0518-3.1564 2.0518-5.2082 0-2.0518-0.71022-3.7879-2.0518-5.2083-1.3415-1.4204-3.0776-2.2096-5.0504-2.2096z" style="fill:#1c1b1d;stroke-width:.1807px;stroke:#000"/>
  </g>
  <g transform="matrix(1.0005 0 0 1.0005 -318.83 2.7796)" stroke-miterlimit="3.8637" style="stroke-width:1.0081">
   <path d="m540.62 654.66 5.3784 10.142h-28.826v-141.83l127.59-42.604 119.78 42.604v141.83h-27.999l5.3763-10.142-0.0453-58.315v-4.5084c0-13.152-10.66-23.812-23.814-23.812-13.15 0-23.816 10.66-23.816 23.812l0.0557 4.4631 4e-3 58.36 5.3763 10.142h-36.634l5.3784-10.142 6e-3 -57.82v-16.104c0-15.03-12.185-27.218-27.216-27.218-15.032 0-27.22 12.187-27.22 27.218l2e-3 6.6874v9.8745l-0.0206 57.363 5.3784 10.142h-36.474l5.3763-10.142-0.0763-57.837v-4.9867c0-13.152-10.662-23.812-23.814-23.812-13.152 0-23.816 10.66-23.816 23.812l0.0536 3.8673 0.0165 58.958z" style="fill:#f0f2f0;stroke-miterlimit:4;stroke-width:.99948;stroke:#000"/>
   <polyline transform="matrix(2.0615 0 0 2.0615 239.62 -11.077)" points="168.96 298.99 175.15 292.56 181.6 299.04" style="fill:none;stroke-miterlimit:4;stroke-width:.48484;stroke:#000"/>
   <polyline transform="matrix(2.0615 0 0 2.0615 239.62 -11.077)" points="207.9 298.99 214.08 292.56 220.56 299.08" style="fill:none;stroke-miterlimit:4;stroke-width:.48484;stroke:#000"/>
   <polyline transform="matrix(2.0615 0 0 2.0615 239.62 -11.077)" points="243.57 298.51 249.25 292.6 254.63 298.04" style="fill:none;stroke-miterlimit:4;stroke-width:.48484;stroke:#000"/>
   <line x1="517.17" x2="540.62" y1="654.66" y2="654.66" style="fill:none;stroke-miterlimit:4;stroke-width:.99948;stroke:#000"/>
   <line x1="588.26" x2="613.98" y1="654.66" y2="654.66" style="fill:none;stroke-miterlimit:4;stroke-width:.99948;stroke:#000"/>
   <line x1="668.42" x2="694.3" y1="654.66" y2="654.66" style="fill:none;stroke-miterlimit:4;stroke-width:.99948;stroke:#000"/>
   <line x1="741.92" x2="764.54" y1="654.66" y2="654.66" style="fill:none;stroke-miterlimit:4;stroke-width:.99948;stroke:#000"/>
   <polyline transform="matrix(2.0615 0 0 2.0615 239.62 -11.077)" points="134.64 265.3 196.55 244.83 254.63 265.46" style="fill:none;stroke-miterlimit:4;stroke-width:.48484;stroke:#000"/>
   <polyline transform="matrix(2.0615 0 0 2.0615 239.62 -11.077)" points="134.64 298.23 140.14 292.6 146.01 298.54" style="fill:none;stroke-miterlimit:4;stroke-width:.48484;stroke:#000"/>
  </g>
 </g>
 <g transform="translate(62.851 16.958)">
  <path transform="translate(-56.429 76.64)" d="m5.5426 300.26v348.5a248.5 248.5 0 0 0 248.5 248.5 248.5 248.5 0 0 0 248.5-248.5v-348.5z" style="fill:none;stroke-linecap:round;stroke-linejoin:round;stroke-width:3;stroke:#000"/>
 </g>
</svg>
